<?xml version="1.0" encoding="UTF-8" standalone="no"?>
<!-- Created with Inkscape (http://www.inkscape.org/) -->

<svg
   xmlns:dc="http://purl.org/dc/elements/1.1/"
   xmlns:cc="http://creativecommons.org/ns#"
   xmlns:rdf="http://www.w3.org/1999/02/22-rdf-syntax-ns#"
   xmlns:svg="http://www.w3.org/2000/svg"
   xmlns="http://www.w3.org/2000/svg"
   xmlns:sodipodi="http://sodipodi.sourceforge.net/DTD/sodipodi-0.dtd"
   xmlns:inkscape="http://www.inkscape.org/namespaces/inkscape"
   width="128"
   height="127.99999"
   id="svg2"
   version="1.1"
   inkscape:version="0.48.4 r9939"
   sodipodi:docname="classica_earth-asia-australia_simple-black_128.svg">
  <defs
     id="defs4" />
  <sodipodi:namedview
     id="base"
     pagecolor="#ffffff"
     bordercolor="#666666"
     borderopacity="1.0"
     inkscape:pageopacity="0.0"
     inkscape:pageshadow="2"
     inkscape:zoom="0.2500633"
     inkscape:cx="322.08024"
     inkscape:cy="266.06573"
     inkscape:document-units="px"
     inkscape:current-layer="layer1"
     showgrid="false"
     fit-margin-top="0"
     fit-margin-left="0"
     fit-margin-right="0"
     fit-margin-bottom="0"
     inkscape:window-width="1325"
     inkscape:window-height="744"
     inkscape:window-x="1401"
     inkscape:window-y="24"
     inkscape:window-maximized="1" />
  <metadata
     id="metadata7">
    <rdf:RDF>
      <cc:Work
         rdf:about="">
        <dc:format>image/svg+xml</dc:format>
        <dc:type
           rdf:resource="http://purl.org/dc/dcmitype/StillImage" />
        <dc:title></dc:title>
      </cc:Work>
    </rdf:RDF>
  </metadata>
  <g
     inkscape:label="Layer 1"
     inkscape:groupmode="layer"
     id="layer1"
     transform="translate(-131.30438,-445.43144)">
    <path
       inkscape:connector-curvature="0"
       id="path3010"
       d="m 193.14001,573.38897 c -23.42862,-0.87697 -44.36882,-14.28805 -54.97755,-35.21019 -6.02766,-11.88753 -8.12552,-25.13363 -6.12089,-38.64801 1.47875,-9.96915 5.84945,-20.21622 12.31333,-28.8685 2.38756,-3.19589 9.02034,-9.82862 12.21814,-12.21803 11.5947,-8.66366 24.71333,-13.06382 38.795,-13.01235 10.40922,0.038 19.67458,2.23979 28.71153,6.82279 26.88828,13.63612 40.66918,43.93276 33.21683,73.02564 -2.06044,8.04368 -5.84749,15.86511 -11.06004,22.84241 -2.38755,3.19589 -9.02035,9.82862 -12.21814,12.21803 -12.00888,8.97313 -26.46568,13.5877 -40.87821,13.04821 z m 10.39771,-7.32376 c 10.84512,-1.62335 20.86378,-6.22278 29.22776,-13.41806 1.56916,-1.34991 2.85302,-2.49229 2.85302,-2.53862 0,-0.0463 -0.35873,-0.0674 -0.79718,-0.0468 -0.45337,0.0213 -0.84694,-0.10426 -0.91256,-0.29105 -0.15515,-0.44177 4.97782,-5.63171 5.56991,-5.63171 0.25685,0 0.52891,-0.19973 0.60457,-0.44384 0.0757,-0.24411 0.40602,-1.07156 0.73412,-1.83877 0.32812,-0.76721 0.65847,-1.59466 0.73413,-1.83877 0.18924,-0.61052 0.80663,-0.5565 1.27449,0.11151 0.21392,0.30544 0.43806,0.50517 0.49809,0.44384 0.06,-0.0613 0.63474,-1.00182 1.27714,-2.08999 5.23573,-8.86867 7.8938,-18.59174 7.84869,-28.70998 -0.0266,-5.95615 -0.75971,-11.07068 -2.28219,-15.92082 -2.96658,-9.45061 -7.67777,-17.19137 -14.78543,-24.2933 -6.46975,-6.46455 -13.04425,-10.5092 -21.86395,-13.45074 -2.14177,-0.71433 -4.56655,-1.36098 -5.3884,-1.43702 l -1.49427,-0.13824 0.55896,0.75608 c 0.40566,0.54874 0.51233,0.94184 0.38896,1.43343 -0.23578,0.93947 -0.78609,0.8693 -3.03137,-0.38655 -1.50933,-0.84421 -1.90209,-1.18462 -1.90209,-1.64856 0,-0.49559 -0.13109,-0.58466 -0.86048,-0.58466 -0.49316,0 -0.91719,0.14781 -0.99333,0.34626 -0.0962,0.2508 -0.86111,0.37864 -2.77483,0.46376 -2.07617,0.0923 -2.785,0.22187 -3.30994,0.60484 -0.36739,0.26802 -0.67157,0.57895 -0.67595,0.69093 -0.004,0.11199 0.77058,0.18088 1.72215,0.1531 1.48187,-0.0433 1.90031,0.0492 2.91631,0.64469 1.40115,0.8212 1.49003,0.93891 1.82044,2.41129 0.23644,1.05359 0.32227,1.14364 1.26802,1.33044 1.99092,0.39323 2.15562,0.46416 2.15562,0.9283 0,0.2684 -0.37247,0.66308 -0.8876,0.94052 -1.02506,0.55208 -1.05471,0.6401 -0.41161,1.22214 0.2734,0.24744 0.5413,0.93888 0.62942,1.62446 0.0844,0.6565 0.22293,1.5471 0.30788,1.97909 0.14871,0.75612 0.10253,0.80654 -1.2367,1.35014 -0.76514,0.31057 -1.65499,0.84553 -1.97744,1.18879 -0.43607,0.46421 -0.75436,0.58718 -1.2424,0.47998 -0.49137,-0.10793 -0.80775,0.0173 -1.25989,0.49859 -0.33206,0.35349 -0.80452,0.64271 -1.0499,0.64271 -0.29333,0 -0.47364,0.23015 -0.5264,0.67189 -0.11605,0.97173 -0.80224,1.32679 -1.6424,0.84986 -1.4741,-0.83681 -1.42955,-1.82782 0.15635,-3.47841 0.84359,-0.87799 1.29445,-1.12251 2.54684,-1.38121 0.83699,-0.17289 1.5218,-0.40287 1.5218,-0.51107 0,-0.1082 0.40543,-0.5657 0.90096,-1.01666 0.83116,-0.7564 0.88796,-0.89934 0.7332,-1.84492 -0.0923,-0.56375 -0.3453,-1.22593 -0.56229,-1.47152 -0.32411,-0.36683 -0.34423,-0.61038 -0.11274,-1.36472 0.26246,-0.85522 0.22617,-0.9852 -0.52888,-1.89493 -0.44586,-0.53719 -0.87892,-0.97878 -0.96235,-0.98129 -0.0834,-0.003 -0.36566,0.46997 -0.62718,1.04997 -0.93835,2.08107 -1.73732,2.91766 -3.09827,3.24417 -1.03848,0.24915 -1.4629,0.54211 -2.46196,1.69941 l -1.20716,1.39836 1.06696,1.08725 c 1.39386,1.42035 1.36258,2.27221 -0.11438,3.11506 -1.53868,0.87807 -2.20062,0.69759 -2.53715,-0.69178 -0.19557,-0.80742 -0.42072,-1.16562 -0.77153,-1.2275 -0.27245,-0.0481 -0.67818,-0.32017 -0.90163,-0.6047 -0.39654,-0.50491 -0.43743,-0.50696 -1.70613,-0.0855 -1.3408,0.44537 -1.81845,0.37859 -1.81845,-0.25424 0,-0.201 -0.0632,-0.36546 -0.14035,-0.36546 -0.23955,0 -1.88845,1.38407 -1.88846,1.58514 -1e-5,0.28363 0.97395,0.22972 1.56498,-0.0866 0.65293,-0.34946 2.23905,-0.0707 2.23905,0.39359 0,0.19107 -0.51943,0.80465 -1.15429,1.36352 -0.88929,0.78285 -1.07189,1.06437 -0.79541,1.22627 0.83166,0.48697 2.47108,2.68262 2.33147,3.12251 -0.0887,0.2796 0.0121,0.5111 0.26488,0.60811 0.58406,0.22414 0.29368,1.29176 -1.02023,3.75103 -1.18177,2.21193 -3.85421,5.39825 -4.76297,5.67881 -0.8653,0.26715 -5.26117,2.93204 -5.26117,3.18946 0,0.1242 0.14264,0.45424 0.31698,0.73342 0.26461,0.42374 0.23318,0.66284 -0.1902,1.44717 -0.27895,0.51676 -0.81322,1.11045 -1.18726,1.31931 -0.62052,0.34649 -0.72602,0.33817 -1.20461,-0.095 -0.65937,-0.59677 -0.66432,-1.1645 -0.0173,-1.98707 0.70662,-0.89839 0.6761,-1.53512 -0.0634,-1.32321 -0.77393,0.22178 -2.72623,2.26337 -2.72623,2.85091 0,0.60607 0.32167,0.98385 2.00926,2.35975 2.42845,1.97992 3.29391,4.00416 2.54936,5.96267 -0.14292,0.37592 -0.79912,1.22429 -1.45823,1.88526 -0.6591,0.66097 -1.52344,1.61627 -1.92075,2.12288 -0.89496,1.14115 -1.64103,1.21362 -1.84784,0.17947 -0.10238,-0.51196 -0.38335,-0.839 -0.90722,-1.05601 -0.41739,-0.1729 -1.06416,-0.64103 -1.43725,-1.04027 -0.3731,-0.39925 -1.00963,-0.78598 -1.4145,-0.8594 -0.40488,-0.0734 -0.81994,-0.18529 -0.92234,-0.24859 -0.10241,-0.0633 -0.26492,0.72505 -0.36113,1.75188 -0.17376,1.85445 -0.16899,1.87475 0.713,3.03032 0.48837,0.63985 0.92819,1.2598 0.97737,1.37765 0.0492,0.11786 0.63865,0.53292 1.30994,0.92236 1.16874,0.67804 2.20017,1.92639 2.20218,2.66533 5.1e-4,0.1918 0.30814,1.0333 0.6836,1.87 0.65884,1.4682 0.66619,1.53333 0.21064,1.86645 -0.44195,0.3232 -0.44505,0.37496 -0.0487,0.81302 0.23285,0.25731 0.42336,0.58017 0.42336,0.71745 0,0.13729 0.33824,0.57369 0.75164,0.96979 0.62583,0.59963 0.8163,0.66651 1.13792,0.39956 0.88676,-0.736 2.69283,0.69742 1.97475,1.5673 -0.26553,0.32164 -0.25474,2.72133 0.0142,3.15649 0.23882,0.38646 4.6372,0.35764 6.3298,-0.0415 2.10443,-0.49622 2.63027,-0.47625 3.22909,0.12262 0.68937,0.68942 2.09838,0.86113 4.06122,0.49491 1.68743,-0.31483 2.4917,-0.4147 5.26226,-0.65344 1.35543,-0.1168 1.58501,-0.0763 1.58501,0.27932 0,0.23846 -0.39292,0.5801 -0.92098,0.80075 -0.68539,0.2864 -0.84757,0.45826 -0.634,0.67184 0.45952,0.45957 0.33327,0.92514 -0.29354,1.08247 -0.84306,0.21161 -1.95552,-0.28155 -1.95552,-0.8669 0,-0.38173 -0.12588,-0.45784 -0.5706,-0.34502 -0.31383,0.0796 -0.82655,0.30977 -1.13938,0.51146 -0.35195,0.22693 -0.93198,0.32061 -1.52161,0.24575 -0.52407,-0.0665 -2.42598,0.0378 -4.22645,0.23179 -2.4018,0.25881 -3.99717,0.29057 -5.99068,0.11925 -2.81676,-0.24206 -3.79628,-0.5472 -3.79628,-1.18261 0,-0.20433 -0.15721,-0.37151 -0.34936,-0.37151 -0.19214,0 -0.49142,-0.1712 -0.66505,-0.38043 -0.17365,-0.20924 -0.65207,-0.38044 -1.06317,-0.38044 -0.98782,0 -2.54773,-1.107 -4.2625,-3.02491 -2.28929,-2.5605 -4.07551,-4.36106 -6.05947,-6.10811 -1.55886,-1.37272 -1.8457,-1.74345 -1.70123,-2.1987 0.12389,-0.3904 0.45647,-0.59534 1.15862,-0.71398 1.20451,-0.20352 1.7483,0.0593 3.48027,1.68203 1.20307,1.12719 2.361,1.60763 2.361,0.9796 0,-0.1395 -0.0982,-0.25363 -0.21827,-0.25363 -0.12005,0 -0.59243,-0.71331 -1.04974,-1.58514 -0.45732,-0.87184 -1.40412,-2.253 -2.10399,-3.06926 l -1.27251,-1.48411 -0.11708,-2.57387 c -0.0767,-1.68651 -0.30618,-3.14222 -0.66558,-4.22242 -0.78489,-2.35905 -0.84817,-2.42653 -1.55751,-1.66108 -1.14523,1.23583 -2.31392,0.62162 -2.02878,-1.06624 0.14346,-0.84921 0.0519,-1.11604 -0.73802,-2.15064 -0.49599,-0.64963 -1.01344,-1.47479 -1.14988,-1.83369 l -0.24807,-0.65253 -0.51968,0.51972 c -0.28582,0.28585 -0.86344,0.58848 -1.28358,0.67251 -0.51629,0.10327 -0.89419,0.40899 -1.16585,0.94317 -0.22107,0.4347 -0.88192,1.36102 -1.46855,2.05848 -0.58663,0.69747 -1.1982,1.65194 -1.35905,2.12106 -0.16084,0.46911 -0.71902,1.43922 -1.24037,2.1558 -0.82717,1.13691 -0.95234,1.4967 -0.98268,2.8246 -0.0191,0.83696 -0.12374,2.23899 -0.23251,3.11562 -0.17478,1.40873 -0.1381,1.65914 0.31581,2.1558 0.71592,0.78336 1.33369,2.07297 1.33369,2.78412 0,0.56326 -0.81937,1.7136 -1.21449,1.70509 -0.65717,-0.0141 -1.31521,-1.24455 -1.32926,-2.48546 -0.007,-0.585 -0.0441,-0.61841 -0.2662,-0.23711 -0.30058,0.51611 -1.07678,0.58494 -1.43011,0.12681 -1.00763,-1.30646 -2.10002,-6.63093 -2.10002,-10.23576 0,-2.08386 -0.074,-2.63564 -0.35331,-2.63564 -0.23387,0 -0.44604,-0.52655 -0.62766,-1.55766 -0.15089,-0.85672 -0.32366,-1.60698 -0.38394,-1.66726 -0.0603,-0.0603 -0.44275,0.0627 -0.84996,0.27332 -0.59404,0.30721 -0.80007,0.64963 -1.04236,1.73236 -0.16609,0.74221 -0.28878,1.86229 -0.27266,2.48907 0.0161,0.62678 -0.33397,2.68036 -0.778,4.56352 -0.73833,3.13138 -0.80525,3.76602 -0.78319,7.42793 0.0399,6.62172 1.28849,12.95242 3.81283,19.3317 7.94208,20.07055 26.26736,33.9163 47.8144,36.12637 3.14601,0.32269 10.33251,0.1233 13.69455,-0.37995 z m 18.37922,-14.07703 c -0.67617,-1.26354 0.24565,-2.2585 2.09923,-2.26579 1.08634,-0.004 1.24663,0.45389 0.53351,1.52498 -0.89893,1.35016 -2.12241,1.69443 -2.63274,0.74081 z m -27.21442,-0.65102 c -0.58155,-0.31518 -0.69004,-0.50916 -0.56452,-1.0093 0.11648,-0.46414 -0.1,-0.99516 -0.86451,-2.12111 -0.56094,-0.82609 -1.25553,-1.66703 -1.54353,-1.86877 -0.94981,-0.66533 -1.99919,-2.35863 -2.24367,-3.6204 -0.46162,-2.38242 -0.50642,-3.14751 -0.19848,-3.38902 0.16597,-0.13015 0.77326,-0.64289 1.34953,-1.13943 0.57629,-0.49653 2.02632,-1.36138 3.22231,-1.92189 1.19599,-0.5605 2.34084,-1.18542 2.5441,-1.38871 0.20328,-0.20329 0.61058,-1.09385 0.90512,-1.97902 0.37053,-1.11353 0.76628,-1.78002 1.28441,-2.16312 0.41187,-0.30453 1.1673,-1.20788 1.67872,-2.00743 0.51142,-0.79954 1.11307,-1.59327 1.33698,-1.76382 0.55536,-0.42301 1.82258,-0.39041 2.42102,0.0623 0.73124,0.55312 1.12704,0.45495 1.3107,-0.3251 0.0903,-0.38361 0.39099,-1.07469 0.66816,-1.53574 0.46719,-0.77708 0.47305,-0.86088 0.0804,-1.14799 -0.52855,-0.38652 -0.273,-1.18403 0.37941,-1.18403 0.2571,0 0.56586,0.17583 0.68611,0.39073 0.31581,0.56438 1.13404,0.19619 0.93784,-0.42201 -0.22363,-0.70466 0.40709,-0.83173 2.28023,-0.45938 1.31413,0.26123 1.84261,0.26277 2.69335,0.008 1.34842,-0.40403 1.7422,-0.10937 1.32633,0.99248 -0.16717,0.44292 -0.18965,0.81543 -0.0543,0.89911 0.3742,0.23128 0.26445,0.87381 -0.14924,0.87381 -0.20923,0 -0.38041,0.17719 -0.38041,0.39376 0,0.45593 2.77816,1.83657 4.14048,2.05766 0.87863,0.14259 0.90149,0.12422 1.19767,-0.96281 0.16607,-0.60949 0.37385,-2.47774 0.46174,-4.15166 0.1464,-2.78852 0.20227,-3.04936 0.66698,-3.11366 0.51713,-0.0715 1.63882,1.41405 2.01903,2.67407 0.0954,0.3162 0.61302,0.79916 1.15022,1.07325 0.87845,0.44819 1.00896,0.64556 1.2969,1.96133 0.33716,1.54073 0.36523,1.57528 3.62955,4.46884 0.76348,0.67677 1.81861,1.85554 2.34472,2.6195 0.84623,1.22879 0.97703,1.6272 1.13402,3.45408 0.16006,1.86262 0.11489,2.21498 -0.46077,3.59428 -0.35103,0.84107 -1.0623,2.09987 -1.58061,2.79733 -0.51831,0.69747 -1.29007,2.00997 -1.71503,2.91667 -1.23152,2.62762 -2.47913,3.70549 -4.69735,4.05829 -0.74,0.11769 -1.82485,0.33627 -2.41077,0.48574 -1.2881,0.32859 -2.1566,0.0576 -2.75814,-0.86053 -0.35967,-0.54896 -0.55552,-0.6265 -1.25224,-0.49579 -0.92528,0.1736 -1.32934,-0.17658 -0.75438,-0.65379 0.20769,-0.17238 0.37761,-0.49053 0.37761,-0.70701 0,-0.31023 -0.12431,-0.27679 -0.58695,0.15787 -0.75699,0.71122 -1.08114,0.69469 -2.249,-0.1147 -0.52864,-0.36639 -1.49055,-0.76506 -2.13755,-0.88595 -1.14491,-0.21391 -1.35839,-0.13846 -7.98493,2.82196 -3.74471,1.67296 -7.12556,3.03718 -7.51299,3.03159 -0.38743,-0.006 -1.02839,-0.18573 -1.42434,-0.40032 z m 46.10332,-24.55992 c -0.72787,-0.72792 -0.78545,-1.10621 -0.20245,-1.32994 0.28168,-0.1081 0.66001,0.10741 1.1486,0.65429 1.13576,1.27124 0.26859,1.8905 -0.94615,0.67565 z m -43.31231,-3.3509 c -0.4244,-0.42443 -0.074,-1.13932 1.03554,-2.11299 0.66254,-0.58138 1.26682,-1.30439 1.34285,-1.6067 0.1649,-0.65567 1.16794,-0.78286 1.06189,-0.13466 -0.0373,0.22824 0.10531,0.48145 0.317,0.56269 0.72644,0.27879 0.38258,0.88268 -1.23608,2.17079 -1.54527,1.22971 -2.14553,1.49657 -2.5212,1.12087 z m -1.00752,-2.02209 c -0.23667,-0.2367 0.0493,-0.59869 0.47301,-0.59869 0.20099,0 0.36544,0.1712 0.36544,0.38044 0,0.38201 -0.53536,0.52137 -0.83845,0.21825 z m -5.74727,-3.359 c -0.14586,-0.54173 -0.4418,-1.13152 -0.65763,-1.31067 -0.73621,-0.61105 -0.88018,-1.17535 -0.6231,-2.44235 0.13639,-0.6722 0.31428,-1.76377 0.39533,-2.4257 0.0924,-0.75478 0.38642,-1.48764 0.78854,-1.96558 0.56826,-0.67539 0.79844,-0.76207 2.02357,-0.76207 0.8819,0 1.74232,-0.18365 2.37658,-0.50725 1.32516,-0.6761 1.52162,-0.64335 1.52162,0.25362 0,1.17311 -0.77704,1.77537 -2.29057,1.77537 -1.26661,0 -3.03866,0.54844 -3.03122,0.93814 0.002,0.11174 0.10385,0.361 0.22601,0.55391 0.18617,0.29397 0.31782,0.28371 0.81336,-0.0634 0.32517,-0.22778 0.79563,-0.41415 1.04544,-0.41415 0.24982,0 0.68787,-0.14266 0.97344,-0.31703 0.44275,-0.27035 0.57403,-0.24306 0.89149,0.18532 0.50726,0.68445 0.34315,1.27163 -0.35766,1.27965 -0.31868,0.004 -0.67371,0.15921 -0.78895,0.3457 -0.25662,0.41525 0.67654,1.97169 1.31404,2.19172 0.32147,0.11096 0.4438,0.42811 0.4438,1.15058 l 0,0.9974 -1.06146,0 c -0.70956,0 -1.23902,-0.16681 -1.59702,-0.50316 l -0.53555,-0.50317 0.10355,0.8871 c 0.12155,1.04121 -0.28606,1.64098 -1.11523,1.64098 -0.4745,0 -0.64625,-0.19709 -0.85838,-0.98495 z m 58.11096,0.56414 c 0.10688,-0.55504 0.84377,-0.63356 0.84377,-0.0899 0,0.20733 -0.21007,0.41743 -0.46683,0.46688 -0.33891,0.0653 -0.44221,-0.038 -0.37694,-0.37696 z m -42.60338,-0.40088 c 0.12026,-0.84298 0.96866,-0.91707 0.96866,-0.0846 0,0.49088 -0.13009,0.65265 -0.52485,0.65265 -0.39863,0 -0.50536,-0.13661 -0.44381,-0.56806 z m -25.98012,-0.11926 c -0.96879,-0.10615 -1.32521,-0.46306 -3.67378,-3.67886 -0.70834,-0.96988 -0.73139,-2.06724 -0.0576,-2.74109 0.41081,-0.41084 0.61442,-0.45879 1.02195,-0.24067 0.44452,0.23792 0.55423,0.16392 0.86704,-0.58478 0.19965,-0.47787 0.81235,-1.15779 1.38465,-1.53655 0.58736,-0.38872 1.18489,-1.05838 1.39664,-1.56522 0.20355,-0.4872 0.52786,-0.88582 0.72069,-0.88582 0.19283,0 0.78514,-0.7928 1.31626,-1.76178 0.5311,-0.96897 1.11811,-1.82028 1.30446,-1.89179 0.2577,-0.0989 3.33807,1.11497 3.86451,1.52287 0.0492,0.0381 -0.20755,0.69727 -0.5706,1.46475 -0.36305,0.76748 -0.66009,1.58342 -0.66009,1.8132 0,0.22978 0.39943,0.77143 0.88761,1.20367 0.95289,0.84369 1.13176,1.54521 0.48614,1.90655 -0.53741,0.30078 -1.53987,3.42017 -1.60465,4.99329 -0.0604,1.46688 -0.0187,1.40361 -1.19275,1.80728 -0.65106,0.22384 -1.11735,0.23849 -1.65249,0.0519 -0.41004,-0.14295 -0.99832,-0.19951 -1.30732,-0.12569 -1.33648,0.3193 -1.62641,0.34779 -2.53067,0.24872 z m 37.62219,-0.34807 c -0.77851,-0.47595 -0.97682,-0.49797 -1.97269,-0.21912 -0.60895,0.17051 -1.18359,0.2336 -1.27697,0.14021 -0.0934,-0.0934 -0.046,-0.63353 0.10525,-1.20031 0.25821,-0.96749 0.22866,-1.08332 -0.48322,-1.89418 -0.60701,-0.69141 -0.94617,-0.86368 -1.70037,-0.86368 -0.51816,0 -1.52968,-0.1745 -2.24783,-0.38779 -1.05653,-0.31378 -1.40204,-0.32762 -1.8105,-0.0725 -0.43162,0.26958 -0.59826,0.22747 -1.14955,-0.29048 -0.35461,-0.33317 -0.64474,-0.74393 -0.64474,-0.91281 0,-0.3985 -1.00864,-1.05517 -1.79123,-1.16616 -0.36741,-0.0521 -0.65109,-0.28752 -0.7084,-0.58785 -0.0526,-0.2755 -0.27088,-0.62911 -0.48514,-0.78579 -0.21425,-0.15669 -0.30833,-0.41633 -0.20904,-0.57698 0.26088,-0.42217 0.91138,-0.35912 0.91138,0.0883 0,0.5035 0.17357,0.48022 0.94522,-0.12681 1.24446,-0.97898 2.98994,-0.5502 4.06061,0.99752 0.38513,0.55672 0.80333,1.01655 0.92934,1.02185 0.126,0.005 0.84246,-0.57052 1.59213,-1.27959 1.54683,-1.46305 0.91758,-1.41674 6.29406,-0.46321 3.98786,0.70726 3.89097,0.67477 4.88102,1.63638 0.49657,0.4823 1.14783,0.87691 1.44724,0.87691 0.76106,0 1.15303,0.47453 1.15303,1.3959 0,0.93465 1.35982,2.40846 2.22218,2.40846 0.58696,0 1.07466,0.66819 1.07466,1.47239 0,0.39627 -0.23891,0.52294 -1.23569,0.65518 -1.53002,0.20298 -1.91301,0.0673 -3.2601,-1.15485 -0.58968,-0.535 -1.19449,-0.97272 -1.344,-0.97272 -0.62287,0 -1.7683,0.80553 -1.7683,1.24357 0,0.56638 -0.41583,0.92684 -1.26802,1.0992 -0.3487,0.0705 -0.80518,0.2002 -1.0144,0.28816 -0.20923,0.088 -0.76989,-0.0782 -1.24593,-0.36922 z m -8.29119,-1.60656 c -0.21655,-0.56438 0.0628,-1.1624 0.5431,-1.1624 0.29015,0 0.38242,0.19248 0.32495,0.6779 -0.0919,0.77639 -0.63891,1.08169 -0.86805,0.4845 z m -10.58206,-1.58511 c -0.32838,-0.32841 -0.16259,-0.83102 0.36772,-1.11487 0.42419,-0.22703 0.61767,-0.20643 0.9223,0.0982 0.21202,0.21204 0.31641,0.56558 0.23197,0.78563 -0.1523,0.39693 -1.19746,0.55557 -1.52199,0.23102 z m 2.45112,-0.99189 c -0.42262,-1.10144 2.33322,-1.83658 3.46104,-0.92326 0.53488,0.43315 0.57482,0.56217 0.28297,0.91386 -0.48065,0.5792 -3.52244,0.58684 -3.74401,0.009 z m 33.3069,-0.27623 c -0.093,-0.093 -0.16906,-0.3408 -0.16906,-0.55068 0,-0.20988 -0.19132,-0.59301 -0.42514,-0.8514 -0.47657,-0.52666 -0.17207,-1.08101 0.46045,-0.83827 0.43026,0.16512 1.27402,1.88376 1.07942,2.19866 -0.15632,0.25296 -0.71001,0.27737 -0.94567,0.0417 z m -38.37404,-0.47182 c -0.0935,-0.24364 -0.012,-0.52026 0.19097,-0.64869 0.50253,-0.31788 0.86117,-0.14315 0.86117,0.41958 0,0.61263 -0.83519,0.7945 -1.05214,0.22911 z m 29.72739,-0.77214 c -0.21919,-0.2192 -0.39852,-0.49806 -0.39852,-0.61968 0,-0.35778 1.0813,-1.01076 1.67379,-1.01076 1.00103,0 1.73723,-1.66161 1.00534,-2.26908 -0.67748,-0.56231 -0.49957,-1.10697 0.30071,-0.92057 0.64454,0.15013 2.09222,1.51653 2.09222,1.97477 0,0.36288 -1.82333,2.74453 -2.29399,2.99644 -0.70012,0.37472 -1.93198,0.29649 -2.37955,-0.15112 z m -25.89928,-0.38442 c -0.0937,-0.15165 -0.0533,-0.39279 0.0897,-0.53587 0.31994,-0.31998 0.81152,-0.0497 0.81152,0.44613 0,0.427 -0.65269,0.492 -0.90127,0.0897 z m 3.10606,-0.14009 c -0.23668,-0.23669 0.0493,-0.59868 0.47301,-0.59868 0.20099,0 0.36543,0.1712 0.36543,0.38044 0,0.38201 -0.53534,0.52137 -0.83844,0.21824 z m -3.28626,-1.00391 c -0.0834,-0.0834 -0.0886,-0.3159 -0.0115,-0.51669 0.077,-0.2008 -0.064,-0.59057 -0.31335,-0.86616 -0.43192,-0.47731 -0.62304,-1.84664 -0.30249,-2.16722 0.38984,-0.38987 1.73831,0.23317 2.12556,0.98208 0.39721,0.7682 0.39044,0.80282 -0.25801,1.31993 -0.36626,0.29207 -0.66594,0.72648 -0.66594,0.96535 0,0.43195 -0.28484,0.57217 -0.57426,0.28271 z m -5.84327,-7.48528 c -0.25183,-0.14651 -0.56283,-0.5425 -0.69113,-0.87998 -0.2989,-0.7862 -0.62829,-0.77432 -1.39238,0.0502 -1.26885,1.36923 -1.90672,-0.0844 -0.77129,-1.75764 0.59491,-0.87672 0.59968,-0.91688 0.1268,-1.06698 -0.27026,-0.0858 -0.49137,-0.31071 -0.49137,-0.49985 0,-0.18914 -0.29355,-0.69277 -0.65231,-1.11917 -0.82269,-0.97779 -0.75315,-1.89584 0.15162,-2.00145 0.42993,-0.0502 0.75171,-0.32597 0.97871,-0.83884 0.41516,-0.93799 0.23372,-1.16319 -0.62276,-0.77292 -0.35974,0.16392 -0.75965,0.23279 -0.88868,0.15304 -0.12903,-0.0797 -0.2346,0.19015 -0.2346,0.59978 0,0.40963 -0.17646,0.89124 -0.39212,1.07024 -0.54723,0.45419 -1.76351,-0.45726 -1.76351,-1.32154 0,-0.33946 -0.31146,-0.98802 -0.69214,-1.44125 -0.63552,-0.75665 -0.68086,-0.95265 -0.55433,-2.39601 0.24076,-2.74644 0.22243,-2.71325 1.49839,-2.71325 1.01181,0 1.17321,0.0838 1.5446,0.80205 0.34395,0.66518 0.36504,0.96788 0.12358,1.77386 -0.36658,1.22363 -0.003,2.09909 0.7706,1.85366 0.57981,-0.18405 1.74735,0.48159 1.74735,0.9962 0,0.21672 0.41717,0.38862 1.14108,0.47023 1.53928,0.17351 1.90216,0.53031 1.90216,1.87028 0,0.95034 0.14486,1.25924 1.00727,2.14798 1.19773,1.23427 1.5322,2.46362 0.92319,3.39317 -0.22486,0.34321 -0.40884,0.79521 -0.40884,1.00445 0,0.76162 -1.45973,1.14743 -2.35989,0.62373 z m -0.48496,-3.99061 c 0.0727,-0.21828 -0.0493,-0.30968 -0.33837,-0.25363 -0.2486,0.0482 -0.50313,0.24119 -0.56561,0.42888 -0.0727,0.21828 0.0493,0.30967 0.33837,0.25362 0.24859,-0.0482 0.50312,-0.24119 0.56561,-0.42887 z m -0.84681,-2.89245 c -0.24041,-0.78217 -0.29748,-0.81644 -0.7434,-0.44634 -0.29664,0.24622 -0.32096,0.40619 -0.10187,0.6702 0.48255,0.5815 1.04687,0.43204 0.84527,-0.22386 z m -35.78625,6.25751 c -0.0844,-0.22005 0.0145,-0.56817 0.21995,-0.7736 0.3225,-0.32252 0.41435,-0.32423 0.67307,-0.0125 0.36215,0.4364 0.12305,1.18618 -0.37826,1.18618 -0.19868,0 -0.43031,-0.18005 -0.51476,-0.4001 z m 28.06577,-1.5093 c 0,-0.44063 1.60821,-3.21222 1.93713,-3.33844 0.40449,-0.15523 0.84163,0.29731 0.84862,0.8785 0.005,0.4479 -2.01135,2.59398 -2.43764,2.59398 -0.19146,0 -0.34811,-0.0603 -0.34811,-0.13404 z m 0.70052,-16.37007 c -0.24238,-0.14122 -0.55883,-0.47754 -0.70323,-0.74736 -0.50629,-0.94609 1.00157,-3.29331 1.89529,-2.95033 0.73718,0.28291 0.30844,3.98244 -0.45917,3.96218 -0.1607,-0.004 -0.49051,-0.12326 -0.73289,-0.26449 z m 18.7246,-23.78242 c -0.0878,-0.14201 -0.036,-0.33458 0.11505,-0.42793 0.38991,-0.241 0.64148,0.0891 0.31598,0.41463 -0.18213,0.18215 -0.32398,0.18653 -0.43103,0.0133 z m -41.77675,5.41329 c 0.88406,-0.60818 1.57574,-0.88769 2.19668,-0.88769 1.04557,0 2.02779,-0.47005 2.85759,-1.36752 0.64026,-0.69249 1.36671,-0.89371 2.33479,-0.64674 1.12168,0.28616 5.3311,-0.48344 7.06595,-1.29185 0.88742,-0.41353 2.02864,-0.75342 2.53604,-0.75533 1.35793,-0.005 2.06375,-0.25495 2.06375,-0.73055 0,-0.23168 0.17535,-0.67162 0.38969,-0.97764 0.35476,-0.50654 0.86395,-0.70919 2.98535,-1.18813 0.94484,-0.21331 2.26158,-2.83041 1.96026,-3.89612 -0.10667,-0.3773 -0.32581,-0.65674 -0.48699,-0.62099 -0.16116,0.0358 -1.1075,0.18052 -2.10297,0.32171 -2.37673,0.33711 -5.13977,1.05252 -8.22732,2.13024 -3.03489,1.05933 -4.02361,1.50295 -5.12067,2.29759 -0.46141,0.33421 -1.37439,0.80763 -2.02882,1.05203 -0.65444,0.24441 -1.5868,0.7649 -2.07189,1.15666 -0.4851,0.39176 -1.09174,0.71229 -1.34809,0.71229 -0.67018,0 -1.25844,0.34699 -4.18603,2.46917 -1.43662,1.04141 -2.56883,2.02465 -2.51599,2.18498 0.1288,0.39089 1.19426,0.9172 1.86617,0.92183 0.29817,0.002 1.12281,-0.39572 1.8325,-0.88394 z"
       style="fill:#000000;fill-opacity:1" />
  </g>
</svg>
