<?xml version="1.0" encoding="UTF-8" standalone="no"?>
<!-- Created with Inkscape (http://www.inkscape.org/) -->

<svg
   xmlns:dc="http://purl.org/dc/elements/1.1/"
   xmlns:cc="http://creativecommons.org/ns#"
   xmlns:rdf="http://www.w3.org/1999/02/22-rdf-syntax-ns#"
   xmlns:svg="http://www.w3.org/2000/svg"
   xmlns="http://www.w3.org/2000/svg"
   xmlns:sodipodi="http://sodipodi.sourceforge.net/DTD/sodipodi-0.dtd"
   xmlns:inkscape="http://www.inkscape.org/namespaces/inkscape"
   version="1.1"
   id="svg2"
   width="320"
   height="320"
   viewBox="0 0 320 320"
   sodipodi:docname="male.svg"
   inkscape:version="0.92.3 (unknown)">
  <metadata
     id="metadata8">
    <rdf:RDF>
      <cc:Work
         rdf:about="">
        <dc:format>image/svg+xml</dc:format>
        <dc:type
           rdf:resource="http://purl.org/dc/dcmitype/StillImage" />
        <dc:title></dc:title>
      </cc:Work>
    </rdf:RDF>
  </metadata>
  <defs
     id="defs6" />
  <sodipodi:namedview
     pagecolor="#ffffff"
     bordercolor="#666666"
     borderopacity="1"
     objecttolerance="10"
     gridtolerance="10"
     guidetolerance="10"
     inkscape:pageopacity="0"
     inkscape:pageshadow="2"
     inkscape:window-width="1323"
     inkscape:window-height="747"
     id="namedview4"
     showgrid="false"
     fit-margin-top="0"
     fit-margin-left="0"
     fit-margin-right="0"
     fit-margin-bottom="0"
     inkscape:zoom="0.8711238"
     inkscape:cx="341.50629"
     inkscape:cy="16.468795"
     inkscape:window-x="43"
     inkscape:window-y="21"
     inkscape:window-maximized="1"
     inkscape:current-layer="svg2" />
  <path
     style="opacity:1;vector-effect:none;fill:#f2f2f2;fill-opacity:1;stroke:#000000;stroke-width:0.10000002;stroke-linecap:butt;stroke-linejoin:miter;stroke-miterlimit:4;stroke-dasharray:none;stroke-dashoffset:0;stroke-opacity:1"
     d="m 0.05,0.05000147 h 319.9 V 319.95 H 0.05 Z"
     id="rect819"
     inkscape:connector-curvature="0" />
  <path
     style="fill:#b8b8b8;fill-opacity:1;stroke:none;stroke-width:0.1;stroke-linecap:butt;stroke-linejoin:miter;stroke-miterlimit:4;stroke-dasharray:none;stroke-opacity:1"
     d="m 0,320 h 320 c -1.5565,-8.55187 -2.57011,-17.63259 -6.07316,-23.85093 -2.08406,-3.69949 -2.50709,-5.72923 -3.7543,-8.61284 l -0.11043,-3.86474 c -1.03163,-4.2229 1.15705,-6.12712 -9.27535,-17.22567 -4.46651,-4.75171 -7.08157,-4.48625 -10.32147,-6.15549 -3.12915,-1.61215 -8.67094,-3.67198 -8.67094,-3.67198 -14.89567,-5.46084 -29.56448,-11.94258 -44.72049,-16.23188 -4.49483,-2.76214 -9.08305,-6.06414 -14.90684,-14.13389 -1.74261,-2.41465 -3.52952,-4.56549 -5.73992,-5.30217 -7.86485,-2.62118 -11.92975,-9.61167 -9.93986,-23.84897 1.29914,-9.29501 4.49256,-10.31872 6.62526,-17.99862 0.82777,-2.9808 0.84851,-3.07409 0.886,-4.03135 0.12249,-3.1284 0.97317,-4.45692 2.09538,-6.2378 3.59666,-5.70769 7.36352,-10.68892 8.50241,-13.25051 1.58306,-3.56064 7.24894,-19.02142 5.07936,-26.16977 -0.33981,-1.11959 -1.17784,-2.06118 -2.098,-2.98137 -1.70217,-4.83132 -2.11374,-14.40607 -1.76674,-23.29882 0.42158,-10.803499 -0.81424,-19.515355 -4.7481,-26.611458 -4.07419,-7.34925 -11.1307,-13.933428 -23.74051,-16.783988 -6.21542,-1.405054 -12.68158,-1.704293 -18.21946,-6.956523 -1.46232,-1.386891 -3.20789,-2.571768 -6.62526,-2.981365 -7.76761,-0.931008 -23.00777,-1.636201 -40.30366,9.275361 -2.65151,1.672782 -22.82961,9.454957 -30.80745,42.070393 -3.43204,14.03107 -1.78305,28.70133 -1.43547,43.1746 0.1938,8.06972 2.27551,12.77431 5.30021,15.90063 2.16562,2.23838 2.70244,4.91012 3.64388,7.3982 1.05732,2.79428 3.17443,4.02747 4.41684,5.41062 2.59964,2.89411 3.72579,6.60576 4.08558,10.15873 0.77739,7.67688 3.39118,11.28618 5.07936,15.2381 1.86781,4.37239 3.5007,9.06004 1.32506,14.90682 -0.68827,1.84966 -1.95426,3.15588 -4.08558,3.64391 -2.73938,0.62725 -3.0035,-0.9279 -10.15873,5.63147 -6.46286,5.92464 -12.12573,11.84975 -19.21325,14.46514 -15.10426,5.57369 -30.1974,9.94508 -45.38303,12.80884 -10.77388,2.03176 -18.50192,4.16795 -24.7343,6.18356 -1.84865,0.59788 -3.47941,1.44196 -4.41684,3.53348 C 10.49161,271.4215 7.71674,284.56141 5.63147,297.9158 5.10999,301.25551 4.014,302.79896 3.42305,304.87232 1.86147,310.35119 0.97544,315.61974 0,320 Z"
     id="path1294"
     inkscape:connector-curvature="0"
     sodipodi:nodetypes="ccsccssccsssssssscssssssssssssssssssssssc" />
</svg>
