<?xml version="1.0" encoding="UTF-8" standalone="no"?>
<!-- Created with Inkscape (http://www.inkscape.org/) -->

<svg
   xmlns:dc="http://purl.org/dc/elements/1.1/"
   xmlns:cc="http://creativecommons.org/ns#"
   xmlns:rdf="http://www.w3.org/1999/02/22-rdf-syntax-ns#"
   xmlns:svg="http://www.w3.org/2000/svg"
   xmlns="http://www.w3.org/2000/svg"
   xmlns:sodipodi="http://sodipodi.sourceforge.net/DTD/sodipodi-0.dtd"
   xmlns:inkscape="http://www.inkscape.org/namespaces/inkscape"
   width="744.09375"
   height="239.65625"
   id="svg2"
   version="1.1"
   inkscape:version="0.48.4 r9939"
   sodipodi:docname="gbr-3.19.svg">
  <sodipodi:namedview
     id="base"
     pagecolor="#ffffff"
     bordercolor="#666666"
     borderopacity="1.0"
     inkscape:pageopacity="0.0"
     inkscape:pageshadow="2"
     inkscape:zoom="1.2609796"
     inkscape:cx="429.16362"
     inkscape:cy="147.09167"
     inkscape:document-units="px"
     inkscape:current-layer="layer1"
     showgrid="false"
     inkscape:window-width="1325"
     inkscape:window-height="744"
     inkscape:window-x="1401"
     inkscape:window-y="24"
     inkscape:window-maximized="1"
     fit-margin-top="0"
     fit-margin-left="0"
     fit-margin-right="0"
     fit-margin-bottom="0" />
  <defs
     id="defs4">
    <inkscape:path-effect
       effect="envelope"
       id="path-effect4030"
       is_visible="true"
       yy="true"
       xx="true"
       bendpath1="m -63.147141,372.73523 191.015621,0"
       bendpath2="m 127.86848,372.73523 0,189.21875"
       bendpath3="m -63.147141,561.95398 191.015621,0"
       bendpath4="m -63.147141,372.73523 0,189.21875" />
  </defs>
  <metadata
     id="metadata7">
    <rdf:RDF>
      <cc:Work
         rdf:about="">
        <dc:format>image/svg+xml</dc:format>
        <dc:type
           rdf:resource="http://purl.org/dc/dcmitype/StillImage" />
        <dc:title />
      </cc:Work>
    </rdf:RDF>
  </metadata>
  <g
     inkscape:label="Layer 1"
     inkscape:groupmode="layer"
     id="layer1"
     transform="translate(0,-812.71875)">
    <rect
       style="color:#000000;fill:#ffffff;fill-opacity:1;fill-rule:nonzero;stroke:#000000;stroke-width:1;stroke-linecap:butt;stroke-linejoin:miter;stroke-miterlimit:10;stroke-opacity:1;stroke-dasharray:none;stroke-dashoffset:0;marker:none;visibility:visible;display:inline;overflow:visible;enable-background:accumulate"
       id="rect4334"
       width="742.08997"
       height="237.6295"
       x="1.0018921"
       y="813.73212" />
    <g
       id="g3848"
       transform="matrix(0.36470533,0,0,0.36490595,403.88139,765.89789)">
      <path
         inkscape:connector-curvature="0"
         id="path3843"
         d="m -109.0625,163.84375 c 5.66865,0.19992 11.80795,3.71582 18.125,10.46875 6.27338,6.70627 1.23542,-1.94331 115.9375,199.5625 56.68957,99.59085 80.51608,141.42408 96.96875,170.3125 6.82989,11.99227 14.46547,24.97408 16.96875,28.84375 5.95575,9.20667 10.95545,20.15385 12.8125,28.03125 2.20983,9.3738 1.94842,22.07625 -0.59375,29.875 -2.36696,7.26129 -1.18381,6.05266 -71.875,74.84375 -26.79297,26.07281 -34.77647,33.26993 -39.875,35.96875 -4.76844,2.5241 -7.91829,3.46108 -12.5,3.71875 C 12.15843,746.29815 9.66093,743.67103 -16,700.125 -27.26346,681.01117 -66.30216,614.75 -102.75,552.875 -139.19784,491 -181.572,419.08385 -196.90625,393.0625 c -15.33425,-26.02134 -30.2695,-52.11936 -33.21875,-58 -10.19849,-20.33521 -14.2251,-35.36918 -13.4375,-50.375 0.75571,-14.398 -0.60222,-12.89511 54.375,-59 26.42514,-22.16059 52.88351,-44.3625 58.78125,-49.3125 5.89775,-4.95 12.16897,-9.7875 13.9375,-10.75 2.36766,-1.28857 4.82959,-1.87212 7.40625,-1.78125 z"
         style="fill:#ffffff;fill-opacity:1" />
      <path
         id="path3028"
         d="m -113.75,159.53125 c -9.63484,-0.17738 -20.07227,4.42605 -30.96875,13.65625 -4.125,3.49421 -29.1,24.24007 -55.5,46.09375 -26.4,21.85367 -50.09152,41.64029 -52.625,43.96875 -15.07332,13.85357 -18.04793,34.50379 -7.875,54.65625 1.66993,3.30812 23.31833,40.32442 48.125,82.25 35.47262,59.95207 182.26784,309.78923 197.21875,335.65625 4.42641,7.65826 13.44705,16.60361 19.78125,19.625 4.66064,2.22312 6.41626,2.50025 13.375,2.1875 14.00151,-0.62928 15.56751,-1.81029 57,-42.6875 19.8,-19.53463 44.44461,-43.84324 54.78125,-54.03125 10.33663,-10.18802 20.07511,-20.55625 21.65625,-23.03125 8.39492,-13.14079 8.29044,-31.26455 -0.3125,-49.5 -3.3594,-7.12086 -42.60017,-76.12176 -156.375,-275 -66.9364,-117.00475 -76.48889,-133.33441 -82.0625,-140.3125 -4.60573,-5.76633 -12.37656,-10.76658 -19.6875,-12.65625 -2.13051,-0.55068 -4.30783,-0.83407 -6.53125,-0.875 z m 3.71875,4.3125 c 0.31854,-0.01 0.64667,-0.0114 0.96875,0 5.66865,0.19992 11.807954,3.71582 18.125,10.46875 6.27338,6.70627 1.23542,-1.94331 115.9375,199.5625 56.68957,99.59085 80.51608,141.42408 96.96875,170.3125 6.82989,11.99227 14.46547,24.97408 16.96875,28.84375 5.95575,9.20667 10.95545,20.15385 12.8125,28.03125 2.20983,9.3738 1.94842,22.07625 -0.59375,29.875 -2.36696,7.26129 -1.18381,6.05266 -71.875,74.84375 -26.79297,26.07281 -34.77647,33.26993 -39.875,35.96875 -4.76844,2.5241 -7.91829,3.46108 -12.5,3.71875 C 12.15843,746.29815 9.66093,743.67103 -16,700.125 -27.26346,681.01117 -66.30216,614.75 -102.75,552.875 -139.19784,491 -181.572,419.08385 -196.90625,393.0625 c -15.33425,-26.02134 -30.2695,-52.11936 -33.21875,-58 -10.19849,-20.33521 -14.2251,-35.36918 -13.4375,-50.375 0.75571,-14.398 -0.60222,-12.89511 54.375,-59 26.42514,-22.16059 52.88351,-44.3625 58.78125,-49.3125 5.89775,-4.95 12.16897,-9.7875 13.9375,-10.75 2.0717,-1.1275 4.20774,-1.71281 6.4375,-1.78125 z m 35.21875,48.71875 c -1.622216,0.55431 -21.653982,16.33863 -45.5625,35.9375 -24.67977,20.23108 -57.44375,47.12296 -72.84375,59.75 -15.9387,13.06873 -28.00325,23.65987 -27.96875,24.5625 0.0334,0.87211 30.36957,52.6375 67.40625,115.0625 37.03668,62.425 85.34008,143.875 107.34375,181 22.00366,37.125 40.91723,68.78698 42,70.34375 l 1.96875,2.8125 4.0625,-3.8125 c 16.79376,-15.84061 129.6875,-126.75058 129.6875,-127.40625 0,-0.45685 -18.6184,-33.13255 -41.34375,-72.625 C 67.21216,458.69505 24.16799,383.85 -5.71875,331.875 -73.83604,213.41453 -73.73834,213.56033 -74.6875,212.5625 c -0.01353,-0.0142 -0.07267,-0.0179 -0.125,0 z m -2.0625,5.53125 c 1.19124,-0.20841 4.91314,5.38527 13.59375,20.5 6.56593,11.43264 52.14246,90.72108 101.3125,176.1875 89.39967,155.39288 89.40059,155.39604 87.5625,157.6875 -1.01097,1.26031 -29.65688,29.42048 -63.65625,62.59375 -33.99937,33.17326 -62.40735,60.45473 -63.15625,60.625 -1.51158,0.34368 2.78674,7.51508 -121,-201.3125 -46.62136,-78.65 -86.99756,-146.70821 -89.71875,-151.25 -2.72119,-4.54178 -4.77522,-9.02645 -4.59375,-9.96875 0.18147,-0.9423 9.36073,-9.15908 20.40625,-18.25 79.77131,-65.65505 117.83992,-96.5658 119.25,-96.8125 z M -134.15625,224.5 c -0.29686,0.0101 -0.63057,0.0484 -1.03125,0.125 -1.39678,0.26702 -2.53125,0.91336 -2.53125,1.4375 0,1.31002 4.23103,0.57552 4.6875,-0.8125 0.17416,-0.52959 -0.23441,-0.78043 -1.125,-0.75 z m -11.59375,3.78125 c -1.80681,0.16956 -5.38214,3.09104 -17.71875,13.40625 -10.26074,8.57947 -12.5881,11.53691 -10.59375,13.53125 0.36665,0.36667 1.39276,0.65625 2.28125,0.65625 2.08327,0 29.0625,-22.65445 29.0625,-24.40625 0,-0.72944 -0.7145,-1.92123 -1.5625,-2.625 -0.46169,-0.38317 -0.86648,-0.61902 -1.46875,-0.5625 z m -42.8125,31.59375 c -4.16561,0 -7.01392,7.76733 -3.96875,10.8125 1.54692,1.54692 6.04683,1.54692 7.59375,0 2.89037,-2.89037 0.23586,-10.8125 -3.625,-10.8125 z m -0.3125,2.40625 c 1.9385,-0.14535 3.83185,2.30016 2.5625,4.3125 -1.40452,2.22662 -2.74766,2.56484 -4.21875,1.09375 -1.64075,-1.64075 -1.51867,-3.29809 0.34375,-4.84375 0.41577,-0.34506 0.86515,-0.52896 1.3125,-0.5625 z m -44.46875,87.875 c 0.46879,-0.4688 9.56977,13.0227 12.46875,18.46875 0.65873,1.2375 1.05286,2.25 0.84375,2.25 -1.42967,0 -14.18287,-19.84838 -13.3125,-20.71875 z m 17.3125,26.71875 c 0.51725,0 3.13794,3.4875 5.8125,7.75 2.67455,4.2625 5.49655,8.7625 6.28125,10 0.78844,1.2434 0.99647,2.25 0.4375,2.25 -0.55633,0 -3.17914,-3.4875 -5.8125,-7.75 -2.63337,-4.2625 -5.43193,-8.7625 -6.21875,-10 -0.78682,-1.2375 -1.01726,-2.25 -0.5,-2.25 z m 301.75,269.5 c -4.89428,0 -5.76765,0.3614 -9,3.59375 -4.32261,4.32261 -5.83051,9.71466 -4.3125,15.40625 1.26136,4.72929 6.74038,10.24742 10.625,10.71875 14.77701,1.79291 22.5602,-15.71176 11.6875,-26.25 -3.18656,-3.08853 -4.16177,-3.46875 -9,-3.46875 z m 0.03125,2.5625 c 2.43436,-0.0135 4.8596,0.48235 6.3125,1.5 7.08084,4.95962 6.66387,17.38898 -0.71875,21.75 -5.37797,3.17684 -10.85903,1.60143 -14.78125,-4.21875 -1.25401,-1.86082 -2.28125,-4.66367 -2.28125,-6.25 0,-4.07059 2.35505,-9.30049 5.09375,-11.21875 1.476,-1.03384 3.94064,-1.54905 6.375,-1.5625 z"
         style="fill:#000000;fill-opacity:1"
         inkscape:connector-curvature="0" />
    </g>
    <path
       style="font-size:32px;font-style:normal;font-variant:normal;font-weight:bold;font-stretch:normal;line-height:125%;letter-spacing:0px;word-spacing:0px;fill:#000000;fill-opacity:1;stroke:none;font-family:Arial;-inkscape-font-specification:Arial Bold"
       d="M 396.125 108.59375 C 395.68379 108.61353 395.24558 108.82157 394.8125 109.21875 C 394.29814 109.69052 393.99429 110.29273 393.90625 111.03125 C 393.81655 111.76703 394.00004 112.52528 394.4375 113.28125 C 394.80361 113.91393 395.22284 114.32041 395.71875 114.5 C 396.34219 114.71975 396.98245 114.52656 397.65625 113.90625 C 398.0817 113.51458 398.38153 113.05062 398.53125 112.5625 C 398.6817 112.06938 398.68567 111.56092 398.5625 111 L 397.4375 111.71875 C 397.5138 111.99899 397.51865 112.26514 397.46875 112.46875 C 397.41885 112.67237 397.31679 112.82106 397.15625 112.96875 C 396.92026 113.18586 396.64736 113.27061 396.375 113.21875 C 396.10093 113.16405 395.87045 112.976 395.65625 112.625 L 398.21875 110.25 C 397.69967 109.31278 397.15372 108.79682 396.5625 108.65625 C 396.41422 108.62038 396.27207 108.58716 396.125 108.59375 z M 395.71875 109.875 C 395.83411 109.83921 395.96776 109.85046 396.09375 109.875 C 396.34403 109.9212 396.57218 110.12635 396.78125 110.46875 L 395.25 111.875 C 395.05715 111.54801 394.96473 111.20109 395 110.875 C 395.0353 110.54895 395.18211 110.29947 395.40625 110.09375 C 395.51099 109.99762 395.60339 109.91079 395.71875 109.875 z M 393 111.21875 C 392.69481 111.26625 392.45325 111.37867 392.21875 111.59375 C 392.05261 111.74613 391.91928 111.93776 391.84375 112.15625 C 391.77065 112.37255 391.73619 112.69928 391.75 113.15625 L 391.375 112.53125 L 390.4375 113.40625 L 393.0625 117.96875 L 394.09375 117.03125 L 393.28125 115.625 C 392.83177 114.84883 392.55359 114.29514 392.46875 114 C 392.38635 113.70261 392.35922 113.4649 392.40625 113.28125 C 392.45165 113.09475 392.57466 112.94478 392.71875 112.8125 C 392.86771 112.67576 393.0629 112.58983 393.3125 112.5625 L 393 111.21875 z M 389.28125 114.90625 C 389.15372 114.89746 389.02431 114.89725 388.875 114.9375 C 388.57464 115.0152 388.2111 115.29583 387.75 115.71875 C 387.24206 116.18462 386.91577 116.61357 386.78125 117.0625 C 386.64673 117.51151 386.66143 118.02352 386.8125 118.5625 L 387.84375 117.875 C 387.78435 117.6041 387.78945 117.39656 387.84375 117.21875 C 387.89685 117.03811 388.00356 116.85634 388.1875 116.6875 C 388.45968 116.43769 388.68747 116.33335 388.84375 116.34375 C 388.99834 116.35175 389.14652 116.45518 389.28125 116.6875 L 389.34375 116.8125 C 389.21077 117.07529 388.9526 117.48153 388.53125 118.03125 C 388.21984 118.44047 387.97183 118.77767 387.84375 119.0625 C 387.71644 119.34224 387.67476 119.63683 387.6875 119.9375 C 387.6985 120.2353 387.78759 120.5231 387.9375 120.78125 C 388.16397 121.1713 388.46512 121.39443 388.84375 121.4375 C 389.22472 121.4783 389.59828 121.30733 390 120.9375 C 390.22775 120.72785 390.41994 120.47257 390.5625 120.1875 C 390.70503 119.90248 390.81512 119.58146 390.875 119.21875 C 390.8956 119.23485 390.94135 119.25664 391 119.3125 C 391.13053 119.43405 391.20783 119.53832 391.28125 119.59375 L 392.3125 118.65625 C 392.0959 118.52183 391.92506 118.37631 391.78125 118.21875 C 391.63821 118.05607 391.45127 117.77615 391.21875 117.375 L 390.40625 115.9375 C 390.10211 115.4128 389.86236 115.10963 389.65625 115 C 389.55358 114.94262 389.40878 114.91504 389.28125 114.90625 z M 389.8125 117.59375 L 389.9375 117.84375 C 390.10541 118.1333 390.21709 118.34081 390.25 118.46875 C 390.3023 118.66242 390.3117 118.86999 390.25 119.09375 C 390.1642 119.39246 389.99863 119.64127 389.8125 119.8125 C 389.64593 119.96575 389.49184 120.02409 389.3125 120 C 389.13314 119.9759 388.97318 119.85668 388.875 119.6875 C 388.7752 119.51546 388.77383 119.32953 388.84375 119.09375 C 388.89205 118.94381 389.03612 118.71022 389.28125 118.375 C 389.52631 118.03987 389.71018 117.7669 389.8125 117.59375 z M 385.71875 117.71875 L 384.71875 118.625 L 385.6875 122.34375 L 383.3125 119.9375 L 382.3125 120.84375 L 383.375 124.46875 L 380.875 122.15625 L 379.875 123.0625 L 383.78125 126.5 L 384.78125 125.59375 L 383.75 122.03125 L 386.125 124.34375 L 387.125 123.4375 L 385.71875 117.71875 z M 422.34375 117.75 C 422.24083 117.75535 422.11843 117.77365 422 117.8125 C 421.76144 117.8873 421.53401 118.01211 421.3125 118.21875 C 420.80978 118.68776 420.53861 119.33755 420.5 120.15625 L 420.125 119.5 L 419.1875 120.375 L 421.78125 124.875 L 422.78125 123.9375 L 421.59375 121.875 C 421.30441 121.37154 421.15101 121.01472 421.09375 120.78125 C 421.03885 120.54557 421.0518 120.30472 421.125 120.0625 C 421.1982 119.8203 421.29486 119.63109 421.46875 119.46875 C 421.6045 119.34202 421.76551 119.25972 421.90625 119.25 C 422.04935 119.2381 422.18681 119.30202 422.3125 119.40625 C 422.43654 119.50766 422.62696 119.79494 422.90625 120.28125 L 424.21875 122.5625 L 425.21875 121.625 L 423.625 118.84375 C 423.42541 118.49603 423.23892 118.24485 423.09375 118.09375 C 422.95095 117.94042 422.80459 117.83952 422.625 117.78125 C 422.53638 117.751 422.44667 117.74465 422.34375 117.75 z M 418.0625 121.875 C 417.9379 121.86667 417.80205 121.89724 417.65625 121.9375 C 417.36295 122.0152 416.981 122.26793 416.53125 122.6875 C 416.03583 123.14969 415.72439 123.58688 415.59375 124.03125 C 415.46309 124.47571 415.47653 124.96737 415.625 125.5 L 416.65625 124.84375 C 416.59775 124.576 416.60305 124.3635 416.65625 124.1875 C 416.70775 124.00869 416.78934 123.82376 416.96875 123.65625 C 417.23422 123.40842 417.47231 123.30264 417.625 123.3125 C 417.77604 123.3195 417.89924 123.42687 418.03125 123.65625 L 418.09375 123.78125 C 417.96428 124.04154 417.69195 124.45514 417.28125 125 C 416.97771 125.4056 416.7809 125.74919 416.65625 126.03125 C 416.53235 126.30827 416.48706 126.57768 416.5 126.875 C 416.5113 127.1695 416.5719 127.43261 416.71875 127.6875 C 416.94064 128.07262 417.25503 128.30223 417.625 128.34375 C 417.99725 128.38305 418.35817 128.21064 418.75 127.84375 C 418.97213 127.63577 419.1737 127.37609 419.3125 127.09375 C 419.45126 126.81146 419.53587 126.51514 419.59375 126.15625 C 419.61395 126.17225 419.6613 126.19491 419.71875 126.25 C 419.84647 126.36984 419.92818 126.47662 420 126.53125 L 421 125.59375 C 420.78818 125.46141 420.60951 125.31167 420.46875 125.15625 C 420.32874 124.99575 420.16534 124.7086 419.9375 124.3125 L 419.125 122.90625 C 418.82699 122.38818 418.57653 122.0766 418.375 121.96875 C 418.27459 121.91229 418.1871 121.88333 418.0625 121.875 z M 378 122.3125 L 377.375 123.96875 L 377.90625 124.875 L 377.4375 125.3125 L 378 126.28125 L 378.46875 125.84375 L 379.625 127.84375 C 379.8747 128.27217 380.05191 128.53585 380.15625 128.65625 C 380.29903 128.82959 380.42465 128.94583 380.5625 129 C 380.70114 129.049 380.86831 129.064 381.0625 129 C 381.25497 128.9332 381.46865 128.79769 381.65625 128.625 C 381.96225 128.34328 382.20351 128.03066 382.375 127.6875 L 381.71875 126.84375 C 381.5813 127.08932 381.47127 127.25519 381.375 127.34375 C 381.3059 127.40735 381.22907 127.43234 381.15625 127.4375 C 381.08595 127.4405 381.04997 127.4217 381 127.375 C 380.9508 127.3231 380.81144 127.1237 380.59375 126.75 L 379.5 124.90625 L 380.21875 124.25 L 379.65625 123.28125 L 378.9375 123.9375 L 378 122.3125 z M 376.53125 123.53125 C 376.18572 123.68868 375.86014 123.91489 375.5625 124.1875 C 375.27222 124.45338 375.058 124.73515 374.9375 125.03125 C 374.81779 125.32224 374.80477 125.58759 374.84375 125.84375 C 374.88525 126.09766 374.99347 126.42642 375.21875 126.8125 L 375.4375 127.15625 L 374.84375 127.6875 L 375.40625 128.625 L 376 128.09375 L 378.09375 131.75 L 379.15625 130.78125 L 377.03125 127.125 L 377.8125 126.4375 L 377.25 125.46875 L 376.46875 126.1875 L 376.28125 125.875 C 376.14519 125.6417 376.10757 125.45227 376.125 125.3125 C 376.1432 125.1676 376.22377 125.01362 376.375 124.875 C 376.52869 124.73413 376.68211 124.60612 376.875 124.5 L 376.53125 123.53125 z M 418.5625 124.5625 L 418.6875 124.78125 C 418.85202 125.06714 418.93638 125.2798 418.96875 125.40625 C 419.02005 125.59764 419.02885 125.80977 418.96875 126.03125 C 418.88545 126.32692 418.74406 126.54886 418.5625 126.71875 C 418.40004 126.87077 418.23774 126.92958 418.0625 126.90625 C 417.88723 126.88295 417.75244 126.79204 417.65625 126.625 C 417.55845 126.45512 417.55705 126.26464 417.625 126.03125 C 417.6719 125.88283 417.79234 125.64472 418.03125 125.3125 C 418.27009 124.98036 418.46283 124.73404 418.5625 124.5625 z M 414.40625 124.8125 L 413.15625 125.96875 L 412.90625 128.6875 L 410.96875 125.375 L 409.96875 126.3125 L 413.5625 132.5625 L 414.59375 131.59375 L 413.75 130.15625 L 413.875 129.125 L 416 130.28125 L 417.09375 129.25 L 414.0625 127.6875 L 414.40625 124.8125 z M 391.9375 128.875 L 390.6875 130.03125 L 390.40625 132.78125 L 388.46875 129.4375 L 387.4375 130.375 L 391.09375 136.6875 L 392.125 135.71875 L 391.28125 134.25 L 391.40625 133.21875 L 393.5625 134.375 L 394.6875 133.34375 L 391.59375 131.78125 L 391.9375 128.875 z M 373.75 129.09375 C 373.27547 129.14007 372.82465 129.36886 372.375 129.78125 C 371.98676 130.13736 371.69993 130.5734 371.5 131.0625 C 371.30252 131.54943 371.23221 132.05819 371.28125 132.59375 C 371.33025 133.12932 371.45143 133.59639 371.6875 134 C 371.99603 134.52749 372.36257 134.88286 372.75 135.09375 C 373.13562 135.30169 373.52945 135.36196 373.96875 135.25 C 374.41037 135.1358 374.82492 134.92753 375.1875 134.59375 C 375.77332 134.05444 376.13103 133.37103 376.25 132.5625 C 376.36973 131.74897 376.21749 131.0063 375.8125 130.3125 C 375.41075 129.6243 374.89488 129.22342 374.25 129.125 C 374.08828 129.09967 373.90818 129.07831 373.75 129.09375 z M 409.65625 129.5625 C 409.55217 129.56839 409.43231 129.58535 409.3125 129.625 C 409.07119 129.7015 408.84917 129.85338 408.625 130.0625 C 408.11623 130.53715 407.82093 131.20687 407.78125 132.03125 L 407.40625 131.34375 L 406.46875 132.21875 L 409.09375 136.75 L 410.09375 135.8125 L 408.90625 133.75 C 408.61403 133.2446 408.43273 132.891 408.375 132.65625 C 408.3197 132.41926 408.33205 132.15046 408.40625 131.90625 C 408.48045 131.66207 408.60527 131.4768 408.78125 131.3125 C 408.91864 131.18424 409.07641 131.10423 409.21875 131.09375 C 409.36348 131.08105 409.49798 131.14569 409.625 131.25 C 409.75038 131.35147 409.93667 131.63681 410.21875 132.125 L 411.5625 134.4375 L 412.5625 133.46875 L 410.96875 130.6875 C 410.76717 130.33844 410.58419 130.05764 410.4375 129.90625 C 410.29319 129.7526 410.11907 129.65152 409.9375 129.59375 C 409.8479 129.56375 409.76033 129.55661 409.65625 129.5625 z M 373.625 130.46875 C 373.7031 130.46678 373.76242 130.48171 373.84375 130.5 C 374.17149 130.5709 374.48757 130.83192 374.75 131.28125 C 375.01912 131.74203 375.10743 132.18066 375.0625 132.59375 C 375.02 133.0046 374.86697 133.34243 374.59375 133.59375 C 374.32047 133.84515 374.04659 133.94548 373.71875 133.875 C 373.39083 133.8045 373.07865 133.51778 372.8125 133.0625 C 372.54631 132.60715 372.42365 132.19477 372.46875 131.78125 C 372.51385 131.36779 372.69511 131.03241 372.96875 130.78125 C 373.17392 130.59293 373.39071 130.47466 373.625 130.46875 z M 426.0625 131.03125 C 425.63156 131.05484 425.20358 131.25886 424.78125 131.65625 C 424.27968 132.12815 423.99094 132.73659 423.90625 133.46875 C 423.81995 134.19821 423.97761 134.94285 424.40625 135.6875 C 424.76497 136.3107 425.2028 136.70167 425.6875 136.875 C 426.29687 137.08694 426.90544 136.90174 427.5625 136.28125 C 427.97741 135.88949 428.26087 135.42226 428.40625 134.9375 C 428.55235 134.44778 428.55881 133.92937 428.4375 133.375 L 427.34375 134.125 C 427.41875 134.40183 427.4234 134.64166 427.375 134.84375 C 427.3266 135.04586 427.25031 135.22728 427.09375 135.375 C 426.86362 135.59215 426.60988 135.67388 426.34375 135.625 C 426.07594 135.5733 425.83483 135.37691 425.625 135.03125 L 428.125 132.65625 C 427.61631 131.73284 427.07774 131.1963 426.5 131.0625 C 426.35509 131.02833 426.20615 131.02339 426.0625 131.03125 z M 368.21875 131.71875 C 367.66696 131.68755 367.03403 131.99275 366.34375 132.625 C 365.92087 133.01235 365.62033 133.42112 365.40625 133.84375 C 365.19462 134.26418 365.08804 134.6636 365.09375 135.09375 C 365.10075 135.51875 365.18527 135.89513 365.375 136.21875 C 365.66971 136.72145 366.08235 136.99194 366.625 137.03125 C 367.01067 137.05905 367.55547 136.90726 368.25 136.53125 C 368.78981 136.23954 369.15229 136.03607 369.3125 135.96875 C 369.54777 135.87235 369.73768 135.86827 369.875 135.90625 C 370.01311 135.93905 370.13097 136.0063 370.21875 136.15625 C 370.35548 136.38983 370.3916 136.68796 370.3125 137.03125 C 370.2342 137.3694 370.01305 137.70306 369.65625 138.03125 C 369.31931 138.34118 368.97096 138.48116 368.65625 138.46875 C 368.34397 138.45405 368.02894 138.26497 367.71875 137.90625 L 366.71875 139.03125 C 367.20761 139.67462 367.75321 140.00172 368.34375 140.03125 C 368.93231 140.05795 369.58761 139.76356 370.28125 139.125 C 370.75755 138.68652 371.08293 138.22761 371.3125 137.78125 C 371.54033 137.33212 371.66739 136.88368 371.65625 136.40625 C 371.64505 135.92885 371.525 135.51946 371.3125 135.15625 C 371.07803 134.75553 370.80568 134.47973 370.5 134.34375 C 370.19505 134.20257 369.8819 134.16759 369.53125 134.25 C 369.18132 134.3273 368.68821 134.52707 368.0625 134.875 C 367.43645 135.22314 367.00083 135.4135 366.78125 135.40625 C 366.60857 135.40025 366.49426 135.30644 366.40625 135.15625 C 366.30975 134.9916 366.28366 134.79981 366.34375 134.59375 C 366.43665 134.2732 366.64612 133.98326 366.96875 133.6875 C 367.28128 133.40101 367.54177 133.24768 367.78125 133.25 C 368.0215 133.247 368.26157 133.40483 368.5 133.6875 L 369.59375 132.59375 C 369.23518 132.02681 368.77278 131.74775 368.21875 131.71875 z M 426.03125 132.28125 C 426.27579 132.32475 426.51393 132.53785 426.71875 132.875 L 425.21875 134.28125 C 425.0298 133.95919 424.93488 133.63575 424.96875 133.3125 C 425.00265 132.98928 425.15643 132.70578 425.375 132.5 C 425.57927 132.30769 425.78503 132.23494 426.03125 132.28125 z M 387.40625 133.09375 L 386.375 134.03125 L 387.46875 135.96875 C 387.84886 136.62155 388.07823 137.03331 388.125 137.25 C 388.1701 137.46384 388.16705 137.69318 388.09375 137.9375 C 388.01875 138.17899 387.86435 138.3984 387.6875 138.5625 C 387.53272 138.7061 387.39912 138.77081 387.25 138.78125 C 387.09919 138.78925 386.9665 138.73164 386.84375 138.625 C 386.72179 138.51317 386.4676 138.17285 386.09375 137.53125 L 384.875 135.40625 L 383.84375 136.375 L 385.53125 139.28125 C 385.78172 139.71092 386.01462 139.99958 386.25 140.15625 C 386.48535 140.3129 386.74385 140.34069 387.03125 140.28125 C 387.31858 140.22185 387.58087 140.08782 387.84375 139.84375 C 388.10164 139.6043 388.31962 139.29196 388.46875 138.9375 C 388.62031 138.58082 388.68676 138.21907 388.6875 137.84375 L 389.09375 138.53125 L 390.0625 137.625 L 387.40625 133.09375 z M 405.3125 133.78125 C 405.18649 133.77348 405.05373 133.77128 404.90625 133.8125 C 404.60958 133.8922 404.23641 134.16913 403.78125 134.59375 C 403.27987 135.06152 402.97621 135.48948 402.84375 135.9375 C 402.71126 136.38559 402.69398 136.90204 402.84375 137.4375 L 403.90625 136.75 C 403.84725 136.48074 403.8211 136.2712 403.875 136.09375 C 403.9273 135.91347 404.06842 135.73202 404.25 135.5625 C 404.51867 135.31168 404.72059 135.17835 404.875 135.1875 C 405.02774 135.1945 405.17916 135.33225 405.3125 135.5625 L 405.375 135.65625 C 405.24387 135.91894 404.97827 136.35568 404.5625 136.90625 C 404.25521 137.31609 404.03253 137.65294 403.90625 137.9375 C 403.78074 138.21701 403.7059 138.51325 403.71875 138.8125 C 403.72995 139.10893 403.8204 139.36913 403.96875 139.625 C 404.19287 140.01161 404.50087 140.21003 404.875 140.25 C 405.25143 140.2877 405.63469 140.15256 406.03125 139.78125 C 406.25605 139.57075 406.42192 139.31617 406.5625 139.03125 C 406.70305 138.74637 406.81618 138.42409 406.875 138.0625 C 406.8954 138.0785 406.94194 138.10114 407 138.15625 C 407.12907 138.27627 407.20866 138.38288 407.28125 138.4375 L 408.3125 137.5 C 408.09838 137.36783 407.92348 137.21827 407.78125 137.0625 C 407.63977 136.90163 407.44887 136.61638 407.21875 136.21875 L 406.40625 134.8125 C 406.10527 134.29243 405.85999 133.98257 405.65625 133.875 C 405.55475 133.81867 405.43851 133.78902 405.3125 133.78125 z M 422.0625 134.6875 C 421.95946 134.6936 421.83734 134.7103 421.71875 134.75 C 421.4799 134.8267 421.25303 134.97886 421.03125 135.1875 C 420.5279 135.66107 420.25742 136.30427 420.21875 137.125 L 419.84375 136.46875 L 418.90625 137.34375 L 421.5 141.84375 L 422.5 140.90625 L 421.3125 138.875 C 421.02281 138.37251 420.86984 137.98357 420.8125 137.75 C 420.7575 137.51419 420.77055 137.27452 420.84375 137.03125 C 420.91705 136.78802 421.04464 136.60142 421.21875 136.4375 C 421.35468 136.30954 421.48409 136.22949 421.625 136.21875 C 421.76828 136.20585 421.90541 136.24015 422.03125 136.34375 C 422.15546 136.44449 422.34537 136.7646 422.625 137.25 L 423.9375 139.53125 L 424.96875 138.59375 L 423.34375 135.78125 C 423.14391 135.43419 422.9891 135.18165 422.84375 135.03125 C 422.70077 134.87861 422.52355 134.77587 422.34375 134.71875 C 422.25502 134.68905 422.16554 134.6814 422.0625 134.6875 z M 400.28125 135.34375 L 399.25 136.28125 L 402.90625 142.5625 L 403.90625 141.59375 L 400.28125 135.34375 z M 381.46875 136.0625 L 380.84375 137.75 L 381.375 138.65625 L 380.90625 139.09375 L 381.46875 140.0625 L 381.9375 139.625 L 383.09375 141.59375 C 383.34303 142.02086 383.52085 142.31767 383.625 142.4375 C 383.76753 142.61007 383.89366 142.72785 384.03125 142.78125 C 384.16962 142.82955 384.33748 142.8151 384.53125 142.75 C 384.72333 142.6821 384.93782 142.5488 385.125 142.375 C 385.43034 142.09151 385.67268 141.7817 385.84375 141.4375 L 385.1875 140.59375 C 385.05038 140.84014 384.9398 141.00463 384.84375 141.09375 C 384.77475 141.15775 384.69766 141.18193 384.625 141.1875 C 384.5548 141.1905 384.48739 141.1714 384.4375 141.125 C 384.3884 141.0734 384.27983 140.87255 384.0625 140.5 L 382.96875 138.65625 L 383.6875 138 L 383.125 137.03125 L 382.40625 137.6875 L 381.46875 136.0625 z M 405.8125 136.4375 L 405.96875 136.6875 C 406.13492 136.97449 406.21735 137.18536 406.25 137.3125 C 406.3018 137.50491 406.3104 137.71425 406.25 137.9375 C 406.1655 138.23558 406.02748 138.48432 405.84375 138.65625 C 405.67933 138.8101 405.52096 138.86637 405.34375 138.84375 C 405.16652 138.82115 405.0034 138.7302 404.90625 138.5625 C 404.80745 138.39198 404.80611 138.1728 404.875 137.9375 C 404.9226 137.78784 405.07064 137.55439 405.3125 137.21875 C 405.55431 136.88319 405.71157 136.6107 405.8125 136.4375 z M 417.4375 139.15625 C 416.97956 139.20372 416.52674 139.4364 416.09375 139.84375 C 415.71988 140.1955 415.44175 140.61199 415.25 141.09375 C 415.06061 141.57336 414.98257 142.06732 415.03125 142.59375 C 415.07995 143.1202 415.20862 143.60406 415.4375 144 C 415.73664 144.51747 416.09426 144.85667 416.46875 145.0625 C 416.84152 145.26545 417.23248 145.33059 417.65625 145.21875 C 418.08225 145.10469 418.46335 144.86093 418.8125 144.53125 C 419.37664 143.99858 419.73095 143.35807 419.84375 142.5625 C 419.95727 141.76201 419.7989 140.99313 419.40625 140.3125 C 419.0167 139.63736 418.49775 139.25044 417.875 139.15625 C 417.71882 139.132 417.59015 139.14043 417.4375 139.15625 z M 399.09375 139.5625 C 398.96705 139.55502 398.83581 139.58322 398.6875 139.625 C 398.38917 139.7057 398.02032 139.9479 397.5625 140.375 C 397.05819 140.84549 396.7271 141.30021 396.59375 141.75 C 396.46036 142.19988 396.4746 142.71314 396.625 143.25 L 397.6875 142.5625 C 397.6283 142.2925 397.60215 142.05317 397.65625 141.875 C 397.70895 141.69402 397.81737 141.54551 398 141.375 C 398.27024 141.12272 398.501 140.99118 398.65625 141 C 398.80984 141.006 398.95977 141.11306 399.09375 141.34375 L 399.15625 141.46875 C 399.0243 141.7326 398.762 142.16538 398.34375 142.71875 C 398.03461 143.13066 397.81457 143.4642 397.6875 143.75 C 397.56119 144.03072 397.48718 144.3248 397.5 144.625 C 397.5112 144.92236 397.60093 145.18115 397.75 145.4375 C 397.9752 145.82483 398.28009 146.05456 398.65625 146.09375 C 399.03474 146.13065 399.41363 145.96722 399.8125 145.59375 C 400.03862 145.38202 400.23354 145.12993 400.375 144.84375 C 400.51643 144.5576 400.59698 144.23791 400.65625 143.875 C 400.67675 143.891 400.7229 143.91359 400.78125 143.96875 C 400.91098 144.08885 401.02077 144.19537 401.09375 144.25 L 402.09375 143.28125 C 401.87851 143.14916 401.70546 142.99969 401.5625 142.84375 C 401.42031 142.6827 401.23123 142.39835 401 142 L 400.21875 140.59375 C 399.9163 140.07271 399.64231 139.76368 399.4375 139.65625 C 399.33546 139.59998 399.22045 139.56998 399.09375 139.5625 z M 379.9375 140.3125 C 379.83076 140.31894 379.71667 140.33425 379.59375 140.375 C 379.34617 140.4537 379.10524 140.59953 378.875 140.8125 C 378.35245 141.29589 378.07342 141.94549 378.03125 142.78125 L 377.625 142.125 L 376.65625 143 L 379.34375 147.59375 L 380.375 146.625 L 379.15625 144.53125 C 378.85751 144.0203 378.68378 143.64393 378.625 143.40625 C 378.5687 143.16628 378.57975 142.93537 378.65625 142.6875 C 378.73275 142.43967 378.88176 142.22983 379.0625 142.0625 C 379.2036 141.93189 379.32278 141.85501 379.46875 141.84375 C 379.61717 141.83025 379.77619 141.89486 379.90625 142 C 380.03463 142.10228 380.24289 142.38145 380.53125 142.875 L 381.875 145.21875 L 382.9375 144.25 L 381.28125 141.40625 C 381.07516 141.05336 380.90015 140.80904 380.75 140.65625 C 380.60231 140.50117 380.40482 140.40148 380.21875 140.34375 C 380.12693 140.31375 380.04424 140.30606 379.9375 140.3125 z M 417.28125 140.53125 C 417.35663 140.529 417.4527 140.51358 417.53125 140.53125 C 417.84779 140.59965 418.12054 140.8717 418.375 141.3125 C 418.63594 141.76454 418.72983 142.18735 418.6875 142.59375 C 418.6475 142.99794 418.5131 143.31426 418.25 143.5625 C 417.98683 143.8108 417.69164 143.91174 417.375 143.84375 C 417.05828 143.77575 416.75806 143.50913 416.5 143.0625 C 416.2419 142.6158 416.14501 142.18806 416.1875 141.78125 C 416.23 141.37448 416.39276 141.06059 416.65625 140.8125 C 416.85382 140.62649 417.0551 140.538 417.28125 140.53125 z M 394.03125 141.1875 L 393 142.125 L 393.65625 143.25 L 394.65625 142.28125 L 394.03125 141.1875 z M 399.625 142.25 L 399.75 142.5 C 399.91697 142.78752 400.02972 142.99753 400.0625 143.125 C 400.1145 143.31792 400.09285 143.52586 400.03125 143.75 C 399.94615 144.04924 399.8098 144.29582 399.625 144.46875 C 399.45962 144.62351 399.30318 144.67851 399.125 144.65625 C 398.94681 144.63395 398.78513 144.543 398.6875 144.375 C 398.5882 144.20415 398.58692 143.98623 398.65625 143.75 C 398.70415 143.59974 398.85043 143.36858 399.09375 143.03125 C 399.33701 142.69403 399.52345 142.42399 399.625 142.25 z M 395.03125 142.90625 L 394 143.84375 L 396.53125 148.1875 C 396.74673 148.55781 396.85385 148.7804 396.875 148.875 C 396.8961 148.9696 396.88225 149.07228 396.84375 149.1875 C 396.80945 149.30328 396.76113 149.433 396.65625 149.53125 C 396.61965 149.56555 396.54642 149.5947 396.5 149.625 C 396.4528 149.6605 396.43047 149.68444 396.375 149.71875 L 396.78125 150.90625 C 396.94269 150.82095 397.09012 150.74605 397.21875 150.65625 C 397.35145 150.56705 397.46013 150.47098 397.5625 150.375 C 397.84761 150.10769 398.05139 149.8363 398.15625 149.53125 C 398.26353 149.22395 398.26326 148.8922 398.1875 148.59375 C 398.1158 148.29586 397.92996 147.85929 397.59375 147.28125 L 395.03125 142.90625 z M 409.90625 143.15625 L 408.90625 144.125 L 412.5 150.34375 L 413.53125 149.375 L 412.21875 147.125 C 411.99912 146.74567 411.86382 146.4367 411.8125 146.1875 C 411.7619 145.93321 411.76715 145.68963 411.84375 145.46875 C 411.92035 145.24788 412.05037 145.06477 412.21875 144.90625 C 412.36545 144.76814 412.51585 144.67036 412.65625 144.65625 C 412.79741 144.63705 412.91909 144.69006 413.03125 144.78125 C 413.1434 144.87245 413.32033 145.15243 413.59375 145.625 L 414.96875 148 L 416 147.03125 L 414.46875 144.40625 C 414.23479 144.00169 414.0223 143.72101 413.875 143.5625 C 413.73008 143.40171 413.56276 143.28683 413.375 143.21875 C 413.18961 143.14845 412.99643 143.14405 412.75 143.21875 C 412.50351 143.29325 412.26455 143.43677 412.03125 143.65625 C 411.57654 144.08406 411.31663 144.67905 411.25 145.4375 L 409.90625 143.15625 z M 375.59375 144 L 374.53125 144.96875 L 375.65625 146.90625 C 376.03983 147.56135 376.2654 148.00094 376.3125 148.21875 C 376.3579 148.4337 376.35545 148.6601 376.28125 148.90625 C 376.20535 149.14956 376.0538 149.36535 375.875 149.53125 C 375.71851 149.67642 375.58818 149.73881 375.4375 149.75 C 375.28513 149.758 375.12394 149.7006 375 149.59375 C 374.87685 149.48179 374.62726 149.11261 374.25 148.46875 L 373.03125 146.375 L 371.96875 147.34375 L 373.6875 150.25 C 373.94028 150.68117 374.16853 150.96843 374.40625 151.125 C 374.64391 151.28154 374.92833 151.31111 375.21875 151.25 C 375.5091 151.1889 375.76548 151.05926 376.03125 150.8125 C 376.29198 150.57042 376.50533 150.26356 376.65625 149.90625 C 376.80962 149.5467 376.87399 149.19013 376.875 148.8125 L 377.28125 149.5 L 378.28125 148.59375 L 375.59375 144 z M 392.65625 145.4375 C 392.55059 145.44415 392.43416 145.4592 392.3125 145.5 C 392.06747 145.5788 391.82151 145.72503 391.59375 145.9375 C 391.07682 146.41976 390.79113 147.07425 390.75 147.90625 L 390.375 147.25 L 389.40625 148.125 L 392.0625 152.6875 L 393.09375 151.71875 L 391.90625 149.65625 C 391.61013 149.14826 391.43337 148.76772 391.375 148.53125 C 391.3191 148.29251 391.33065 148.05938 391.40625 147.8125 C 391.48185 147.56564 391.60245 147.35444 391.78125 147.1875 C 391.92084 147.0572 392.07426 146.98027 392.21875 146.96875 C 392.36567 146.95495 392.49616 147.02058 392.625 147.125 C 392.75215 147.22653 392.96418 147.50931 393.25 148 L 394.59375 150.3125 L 395.625 149.375 L 393.96875 146.53125 C 393.76448 146.18041 393.58625 145.93303 393.4375 145.78125 C 393.29117 145.62719 393.12176 145.52583 392.9375 145.46875 C 392.84659 145.43905 392.76191 145.43085 392.65625 145.4375 z M 408.5 147.5 C 408.10779 147.51356 407.77261 147.68471 407.4375 148 C 407.1814 148.24095 406.97176 148.53534 406.84375 148.875 C 406.71573 149.21472 406.6479 149.53204 406.65625 149.875 L 406.28125 149.21875 L 405.34375 150.125 L 408.96875 156.34375 L 409.96875 155.40625 L 408.65625 153.125 C 408.98662 153.1858 409.27123 153.1879 409.5 153.125 C 409.73115 153.0602 409.94409 152.91908 410.15625 152.71875 C 410.60212 152.29775 410.86556 151.71172 410.9375 151 C 411.0078 150.28556 410.81151 149.56579 410.375 148.8125 C 409.94986 148.07887 409.45556 147.64928 408.90625 147.53125 C 408.76886 147.50173 408.63074 147.49548 408.5 147.5 z M 408.28125 148.9375 C 408.35125 148.93753 408.42628 148.94942 408.5 148.96875 C 408.7948 149.04605 409.06942 149.30808 409.34375 149.78125 C 409.63775 150.28834 409.77699 150.75342 409.75 151.125 C 409.7214 151.49377 409.58012 151.77697 409.34375 152 C 409.09768 152.23218 408.84233 152.32914 408.53125 152.25 C 408.21844 152.168 407.88814 151.85111 407.59375 151.34375 C 407.33714 150.90152 407.2469 150.50375 407.28125 150.125 C 407.31395 149.74344 407.43869 149.42176 407.6875 149.1875 C 407.86682 149.01868 408.07125 148.93741 408.28125 148.9375 z M 403.03125 149.8125 L 402.40625 151.46875 L 402.90625 152.375 L 402.46875 152.8125 L 403 153.78125 L 403.46875 153.34375 L 404.625 155.3125 C 404.87064 155.73515 405.05369 156.0066 405.15625 156.125 C 405.29661 156.29553 405.42714 156.41649 405.5625 156.46875 C 405.6986 156.51585 405.84078 156.5032 406.03125 156.4375 C 406.22002 156.369 406.44116 156.23608 406.625 156.0625 C 406.92487 155.77935 407.14472 155.46767 407.3125 155.125 L 406.6875 154.28125 C 406.55299 154.52662 406.43809 154.69224 406.34375 154.78125 C 406.27605 154.84515 406.19644 154.86909 406.125 154.875 C 406.056 154.879 406.01785 154.8583 405.96875 154.8125 C 405.92045 154.7615 405.77667 154.55617 405.5625 154.1875 L 404.5 152.375 L 405.1875 151.71875 L 404.65625 150.78125 L 403.9375 151.4375 L 403.03125 149.8125 z M 387.96875 149.90625 C 387.52348 149.93373 387.09351 150.15457 386.65625 150.5625 C 386.13695 151.04698 385.83921 151.66012 385.75 152.40625 C 385.6591 153.14967 385.80885 153.90151 386.25 154.65625 C 386.61916 155.2879 387.06214 155.67117 387.5625 155.84375 C 388.19157 156.05464 388.85097 155.85577 389.53125 155.21875 C 389.9608 154.81654 390.25493 154.36972 390.40625 153.875 C 390.55832 153.37523 390.56151 152.8447 390.4375 152.28125 L 389.28125 153.03125 C 389.35815 153.3125 389.39425 153.5751 389.34375 153.78125 C 389.29325 153.98741 389.19333 154.16084 389.03125 154.3125 C 388.79299 154.53544 388.52483 154.61013 388.25 154.5625 C 387.97344 154.512 387.71599 154.31899 387.5 153.96875 L 390.09375 151.53125 C 389.57037 150.59516 389.00282 150.0691 388.40625 149.9375 C 388.25662 149.90387 388.11717 149.89709 387.96875 149.90625 z M 387.9375 151.1875 C 388.19005 151.2299 388.44543 151.4396 388.65625 151.78125 L 387.09375 153.21875 C 386.89929 152.89236 386.83924 152.54815 386.875 152.21875 C 386.9107 151.88939 387.02371 151.61752 387.25 151.40625 C 387.46149 151.20881 387.68323 151.14232 387.9375 151.1875 z M 402.5 152.96875 C 402.19646 153.02145 401.95188 153.15568 401.71875 153.375 C 401.55359 153.5304 401.41876 153.71747 401.34375 153.9375 C 401.27115 154.15527 401.23596 154.48028 401.25 154.9375 L 400.875 154.3125 L 399.9375 155.1875 L 402.5625 159.71875 L 403.59375 158.75 L 402.78125 157.375 C 402.33373 156.60574 402.05331 156.07524 401.96875 155.78125 C 401.88665 155.48497 401.85949 155.21591 401.90625 155.03125 C 401.95125 154.84378 402.0755 154.69738 402.21875 154.5625 C 402.36684 154.42306 402.56426 154.34415 402.8125 154.3125 L 402.5 152.96875 z M 383.6875 153.625 C 383.40726 153.6741 383.13262 153.85552 382.84375 154.125 C 382.61654 154.33698 382.44224 154.59932 382.3125 154.90625 C 382.18274 155.21325 382.09305 155.56395 382.0625 155.96875 C 381.80141 155.83612 381.53711 155.791 381.28125 155.84375 C 381.02534 155.89655 380.78363 156.0458 380.53125 156.28125 C 380.05602 156.72461 379.77927 157.3508 379.71875 158.15625 L 379.34375 157.53125 L 378.375 158.4375 L 381.0625 163 L 382.125 162 L 380.8125 159.78125 C 380.5558 159.34317 380.40006 159.02114 380.34375 158.78125 C 380.28995 158.53905 380.305 158.3142 380.375 158.09375 C 380.445 157.87335 380.5579 157.68143 380.71875 157.53125 C 380.85236 157.40653 380.94891 157.3211 381.0625 157.3125 C 381.17854 157.3016 381.32495 157.3433 381.4375 157.4375 C 381.55004 157.5317 381.70893 157.80632 381.96875 158.25 L 383.4375 160.75 L 384.5 159.78125 L 383.21875 157.59375 C 382.96754 157.16457 382.80877 156.81304 382.75 156.5625 C 382.6895 156.30911 382.6819 156.06672 382.75 155.84375 C 382.8181 155.62082 382.91682 155.44852 383.0625 155.3125 C 383.26247 155.12582 383.45957 155.07444 383.65625 155.15625 C 383.8048 155.22105 384.01687 155.48554 384.28125 155.9375 L 385.8125 158.53125 L 386.84375 157.5625 L 385.15625 154.65625 C 384.90209 154.22153 384.68523 153.94029 384.5 153.8125 C 384.24745 153.64137 383.96598 153.57304 383.6875 153.625 z M 398.8125 156.71875 C 398.68565 156.71214 398.55474 156.73836 398.40625 156.78125 C 398.10755 156.86425 397.70841 157.13124 397.25 157.5625 C 396.74505 158.03757 396.44604 158.4858 396.3125 158.9375 C 396.17895 159.38929 396.19318 159.90055 396.34375 160.4375 L 397.375 159.75 C 397.3157 159.47984 397.3208 159.24143 397.375 159.0625 C 397.4277 158.88075 397.53588 158.70342 397.71875 158.53125 C 397.98933 158.27652 398.21955 158.14852 398.375 158.15625 C 398.52877 158.16125 398.67836 158.26975 398.8125 158.5 L 398.875 158.625 C 398.74288 158.89035 398.45004 159.31748 398.03125 159.875 C 397.72172 160.28998 397.50223 160.65018 397.375 160.9375 C 397.24852 161.21972 397.20592 161.51174 397.21875 161.8125 C 397.22995 162.11042 397.31948 162.36916 397.46875 162.625 C 397.69423 163.01157 397.99836 163.21339 398.375 163.25 C 398.75396 163.2843 399.13188 163.1271 399.53125 162.75 C 399.75766 162.53622 399.95212 162.28781 400.09375 162 C 400.23536 161.71224 400.31565 161.39536 400.375 161.03125 C 400.3956 161.04705 400.4416 161.07014 400.5 161.125 C 400.62989 161.24445 400.73943 161.32076 400.8125 161.375 L 401.8125 160.4375 C 401.59699 160.30665 401.42438 160.15526 401.28125 160 C 401.13888 159.83959 400.95026 159.55382 400.71875 159.15625 L 399.90625 157.75 C 399.60343 157.22998 399.36132 156.91871 399.15625 156.8125 C 399.05408 156.75682 398.93935 156.72536 398.8125 156.71875 z M 399.3125 159.40625 L 399.46875 159.65625 C 399.63593 159.94322 399.7172 160.15373 399.75 160.28125 C 399.8021 160.47421 399.8116 160.68121 399.75 160.90625 C 399.6648 161.20675 399.52879 161.45039 399.34375 161.625 C 399.17816 161.78125 398.9909 161.83355 398.8125 161.8125 C 398.63408 161.7914 398.504 161.69892 398.40625 161.53125 C 398.30685 161.36074 398.30554 161.17474 398.375 160.9375 C 398.423 160.78658 398.56887 160.52726 398.8125 160.1875 C 399.05607 159.84782 399.21082 159.58134 399.3125 159.40625 z M 394.28125 160.65625 C 394.00335 160.70605 393.72382 160.88689 393.4375 161.15625 C 393.2123 161.36813 393.03474 161.60002 392.90625 161.90625 C 392.77776 162.21254 392.71754 162.56529 392.6875 162.96875 C 392.42849 162.83733 392.15997 162.82171 391.90625 162.875 C 391.65247 162.9283 391.4064 163.07716 391.15625 163.3125 C 390.68522 163.75566 390.40327 164.35346 390.34375 165.15625 L 390 164.53125 L 389.03125 165.4375 L 391.6875 170 L 392.71875 169 L 391.4375 166.8125 C 391.18264 166.3767 391.02473 166.02014 390.96875 165.78125 C 390.91525 165.54006 390.9307 165.31361 391 165.09375 C 391.0693 164.87392 391.18432 164.68135 391.34375 164.53125 C 391.47618 164.40658 391.60611 164.35265 391.71875 164.34375 C 391.83383 164.33255 391.95082 164.37519 392.0625 164.46875 C 392.17417 164.56235 392.3358 164.83987 392.59375 165.28125 L 394.0625 167.75 L 395.09375 166.78125 L 393.8125 164.59375 C 393.5631 164.16679 393.40219 163.84324 393.34375 163.59375 C 393.28365 163.34142 393.3076 163.09738 393.375 162.875 C 393.4424 162.65266 393.54311 162.4797 393.6875 162.34375 C 393.88571 162.15716 394.08613 162.10654 394.28125 162.1875 C 394.4286 162.2517 394.61252 162.48787 394.875 162.9375 L 396.40625 165.53125 L 397.4375 164.5625 L 395.71875 161.6875 C 395.46641 161.25504 395.27754 160.97056 395.09375 160.84375 C 394.84318 160.67395 394.5574 160.60368 394.28125 160.65625 z M 387.65625 167.0625 C 387.27677 167.1055 386.81826 167.3698 386.28125 167.875 C 385.71687 168.40598 385.36153 168.94748 385.25 169.46875 C 385.13845 169.99012 385.20654 170.44989 385.4375 170.84375 C 385.69348 171.28035 386.04567 171.45358 386.5 171.40625 C 386.82784 171.37175 387.47559 171.07506 388.4375 170.5 C 388.64542 170.37916 388.78999 170.33545 388.875 170.34375 C 388.9592 170.35725 389.04035 170.40883 389.09375 170.5 C 389.17215 170.63394 389.20045 170.77191 389.15625 170.9375 C 389.08775 171.17905 388.89304 171.43458 388.625 171.6875 C 388.38149 171.91728 388.17423 172.02328 387.96875 172.03125 C 387.76156 172.03625 387.55633 171.94203 387.375 171.75 L 386.4375 172.9375 C 386.78607 173.27746 387.19895 173.41697 387.65625 173.375 C 388.11584 173.3307 388.62265 173.06635 389.15625 172.5625 C 389.74365 172.00786 390.09421 171.42568 390.21875 170.84375 C 390.34327 170.26193 390.27472 169.75967 390.03125 169.34375 C 389.80778 168.96196 389.52888 168.75992 389.1875 168.75 C 388.84524 168.745 388.35749 168.93637 387.71875 169.3125 C 387.08211 169.68652 386.67166 169.89796 386.53125 169.90625 C 386.42715 169.91125 386.36266 169.86687 386.3125 169.78125 C 386.254 169.68135 386.23915 169.54327 386.28125 169.40625 C 386.34765 169.20645 386.53908 168.97616 386.8125 168.71875 C 387.02921 168.51473 387.20416 168.42106 387.375 168.40625 C 387.54828 168.38915 387.72962 168.45639 387.875 168.59375 L 388.71875 167.4375 C 388.38838 167.13376 388.03563 167.01959 387.65625 167.0625 z "
       transform="translate(0,812.71875)"
       id="path3952" />
    <path
       sodipodi:nodetypes="ccccc"
       inkscape:connector-curvature="0"
       id="path4257"
       d="m 388.21877,988.67155 -30.62912,-52.23744 45.24756,-41.09345 29.58494,51.54094 z"
       style="fill:none;stroke:#ffffff;stroke-width:1px;stroke-linecap:butt;stroke-linejoin:miter;stroke-opacity:1" />
    <text
       xml:space="preserve"
       style="font-size:16px;font-style:normal;font-variant:normal;font-weight:normal;font-stretch:normal;line-height:125%;letter-spacing:0px;word-spacing:0px;fill:#000000;fill-opacity:1;stroke:none;font-family:Arial;-inkscape-font-specification:Arial"
       x="172.84482"
       y="860.37463"
       id="text4279"
       sodipodi:linespacing="125%"><tspan
         sodipodi:role="line"
         id="tspan4281"
         x="172.84482"
         y="860.37463">Use cases</tspan></text>
    <text
       xml:space="preserve"
       style="font-size:16px;font-style:normal;font-variant:normal;font-weight:normal;font-stretch:normal;text-align:end;line-height:125%;letter-spacing:0px;word-spacing:0px;text-anchor:end;fill:#000000;fill-opacity:1;stroke:none;font-family:Arial;-inkscape-font-specification:Arial"
       x="246.79404"
       y="887.6767"
       id="text4283"
       sodipodi:linespacing="125%"><tspan
         sodipodi:role="line"
         id="tspan4285"
         x="246.79404"
         y="887.6767"
         style="font-size:12px;font-weight:normal;text-align:end;text-anchor:end;-inkscape-font-specification:Arial">membuat panggilan &lt;</tspan><tspan
         sodipodi:role="line"
         x="246.79404"
         y="902.6767"
         id="tspan4291"
         style="font-size:12px;font-weight:normal;text-align:end;text-anchor:end;-inkscape-font-specification:Arial" /><tspan
         sodipodi:role="line"
         x="246.79404"
         y="917.6767"
         id="tspan4293"
         style="font-size:12px;font-weight:normal;text-align:end;text-anchor:end;-inkscape-font-specification:Arial">menerima panggilan &lt;</tspan><tspan
         sodipodi:role="line"
         x="246.79404"
         y="932.6767"
         id="tspan4295"
         style="font-size:12px;font-weight:normal;text-align:end;text-anchor:end;-inkscape-font-specification:Arial" /><tspan
         sodipodi:role="line"
         x="246.79404"
         y="947.6767"
         id="tspan4297"
         style="font-size:12px;font-weight:normal;text-align:end;text-anchor:end;-inkscape-font-specification:Arial">mengirim pesan &lt;</tspan><tspan
         sodipodi:role="line"
         x="246.79404"
         y="962.6767"
         id="tspan4287"
         style="font-size:12px;font-weight:normal;text-align:end;text-anchor:end;-inkscape-font-specification:Arial" /><tspan
         sodipodi:role="line"
         x="246.79404"
         y="977.6767"
         id="tspan4289"
         style="font-size:12px;font-weight:normal;text-align:end;text-anchor:end;-inkscape-font-specification:Arial">menyimpan nomor &lt;</tspan></text>
    <text
       xml:space="preserve"
       style="font-size:12px;font-style:normal;font-variant:normal;font-weight:normal;font-stretch:normal;line-height:125%;letter-spacing:0px;word-spacing:0px;fill:#000000;fill-opacity:1;stroke:none;font-family:Arial;-inkscape-font-specification:Arial"
       x="125.60458"
       y="1032.2769"
       id="text4299"
       sodipodi:linespacing="125%"><tspan
         sodipodi:role="line"
         id="tspan4301"
         x="125.60458"
         y="1032.2769">Sudut pandang: USER</tspan></text>
    <text
       sodipodi:linespacing="125%"
       id="text4303"
       y="860.37463"
       x="498.91711"
       style="font-size:16px;font-style:normal;font-variant:normal;font-weight:normal;font-stretch:normal;line-height:125%;letter-spacing:0px;word-spacing:0px;fill:#000000;fill-opacity:1;stroke:none;font-family:Arial;-inkscape-font-specification:Arial"
       xml:space="preserve"><tspan
         y="860.37463"
         x="498.91711"
         id="tspan4305"
         sodipodi:role="line">Fungsi internal</tspan></text>
    <text
       sodipodi:linespacing="125%"
       id="text4307"
       y="887.82318"
       x="499.57336"
       style="font-size:16px;font-style:normal;font-variant:normal;font-weight:normal;font-stretch:normal;line-height:125%;letter-spacing:0px;word-spacing:0px;fill:#000000;fill-opacity:1;stroke:none;font-family:Arial;-inkscape-font-specification:Arial"
       xml:space="preserve"><tspan
         style="font-size:12px;font-weight:normal;-inkscape-font-specification:Arial"
         y="887.82318"
         x="499.57336"
         id="tspan4309"
         sodipodi:role="line">&gt; kirim/terima data</tspan><tspan
         style="font-size:12px;font-weight:normal;-inkscape-font-specification:Arial"
         id="tspan4311"
         y="902.82318"
         x="499.57336"
         sodipodi:role="line" /><tspan
         style="font-size:12px;font-weight:normal;-inkscape-font-specification:Arial"
         id="tspan4313"
         y="917.82318"
         x="499.57336"
         sodipodi:role="line">&gt; tenaga listrik (battery)</tspan><tspan
         style="font-size:12px;font-weight:normal;-inkscape-font-specification:Arial"
         id="tspan4315"
         y="932.82318"
         x="499.57336"
         sodipodi:role="line" /><tspan
         style="font-size:12px;font-weight:normal;-inkscape-font-specification:Arial"
         id="tspan4317"
         y="947.82318"
         x="499.57336"
         sodipodi:role="line">&gt; I/O user (layar)</tspan><tspan
         style="font-size:12px;font-weight:normal;-inkscape-font-specification:Arial"
         id="tspan4319"
         y="962.82318"
         x="499.57336"
         sodipodi:role="line" /><tspan
         style="font-size:12px;font-weight:normal;-inkscape-font-specification:Arial"
         id="tspan4321"
         y="977.82318"
         x="499.57336"
         sodipodi:role="line">&gt; manajemen kontak</tspan></text>
    <text
       sodipodi:linespacing="125%"
       id="text4323"
       y="1032.2769"
       x="499.69055"
       style="font-size:12px;font-style:normal;font-variant:normal;font-weight:normal;font-stretch:normal;line-height:125%;letter-spacing:0px;word-spacing:0px;fill:#000000;fill-opacity:1;stroke:none;font-family:Arial;-inkscape-font-specification:Arial"
       xml:space="preserve"><tspan
         y="1032.2769"
         x="499.69055"
         id="tspan4325"
         sodipodi:role="line">Sudut pandang: DEVELOPER</tspan></text>
  </g>
</svg>
