<?xml version="1.0" encoding="UTF-8" standalone="no"?>
<!-- Created with Inkscape (http://www.inkscape.org/) -->

<svg
   xmlns:dc="http://purl.org/dc/elements/1.1/"
   xmlns:cc="http://creativecommons.org/ns#"
   xmlns:rdf="http://www.w3.org/1999/02/22-rdf-syntax-ns#"
   xmlns:svg="http://www.w3.org/2000/svg"
   xmlns="http://www.w3.org/2000/svg"
   xmlns:sodipodi="http://sodipodi.sourceforge.net/DTD/sodipodi-0.dtd"
   xmlns:inkscape="http://www.inkscape.org/namespaces/inkscape"
   width="744.09003"
   height="75"
   id="svg2"
   version="1.1"
   inkscape:version="0.48.4 r9939"
   sodipodi:docname="gbr-3.5.svg">
  <defs
     id="defs4">
    <marker
       inkscape:stockid="Arrow2Mend"
       orient="auto"
       refY="0"
       refX="0"
       id="Arrow2Mend"
       style="overflow:visible">
      <path
         id="path4327"
         style="fill-rule:evenodd;stroke-width:0.625;stroke-linejoin:round"
         d="M 8.7185878,4.0337352 -2.2072895,0.01601326 8.7185884,-4.0017078 c -1.7454984,2.3720609 -1.7354408,5.6174519 -6e-7,8.035443 z"
         transform="scale(-0.6,-0.6)"
         inkscape:connector-curvature="0" />
    </marker>
    <marker
       inkscape:stockid="Arrow2Lend"
       orient="auto"
       refY="0"
       refX="0"
       id="Arrow2Lend"
       style="overflow:visible">
      <path
         id="path4321"
         style="fill-rule:evenodd;stroke-width:0.625;stroke-linejoin:round"
         d="M 8.7185878,4.0337352 -2.2072895,0.01601326 8.7185884,-4.0017078 c -1.7454984,2.3720609 -1.7354408,5.6174519 -6e-7,8.035443 z"
         transform="matrix(-1.1,0,0,-1.1,-1.1,0)"
         inkscape:connector-curvature="0" />
    </marker>
    <marker
       inkscape:stockid="Arrow1Lend"
       orient="auto"
       refY="0"
       refX="0"
       id="Arrow1Lend"
       style="overflow:visible">
      <path
         id="path4303"
         d="M 0,0 5,-5 -12.5,0 5,5 0,0 z"
         style="fill-rule:evenodd;stroke:#000000;stroke-width:1pt"
         transform="matrix(-0.8,0,0,-0.8,-10,0)"
         inkscape:connector-curvature="0" />
    </marker>
  </defs>
  <sodipodi:namedview
     id="base"
     pagecolor="#ffffff"
     bordercolor="#666666"
     borderopacity="1.0"
     inkscape:pageopacity="1"
     inkscape:pageshadow="2"
     inkscape:zoom="1.3448345"
     inkscape:cx="247.3289"
     inkscape:cy="-31.44451"
     inkscape:document-units="px"
     inkscape:current-layer="layer1"
     showgrid="false"
     inkscape:window-width="1319"
     inkscape:window-height="744"
     inkscape:window-x="41"
     inkscape:window-y="24"
     inkscape:window-maximized="1"
     showguides="true"
     inkscape:guide-bbox="true" />
  <metadata
     id="metadata7">
    <rdf:RDF>
      <cc:Work
         rdf:about="">
        <dc:format>image/svg+xml</dc:format>
        <dc:type
           rdf:resource="http://purl.org/dc/dcmitype/StillImage" />
        <dc:title></dc:title>
      </cc:Work>
    </rdf:RDF>
  </metadata>
  <g
     inkscape:label="Layer 1"
     inkscape:groupmode="layer"
     id="layer1"
     transform="translate(0,-977.36218)">
    <rect
       style="color:#000000;fill:#ffffff;fill-opacity:1;stroke:#000000;stroke-width:1;stroke-miterlimit:4;stroke-opacity:1;stroke-dasharray:none;marker:none;visibility:visible;display:inline;overflow:visible;enable-background:accumulate"
       id="rect4196"
       width="742.09003"
       height="73"
       x="1"
       y="978.36218" />
    <g
       id="g3797"
       transform="translate(101.05522,149.09086)">
      <path
         sodipodi:nodetypes="cccccc"
         inkscape:connector-curvature="0"
         id="path3773"
         d="m -100.05522,829.27132 0,22.18751 107.2812639,0 14.2187501,-14.259 0,-7.92851 z"
         style="fill:#e6e6e6;fill-opacity:1;stroke:#000000;stroke-width:1px;stroke-linecap:butt;stroke-linejoin:miter;stroke-opacity:1" />
      <text
         sodipodi:linespacing="125%"
         id="text3769"
         y="844.59259"
         x="-94.51062"
         style="font-size:12px;font-style:normal;font-variant:normal;font-weight:normal;font-stretch:normal;line-height:125%;letter-spacing:0px;word-spacing:0px;fill:#000000;fill-opacity:1;stroke:none;font-family:Arial;-inkscape-font-specification:Arial"
         xml:space="preserve"><tspan
           y="844.59259"
           x="-94.51062"
           id="tspan3771"
           sodipodi:role="line">pd Message flow</tspan></text>
    </g>
    <g
       id="g3804"
       transform="translate(33.713431,-91.781815)">
      <g
         id="g2991"
         transform="translate(-17.403878,129.28181)">
        <path
           inkscape:connector-curvature="0"
           id="path4294-3"
           d="m 143.125,980.09375 13.65625,0.0312 0.0312,-6.84375 -13.6875,-0.0312 z m 27.34375,0.0625 13.65625,0 0.0312,-6.8125 -13.6875,-0.0312 z m 27.34375,0.0312 13.65625,0.0312 0,-6.84375 -13.65625,-0.0312 z m 27.34375,0.0625 13.65625,0 0,-6.8125 -13.65625,-0.0312 z m 27.3125,0.0312 13.6875,0.0312 0,-6.84375 L 252.5,973.4375 z m 27.34375,0.0312 13.6875,0.0312 0,-6.84375 -13.65625,0 z m 27.34375,0.0625 13.6875,0.0312 0,-6.84375 -13.65625,-0.0312 z m 27.34375,0.0312 13.6875,0.0312 0,-6.84375 -13.6875,0 z m 27.34375,0.0625 13.65625,0 0.0312,-6.8125 -13.6875,-0.0312 z m 27.34375,0.0312 13.65625,0.0312 0.0312,-6.84375 -13.6875,-0.0312 z m 27.34375,0.0625 13.65625,0 0.0312,-6.8125 -13.6875,-0.0312 z m 27.34375,0.0312 13.65625,0.0312 0,-6.84375 L 443.875,973.75 z m 27.3125,0.0625 13.6875,0 0,-6.8125 -13.65625,-0.0312 z m 27.34375,0.0312 13.6875,0.0312 0,-6.84375 -13.65625,-0.0312 z m 27.34375,0.0312 13.6875,0.0312 0,-6.84375 -13.65625,0 z m 27.34375,0.0625 13.6875,0.0312 0,-6.84375 -13.6875,-0.0312 z m 27.34375,0.0312 13.65625,0.0312 L 594.25,974 l -13.6875,0 z"
           style="font-size:medium;font-style:normal;font-variant:normal;font-weight:normal;font-stretch:normal;text-indent:0;text-align:start;text-decoration:none;line-height:normal;letter-spacing:normal;word-spacing:normal;text-transform:none;direction:ltr;block-progression:tb;writing-mode:lr-tb;text-anchor:start;baseline-shift:baseline;color:#000000;fill:#000000;fill-opacity:1;stroke:none;stroke-width:6.83500004;marker:none;visibility:visible;display:inline;overflow:visible;enable-background:accumulate;font-family:Sans;-inkscape-font-specification:Sans" />
        <path
           inkscape:connector-curvature="0"
           id="path2997"
           style="fill-rule:evenodd;stroke-width:0.625;stroke-linejoin:round"
           d="m 559.57208,960.8855 44.80702,16.47668 -44.80702,16.47667 c 7.15829,-9.72782 7.11704,-23.03717 0,-32.95335 z" />
      </g>
      <path
         transform="matrix(0.50329597,0,0,0.50329597,-9.4746389,1182.8255)"
         d="m 265.94254,-151.36522 c 0,17.1556 -13.90736,31.06296 -31.06296,31.06296 -17.1556,0 -31.06296,-13.90736 -31.06296,-31.06296 0,-17.1556 13.90736,-31.06296 31.06296,-31.06296 17.1556,0 31.06296,13.90736 31.06296,31.06296 z"
         sodipodi:ry="31.062962"
         sodipodi:rx="31.062962"
         sodipodi:cy="-151.36522"
         sodipodi:cx="234.87958"
         id="path5505"
         style="color:#000000;fill:#b4b4b4;fill-opacity:1;stroke:#000000;stroke-width:13.58047867;stroke-miterlimit:4;stroke-opacity:1;stroke-dasharray:none;marker:none;visibility:visible;display:inline;overflow:visible;enable-background:accumulate"
         sodipodi:type="arc" />
    </g>
  </g>
</svg>
