<?xml version="1.0" encoding="utf-8"?>
<!-- Generator: Adobe Illustrator 23.0.6, SVG Export Plug-In . SVG Version: 6.00 Build 0)  -->
<svg version="1.1" id="Layer_1" xmlns="http://www.w3.org/2000/svg" xmlns:xlink="http://www.w3.org/1999/xlink" x="0px" y="0px"
	 width="138px" height="58px" viewBox="0 0 138 58" style="enable-background:new 0 0 138 58;" xml:space="preserve">
<style type="text/css">
	.st0{enable-background:new    ;}
	.st1{fill:#FFFFFF;}
</style>
<g class="st0">
	<path class="st1" d="M9.7,4.7c0.6,0.2,1.2,0.6,1.7,1l-1.2,1.4C9.4,6.5,8.6,6.2,7.8,6.2c-0.5,0-0.8,0.1-1.1,0.3S6.3,6.9,6.3,7.3
		c0,0.3,0.1,0.5,0.2,0.6c0.1,0.2,0.3,0.3,0.6,0.5c0.3,0.1,0.7,0.3,1.3,0.5c1.1,0.4,2,0.8,2.5,1.3c0.5,0.5,0.8,1.3,0.8,2.3
		c0,0.7-0.2,1.3-0.5,1.8c-0.4,0.5-0.9,0.9-1.5,1.2C9,15.9,8.2,16,7.3,16c-0.9,0-1.7-0.1-2.4-0.4c-0.7-0.3-1.3-0.6-1.8-1.1l1.3-1.4
		c0.4,0.4,0.9,0.6,1.3,0.8c0.5,0.2,0.9,0.3,1.5,0.3c0.5,0,1-0.1,1.3-0.4c0.3-0.2,0.5-0.6,0.5-1c0-0.3-0.1-0.5-0.2-0.7
		c-0.1-0.2-0.3-0.4-0.6-0.5C7.9,11.4,7.5,11.2,7,11c-1.2-0.4-2.1-0.8-2.6-1.4C3.8,9.1,3.6,8.4,3.6,7.5c0-0.6,0.2-1.2,0.5-1.7
		C4.4,5.4,4.9,5,5.5,4.7c0.6-0.3,1.3-0.4,2.1-0.4C8.4,4.3,9.1,4.4,9.7,4.7z"/>
	<path class="st1" d="M20.2,15.7H18l-0.1-1.1c-0.6,0.9-1.5,1.4-2.6,1.4c-0.8,0-1.4-0.2-1.8-0.7s-0.6-1.1-0.6-2V7.2h2.5V13
		c0,0.4,0.1,0.7,0.2,0.9c0.1,0.2,0.3,0.3,0.6,0.3c0.5,0,1-0.3,1.4-1v-6h2.5V15.7z"/>
	<path class="st1" d="M29.4,8.1c0.5,0.8,0.8,1.9,0.8,3.3c0,0.9-0.1,1.7-0.4,2.4c-0.3,0.7-0.7,1.2-1.2,1.6c-0.5,0.4-1.1,0.6-1.8,0.6
		c-0.9,0-1.5-0.3-2.1-0.9V19l-2.5,0.3V7.2h2.2l0.1,0.9c0.3-0.4,0.7-0.7,1.1-0.9C26.1,7,26.5,6.9,27,6.9C28,6.9,28.8,7.3,29.4,8.1z
		 M27.5,11.5c0-1-0.1-1.7-0.3-2.1c-0.2-0.4-0.6-0.6-1-0.6c-0.3,0-0.6,0.1-0.8,0.3s-0.5,0.4-0.6,0.7v3.6c0.3,0.5,0.8,0.8,1.3,0.8
		C27,14.2,27.5,13.3,27.5,11.5z"/>
	<path class="st1" d="M38.8,8.1c0.5,0.8,0.8,1.9,0.8,3.3c0,0.9-0.1,1.7-0.4,2.4c-0.3,0.7-0.7,1.2-1.2,1.6c-0.5,0.4-1.1,0.6-1.8,0.6
		c-0.9,0-1.5-0.3-2.1-0.9V19l-2.5,0.3V7.2h2.2L34,8.1c0.3-0.4,0.7-0.7,1.1-0.9C35.6,7,36,6.9,36.4,6.9C37.5,6.9,38.3,7.3,38.8,8.1z
		 M37,11.5c0-1-0.1-1.7-0.3-2.1c-0.2-0.4-0.6-0.6-1-0.6c-0.3,0-0.6,0.1-0.8,0.3s-0.5,0.4-0.6,0.7v3.6c0.3,0.5,0.8,0.8,1.3,0.8
		C36.5,14.2,37,13.3,37,11.5z"/>
	<path class="st1" d="M41.6,15.4c-0.4-0.4-0.6-1-0.6-1.8V3.8l2.5-0.3v10.1c0,0.4,0.1,0.5,0.4,0.5c0.1,0,0.3,0,0.4-0.1l0.5,1.7
		c-0.4,0.2-0.9,0.3-1.5,0.3C42.6,16,42,15.8,41.6,15.4z"/>
	<path class="st1" d="M50.4,15.7c-0.3,1.1-0.9,1.9-1.7,2.5s-1.8,0.9-3.1,1l-0.3-1.7c0.8-0.1,1.4-0.3,1.8-0.6
		c0.4-0.3,0.7-0.7,0.9-1.3h-0.9l-2.6-8.5h2.7l1.5,6.9l1.7-6.9h2.6L50.4,15.7z"/>
	<path class="st1" d="M63.1,7.2c0.5,0.2,0.9,0.4,1.3,0.8l-1.1,1.5c-0.5-0.4-1.1-0.6-1.6-0.6c-0.6,0-1,0.2-1.3,0.7S60,10.6,60,11.6
		c0,0.9,0.1,1.6,0.4,2s0.7,0.6,1.2,0.6c0.3,0,0.5,0,0.8-0.1c0.2-0.1,0.5-0.2,0.8-0.4l1.1,1.5c-0.8,0.6-1.8,0.9-2.9,0.9
		c-0.9,0-1.6-0.2-2.2-0.6s-1.1-0.9-1.5-1.6c-0.3-0.7-0.5-1.5-0.5-2.4s0.2-1.7,0.5-2.4s0.8-1.2,1.5-1.6c0.6-0.4,1.4-0.6,2.2-0.6
		C62.1,6.9,62.6,7,63.1,7.2z"/>
	<path class="st1" d="M72.2,7.6c0.4,0.5,0.6,1.1,0.6,1.9v6.2h-2.5V9.9c0-0.4-0.1-0.7-0.2-0.9c-0.1-0.2-0.3-0.2-0.6-0.2
		c-0.5,0-1,0.4-1.5,1.1v5.8h-2.5V3.8L68,3.5v4.6c0.4-0.4,0.7-0.7,1.1-0.9s0.8-0.3,1.3-0.3C71.2,6.9,71.7,7.1,72.2,7.6z"/>
	<path class="st1" d="M81.5,14.1c0.1,0.2,0.2,0.3,0.4,0.3L81.4,16c-0.5,0-0.9-0.2-1.3-0.3s-0.6-0.5-0.8-0.9C78.8,15.6,78,16,76.8,16
		c-0.8,0-1.5-0.2-2-0.7s-0.8-1.1-0.8-1.9c0-0.9,0.3-1.7,1-2.1s1.7-0.7,3-0.7h0.9v-0.4c0-0.5-0.1-0.9-0.3-1S78,8.8,77.5,8.8
		c-0.3,0-0.6,0-1,0.1s-0.8,0.2-1.2,0.3l-0.6-1.7c0.5-0.2,1.1-0.4,1.6-0.5c0.6-0.1,1.1-0.2,1.6-0.2c1.2,0,2.1,0.3,2.7,0.8
		c0.6,0.5,0.8,1.3,0.8,2.3v3.4C81.4,13.7,81.4,13.9,81.5,14.1z M78.9,13.4v-1.6h-0.6c-0.6,0-1,0.1-1.3,0.3c-0.3,0.2-0.4,0.6-0.4,1
		c0,0.4,0.1,0.7,0.3,0.9c0.2,0.2,0.4,0.3,0.7,0.3C78.1,14.3,78.6,14,78.9,13.4z"/>
	<path class="st1" d="M85.7,3.1c0.3,0.3,0.4,0.6,0.4,1c0,0.4-0.1,0.8-0.4,1c-0.3,0.3-0.6,0.4-1.1,0.4s-0.8-0.1-1.1-0.4
		c-0.3-0.3-0.4-0.6-0.4-1c0-0.4,0.1-0.8,0.4-1c0.3-0.3,0.6-0.4,1.1-0.4S85.4,2.9,85.7,3.1z M85.9,15.7h-2.5V7.2h2.5V15.7z"/>
	<path class="st1" d="M94.6,7.6C95,8,95.2,8.7,95.2,9.5v6.2h-2.5V9.9c0-0.4-0.1-0.7-0.2-0.9c-0.1-0.2-0.3-0.2-0.6-0.2
		c-0.5,0-1,0.4-1.5,1.1v5.8h-2.5V7.2h2.2l0.2,1c0.4-0.4,0.8-0.8,1.2-1c0.4-0.2,0.9-0.3,1.4-0.3C93.6,6.9,94.2,7.1,94.6,7.6z"/>
</g>
<g class="st0">
	<path class="st1" d="M8.6,33.7h-3l-2.7-8.5h2.8l1.5,6.6l1.6-6.6h2.6L8.6,33.7z"/>
	<path class="st1" d="M14.5,21.1c0.3,0.3,0.4,0.6,0.4,1c0,0.4-0.1,0.8-0.4,1c-0.3,0.3-0.6,0.4-1.1,0.4c-0.4,0-0.8-0.1-1.1-0.4
		s-0.4-0.6-0.4-1c0-0.4,0.1-0.8,0.4-1s0.6-0.4,1.1-0.4C13.8,20.7,14.2,20.9,14.5,21.1z M14.7,33.7h-2.5v-8.5h2.5V33.7z"/>
	<path class="st1" d="M21.3,25.2c0.5,0.2,1,0.4,1.4,0.7l-0.9,1.4c-0.7-0.4-1.4-0.7-2.1-0.7c-0.3,0-0.6,0.1-0.8,0.2
		c-0.2,0.1-0.3,0.3-0.3,0.5c0,0.2,0,0.3,0.1,0.4c0.1,0.1,0.2,0.2,0.5,0.3c0.2,0.1,0.6,0.3,1.1,0.4c0.9,0.3,1.5,0.6,2,1
		c0.4,0.4,0.6,1,0.6,1.7c0,0.6-0.2,1.1-0.5,1.5c-0.3,0.4-0.8,0.8-1.4,1C20.6,33.9,20,34,19.3,34c-0.7,0-1.4-0.1-2-0.3
		s-1.1-0.5-1.6-0.9l1.2-1.3c0.7,0.6,1.5,0.8,2.3,0.8c0.4,0,0.7-0.1,0.9-0.2s0.3-0.4,0.3-0.6c0-0.2,0-0.4-0.1-0.5s-0.3-0.2-0.5-0.3
		c-0.2-0.1-0.6-0.2-1.2-0.4c-0.8-0.2-1.5-0.6-1.9-1c-0.4-0.4-0.6-1-0.6-1.6c0-0.5,0.1-0.9,0.4-1.3c0.3-0.4,0.7-0.7,1.2-0.9
		c0.5-0.2,1.1-0.3,1.8-0.3C20.2,24.9,20.8,25,21.3,25.2z"/>
	<path class="st1" d="M26.6,21.1c0.3,0.3,0.4,0.6,0.4,1c0,0.4-0.1,0.8-0.4,1c-0.3,0.3-0.6,0.4-1.1,0.4c-0.4,0-0.8-0.1-1.1-0.4
		s-0.4-0.6-0.4-1c0-0.4,0.1-0.8,0.4-1s0.6-0.4,1.1-0.4C26,20.7,26.4,20.9,26.6,21.1z M26.8,33.7h-2.5v-8.5h2.5V33.7z"/>
	<path class="st1" d="M35.9,26.1c0.5,0.8,0.8,1.9,0.8,3.4c0,0.9-0.1,1.7-0.4,2.4s-0.7,1.2-1.2,1.6c-0.5,0.4-1.1,0.6-1.8,0.6
		c-0.5,0-0.9-0.1-1.3-0.3c-0.4-0.2-0.7-0.5-1-0.8L31,33.7h-2.2V21.8l2.5-0.3V26c0.3-0.4,0.6-0.6,1-0.8c0.4-0.2,0.8-0.3,1.3-0.3
		C34.6,24.9,35.4,25.3,35.9,26.1z M34.1,29.5c0-1-0.1-1.7-0.4-2.1c-0.2-0.4-0.6-0.6-1-0.6c-0.6,0-1,0.3-1.4,1v3.6
		c0.2,0.3,0.4,0.5,0.6,0.6s0.5,0.2,0.7,0.2C33.6,32.2,34.1,31.3,34.1,29.5z"/>
	<path class="st1" d="M40.6,21.1c0.3,0.3,0.4,0.6,0.4,1c0,0.4-0.1,0.8-0.4,1c-0.3,0.3-0.6,0.4-1.1,0.4c-0.4,0-0.8-0.1-1.1-0.4
		s-0.4-0.6-0.4-1c0-0.4,0.1-0.8,0.4-1s0.6-0.4,1.1-0.4C39.9,20.7,40.3,20.9,40.6,21.1z M40.8,33.7h-2.5v-8.5h2.5V33.7z"/>
	<path class="st1" d="M43.2,33.4c-0.4-0.4-0.6-1-0.6-1.8v-9.8l2.5-0.3v10.1c0,0.4,0.1,0.5,0.4,0.5c0.1,0,0.3,0,0.4-0.1l0.5,1.7
		C46,33.9,45.5,34,44.9,34C44.2,34,43.6,33.8,43.2,33.4z"/>
	<path class="st1" d="M49.9,21.1c0.3,0.3,0.4,0.6,0.4,1c0,0.4-0.1,0.8-0.4,1c-0.3,0.3-0.6,0.4-1.1,0.4c-0.4,0-0.8-0.1-1.1-0.4
		s-0.4-0.6-0.4-1c0-0.4,0.1-0.8,0.4-1s0.6-0.4,1.1-0.4C49.2,20.7,49.6,20.9,49.9,21.1z M50.1,33.7h-2.5v-8.5h2.5V33.7z"/>
	<path class="st1" d="M57.3,33.4c-0.3,0.2-0.7,0.4-1.1,0.5C55.9,34,55.5,34,55,34c-1.9,0-2.8-1.1-2.8-3.1v-4h-1.2v-1.7h1.2v-1.8
		l2.5-0.3v2.1h2l-0.3,1.7h-1.7V31c0,0.4,0.1,0.7,0.2,0.9s0.3,0.3,0.6,0.3c0.3,0,0.6-0.1,0.9-0.3L57.3,33.4z"/>
	<path class="st1" d="M62.8,33.7c-0.3,1.1-0.9,1.9-1.7,2.5s-1.8,0.9-3.1,1l-0.3-1.7c0.8-0.1,1.4-0.3,1.8-0.6
		c0.4-0.3,0.7-0.7,0.9-1.3h-0.9L57,25.2h2.7l1.5,6.9l1.7-6.9h2.6L62.8,33.7z"/>
	<path class="st1" d="M72.5,21.1c0.3,0.3,0.4,0.6,0.4,1c0,0.4-0.1,0.8-0.4,1c-0.3,0.3-0.6,0.4-1.1,0.4c-0.4,0-0.8-0.1-1.1-0.4
		s-0.4-0.6-0.4-1c0-0.4,0.1-0.8,0.4-1s0.6-0.4,1.1-0.4C71.9,20.7,72.2,20.9,72.5,21.1z M72.7,33.7h-2.5v-8.5h2.5V33.7z"/>
	<path class="st1" d="M85.7,25.6c0.4,0.5,0.6,1.1,0.6,1.9v6.2h-2.5v-5.8c0-0.8-0.2-1.1-0.7-1.1c-0.3,0-0.5,0.1-0.7,0.3
		c-0.2,0.2-0.4,0.5-0.6,0.8v5.8h-2.5v-5.8c0-0.8-0.2-1.1-0.7-1.1c-0.3,0-0.5,0.1-0.7,0.3c-0.2,0.2-0.4,0.5-0.6,0.8v5.8h-2.5v-8.5
		h2.2l0.2,1c0.3-0.4,0.7-0.7,1.1-1s0.9-0.3,1.4-0.3c0.5,0,0.9,0.1,1.2,0.4s0.6,0.6,0.8,1c0.3-0.5,0.7-0.8,1.1-1
		c0.4-0.2,0.9-0.3,1.4-0.3C84.7,24.9,85.2,25.1,85.7,25.6z"/>
	<path class="st1" d="M95.3,26.1c0.5,0.8,0.8,1.9,0.8,3.3c0,0.9-0.1,1.7-0.4,2.4c-0.3,0.7-0.7,1.2-1.2,1.6C94,33.8,93.4,34,92.7,34
		c-0.9,0-1.5-0.3-2.1-0.9V37l-2.5,0.3V25.2h2.2l0.1,0.9c0.3-0.4,0.7-0.7,1.1-0.9c0.4-0.2,0.9-0.3,1.3-0.3
		C94,24.9,94.8,25.3,95.3,26.1z M93.5,29.5c0-1-0.1-1.7-0.3-2.1c-0.2-0.4-0.6-0.6-1-0.6c-0.3,0-0.6,0.1-0.8,0.3
		c-0.3,0.2-0.5,0.4-0.6,0.7v3.6c0.3,0.5,0.8,0.8,1.3,0.8C92.9,32.2,93.5,31.3,93.5,29.5z"/>
	<path class="st1" d="M103,25l-0.4,2.8c-0.3-0.1-0.6-0.1-0.8-0.1c-0.5,0-0.9,0.2-1.1,0.5s-0.5,0.8-0.6,1.4v4h-2.5v-8.5h2.2l0.2,1.6
		c0.2-0.6,0.5-1.1,0.9-1.4c0.4-0.4,0.8-0.5,1.3-0.5C102.5,24.9,102.8,25,103,25z"/>
	<path class="st1" d="M110.4,26.1c0.7,0.8,1.1,1.9,1.1,3.4c0,0.9-0.2,1.7-0.5,2.4c-0.3,0.7-0.8,1.2-1.4,1.6
		c-0.6,0.4-1.4,0.6-2.2,0.6c-1.3,0-2.3-0.4-3-1.2s-1.1-1.9-1.1-3.4c0-0.9,0.2-1.7,0.5-2.4s0.8-1.2,1.4-1.6s1.4-0.6,2.2-0.6
		C108.6,24.9,109.7,25.3,110.4,26.1z M106.2,27.4c-0.3,0.4-0.4,1.1-0.4,2c0,0.9,0.1,1.6,0.4,2.1c0.3,0.4,0.6,0.7,1.2,0.7
		c0.5,0,0.9-0.2,1.2-0.7s0.4-1.1,0.4-2c0-0.9-0.1-1.6-0.4-2.1c-0.3-0.4-0.6-0.6-1.2-0.6C106.8,26.8,106.5,27,106.2,27.4z"/>
	<path class="st1" d="M117.5,33.7h-3l-2.7-8.5h2.8l1.5,6.6l1.6-6.6h2.6L117.5,33.7z"/>
	<path class="st1" d="M128.3,30.2h-5.3c0.1,0.7,0.3,1.2,0.6,1.5c0.3,0.3,0.8,0.4,1.3,0.4c0.3,0,0.7-0.1,1-0.2c0.3-0.1,0.7-0.3,1-0.6
		l1,1.4c-1,0.8-2.1,1.2-3.3,1.2c-1.4,0-2.4-0.4-3.2-1.2c-0.7-0.8-1.1-1.9-1.1-3.3c0-0.9,0.2-1.7,0.5-2.3s0.8-1.2,1.4-1.6
		s1.3-0.6,2.1-0.6c1.2,0,2.2,0.4,2.9,1.2c0.7,0.8,1,1.9,1,3.2C128.4,29.7,128.4,30,128.3,30.2z M125.9,28.6c0-1.3-0.5-2-1.4-2
		c-0.4,0-0.8,0.2-1,0.5c-0.2,0.3-0.4,0.9-0.4,1.6h2.8V28.6z"/>
	<path class="st1" d="M134.5,25.2c0.5,0.2,1,0.4,1.4,0.7l-0.9,1.4c-0.7-0.4-1.4-0.7-2.1-0.7c-0.3,0-0.6,0.1-0.8,0.2
		c-0.2,0.1-0.3,0.3-0.3,0.5c0,0.2,0,0.3,0.1,0.4s0.2,0.2,0.5,0.3s0.6,0.3,1.1,0.4c0.9,0.3,1.5,0.6,2,1c0.4,0.4,0.6,1,0.6,1.7
		c0,0.6-0.2,1.1-0.5,1.5c-0.3,0.4-0.8,0.8-1.4,1c-0.6,0.2-1.2,0.3-1.9,0.3c-0.7,0-1.4-0.1-2-0.3s-1.1-0.5-1.6-0.9l1.2-1.3
		c0.7,0.6,1.5,0.8,2.3,0.8c0.4,0,0.7-0.1,0.9-0.2c0.2-0.1,0.3-0.4,0.3-0.6c0-0.2,0-0.4-0.1-0.5c-0.1-0.1-0.3-0.2-0.5-0.3
		c-0.2-0.1-0.6-0.2-1.2-0.4c-0.8-0.2-1.5-0.6-1.9-1s-0.6-1-0.6-1.6c0-0.5,0.1-0.9,0.4-1.3c0.3-0.4,0.7-0.7,1.2-0.9
		c0.5-0.2,1.1-0.3,1.8-0.3C133.4,24.9,134,25,134.5,25.2z"/>
</g>
<g class="st0">
	<path class="st1" d="M11.3,48.2H6.1c0.1,0.7,0.3,1.2,0.6,1.5C7,50,7.4,50.2,8,50.2c0.3,0,0.7-0.1,1-0.2c0.3-0.1,0.7-0.3,1-0.6
		l1,1.4C10.1,51.6,9,52,7.8,52c-1.4,0-2.4-0.4-3.2-1.2c-0.7-0.8-1.1-1.9-1.1-3.3c0-0.9,0.2-1.7,0.5-2.3c0.3-0.7,0.8-1.2,1.4-1.6
		c0.6-0.4,1.3-0.6,2.1-0.6c1.2,0,2.2,0.4,2.9,1.2c0.7,0.8,1,1.9,1,3.2C11.4,47.7,11.3,48,11.3,48.2z M8.9,46.6c0-1.3-0.5-2-1.4-2
		c-0.4,0-0.8,0.2-1,0.5c-0.2,0.3-0.4,0.9-0.4,1.6h2.8V46.6z"/>
	<path class="st1" d="M25.1,43.2v8.5h-2.5v-6.8h-2.2v6.8h-2.5v-6.8h-2.2v6.8h-2.5v-6.8h-1.3v-1.7h1.3v-0.6c0-0.8,0.3-1.5,0.8-2
		c0.6-0.5,1.4-0.8,2.4-0.8c0.8,0,1.6,0.2,2.4,0.5c0.6-0.5,1.4-0.8,2.5-0.8c1,0,1.9,0.2,2.8,0.6l-0.7,1.6c-0.6-0.3-1.2-0.4-1.8-0.4
		c-0.5,0-0.8,0.1-1,0.3s-0.3,0.5-0.3,0.9v0.7H25.1z M17.9,42.5c0-0.2,0-0.5,0.1-0.8c-0.4-0.1-0.8-0.2-1.2-0.2
		c-0.4,0-0.7,0.1-0.8,0.2c-0.2,0.1-0.2,0.4-0.2,0.8v0.7h2.2V42.5z"/>
	<path class="st1" d="M32.4,43.2c0.5,0.2,0.9,0.4,1.3,0.8l-1.1,1.5c-0.5-0.4-1.1-0.6-1.6-0.6c-0.6,0-1,0.2-1.3,0.7s-0.4,1.2-0.4,2.1
		c0,0.9,0.1,1.6,0.4,2s0.7,0.6,1.2,0.6c0.3,0,0.5,0,0.8-0.1c0.2-0.1,0.5-0.2,0.8-0.4l1.1,1.5c-0.8,0.6-1.8,0.9-2.9,0.9
		c-0.9,0-1.6-0.2-2.2-0.6s-1.1-0.9-1.5-1.6c-0.3-0.7-0.5-1.5-0.5-2.4s0.2-1.7,0.5-2.4s0.8-1.2,1.5-1.6c0.6-0.4,1.4-0.6,2.2-0.6
		C31.4,42.9,31.9,43,32.4,43.2z"/>
	<path class="st1" d="M37.1,39.1c0.3,0.3,0.4,0.6,0.4,1c0,0.4-0.1,0.8-0.4,1c-0.3,0.3-0.6,0.4-1.1,0.4c-0.4,0-0.8-0.1-1.1-0.4
		s-0.4-0.6-0.4-1c0-0.4,0.1-0.8,0.4-1s0.6-0.4,1.1-0.4C36.4,38.7,36.8,38.9,37.1,39.1z M37.3,51.7h-2.5v-8.5h2.5V51.7z"/>
	<path class="st1" d="M46.6,48.2h-5.3c0.1,0.7,0.3,1.2,0.6,1.5c0.3,0.3,0.8,0.4,1.3,0.4c0.3,0,0.7-0.1,1-0.2c0.3-0.1,0.7-0.3,1-0.6
		l1,1.4c-1,0.8-2.1,1.2-3.3,1.2c-1.4,0-2.4-0.4-3.2-1.2c-0.7-0.8-1.1-1.9-1.1-3.3c0-0.9,0.2-1.7,0.5-2.3c0.3-0.7,0.8-1.2,1.4-1.6
		c0.6-0.4,1.3-0.6,2.1-0.6c1.2,0,2.2,0.4,2.9,1.2c0.7,0.8,1,1.9,1,3.2C46.6,47.7,46.6,48,46.6,48.2z M44.1,46.6c0-1.3-0.5-2-1.4-2
		c-0.4,0-0.8,0.2-1,0.5c-0.2,0.3-0.4,0.9-0.4,1.6h2.8V46.6z"/>
	<path class="st1" d="M54.8,43.6c0.4,0.4,0.6,1.1,0.6,1.9v6.2h-2.5v-5.8c0-0.4-0.1-0.7-0.2-0.9c-0.1-0.2-0.3-0.2-0.6-0.2
		c-0.5,0-1,0.4-1.5,1.1v5.8h-2.5v-8.5h2.2l0.2,1c0.4-0.4,0.8-0.8,1.2-1c0.4-0.2,0.9-0.3,1.4-0.3C53.8,42.9,54.4,43.1,54.8,43.6z"/>
	<path class="st1" d="M62.5,43.2c0.5,0.2,0.9,0.4,1.3,0.8l-1.1,1.5c-0.5-0.4-1.1-0.6-1.6-0.6c-0.6,0-1,0.2-1.3,0.7s-0.4,1.2-0.4,2.1
		c0,0.9,0.1,1.6,0.4,2s0.7,0.6,1.2,0.6c0.3,0,0.5,0,0.8-0.1c0.2-0.1,0.5-0.2,0.8-0.4l1.1,1.5C63,51.7,62,52,61,52
		c-0.9,0-1.6-0.2-2.2-0.6s-1.1-0.9-1.5-1.6c-0.3-0.7-0.5-1.5-0.5-2.4s0.2-1.7,0.5-2.4s0.8-1.2,1.5-1.6c0.6-0.4,1.4-0.6,2.2-0.6
		C61.5,42.9,62,43,62.5,43.2z"/>
	<path class="st1" d="M69.6,51.7c-0.3,1.1-0.9,1.9-1.7,2.5s-1.8,0.9-3.1,1l-0.3-1.7c0.8-0.1,1.4-0.3,1.8-0.6
		c0.4-0.3,0.7-0.7,0.9-1.3h-0.9l-2.6-8.5h2.7l1.5,6.9l1.7-6.9h2.6L69.6,51.7z"/>
	<path class="st1" d="M74.5,49.6c0.3,0.3,0.4,0.6,0.4,1c0,0.4-0.1,0.7-0.4,1c-0.3,0.3-0.6,0.4-1,0.4c-0.4,0-0.7-0.1-1-0.4
		c-0.3-0.3-0.4-0.6-0.4-1c0-0.4,0.1-0.7,0.4-1c0.3-0.3,0.6-0.4,1-0.4C73.9,49.2,74.2,49.3,74.5,49.6z"/>
</g>
</svg>
