<?xml version="1.0" encoding="utf-8"?>
<!-- Generator: Adobe Illustrator 23.0.6, SVG Export Plug-In . SVG Version: 6.00 Build 0)  -->
<svg version="1.1" id="Layer_1" xmlns="http://www.w3.org/2000/svg" xmlns:xlink="http://www.w3.org/1999/xlink" x="0px" y="0px"
	 width="148px" height="38px" viewBox="0 0 148 38" style="enable-background:new 0 0 148 38;" xml:space="preserve">
<style type="text/css">
	.st0{enable-background:new    ;}
	.st1{fill:#FFFFFF;}
</style>
<g class="st0">
	<path class="st1" d="M8.1,10H4.7v4.8H2.1V3.7h2.6v4.5h3.3V3.7h2.6v11.1H8.1V10z"/>
	<path class="st1" d="M19.5,7.2c0.7,0.8,1.1,1.9,1.1,3.4c0,0.9-0.2,1.7-0.5,2.4c-0.3,0.7-0.8,1.2-1.4,1.6c-0.6,0.4-1.4,0.6-2.2,0.6
		c-1.3,0-2.3-0.4-3-1.2c-0.7-0.8-1.1-1.9-1.1-3.4c0-0.9,0.2-1.7,0.5-2.4s0.8-1.2,1.4-1.6S15.6,6,16.4,6C17.7,6,18.7,6.4,19.5,7.2z
		 M15.3,8.5c-0.3,0.4-0.4,1.1-0.4,2c0,0.9,0.1,1.6,0.4,2.1c0.3,0.4,0.6,0.7,1.2,0.7c0.5,0,0.9-0.2,1.2-0.7c0.3-0.4,0.4-1.1,0.4-2
		c0-0.9-0.1-1.6-0.4-2.1c-0.3-0.4-0.6-0.6-1.2-0.6C15.9,7.8,15.5,8.1,15.3,8.5z"/>
	<path class="st1" d="M31.2,14.8h-3l-1.1-6.2l-1.1,6.2h-3l-1.8-8.5h2.6l0.9,6.6l1.3-6.6h2.5l1.2,6.6l1-6.6H33L31.2,14.8z"/>
	<path class="st1" d="M45.4,2.9v11.9h-2.2l-0.1-1c-0.6,0.9-1.4,1.3-2.4,1.3c-1.1,0-1.9-0.4-2.4-1.2s-0.8-1.9-0.8-3.4
		c0-0.9,0.1-1.7,0.4-2.3s0.7-1.2,1.2-1.6C39.6,6.2,40.2,6,40.8,6c0.8,0,1.5,0.3,2,0.8V2.6L45.4,2.9z M42.9,12.3V8.6
		c-0.2-0.2-0.4-0.4-0.6-0.6c-0.2-0.1-0.4-0.2-0.7-0.2c-0.5,0-0.8,0.2-1.1,0.7s-0.4,1.1-0.4,2c0,1,0.1,1.7,0.4,2.1
		c0.2,0.4,0.6,0.6,1,0.6C42,13.2,42.5,12.9,42.9,12.3z"/>
	<path class="st1" d="M54.1,7.2c0.7,0.8,1.1,1.9,1.1,3.4c0,0.9-0.2,1.7-0.5,2.4c-0.3,0.7-0.8,1.2-1.4,1.6c-0.6,0.4-1.4,0.6-2.2,0.6
		c-1.3,0-2.3-0.4-3-1.2c-0.7-0.8-1.1-1.9-1.1-3.4c0-0.9,0.2-1.7,0.5-2.4s0.8-1.2,1.4-1.6S50.2,6,51,6C52.3,6,53.4,6.4,54.1,7.2z
		 M49.9,8.5c-0.3,0.4-0.4,1.1-0.4,2c0,0.9,0.1,1.6,0.4,2.1c0.3,0.4,0.6,0.7,1.2,0.7c0.5,0,0.9-0.2,1.2-0.7c0.3-0.4,0.4-1.1,0.4-2
		c0-0.9-0.1-1.6-0.4-2.1c-0.3-0.4-0.6-0.6-1.2-0.6C50.5,7.8,50.1,8.1,49.9,8.5z"/>
	<path class="st1" d="M67.4,13.2c0.1,0.2,0.2,0.3,0.4,0.3l-0.5,1.6c-0.5,0-0.9-0.2-1.3-0.3c-0.3-0.2-0.6-0.5-0.8-0.9
		c-0.6,0.8-1.4,1.2-2.6,1.2c-0.8,0-1.5-0.2-2-0.7s-0.8-1.1-0.8-1.9c0-0.9,0.3-1.7,1-2.1s1.7-0.7,3-0.7h0.9V9.2c0-0.5-0.1-0.9-0.3-1
		s-0.6-0.3-1.1-0.3c-0.3,0-0.6,0-1,0.1s-0.8,0.2-1.2,0.3l-0.6-1.7c0.5-0.2,1.1-0.4,1.6-0.5C62.7,6,63.2,6,63.7,6
		c1.2,0,2.1,0.3,2.7,0.8C67,7.3,67.2,8,67.2,9.1v3.4C67.2,12.8,67.3,13,67.4,13.2z M64.8,12.5v-1.6h-0.6c-0.6,0-1,0.1-1.3,0.3
		c-0.3,0.2-0.4,0.6-0.4,1c0,0.4,0.1,0.7,0.3,0.9c0.2,0.2,0.4,0.3,0.7,0.3C64,13.4,64.4,13.1,64.8,12.5z"/>
	<path class="st1" d="M76.4,14.8h-2.2l-0.1-1.1c-0.6,0.9-1.5,1.4-2.6,1.4c-0.8,0-1.4-0.2-1.8-0.7s-0.6-1.1-0.6-2V6.3h2.5v5.8
		c0,0.4,0.1,0.7,0.2,0.9c0.1,0.2,0.3,0.3,0.6,0.3c0.5,0,1-0.3,1.4-1v-6h2.5V14.8z"/>
	<path class="st1" d="M83.7,14.5c-0.3,0.2-0.7,0.4-1.1,0.5c-0.4,0.1-0.8,0.2-1.2,0.2c-1.9,0-2.8-1.1-2.8-3.1V8h-1.2V6.3h1.2V4.4
		l2.5-0.3v2.1h2L82.8,8h-1.7v4.1c0,0.4,0.1,0.7,0.2,0.9s0.3,0.3,0.6,0.3c0.3,0,0.6-0.1,0.9-0.3L83.7,14.5z"/>
	<path class="st1" d="M91,7.2c0.7,0.8,1.1,1.9,1.1,3.4c0,0.9-0.2,1.7-0.5,2.4c-0.3,0.7-0.8,1.2-1.4,1.6c-0.6,0.4-1.4,0.6-2.2,0.6
		c-1.3,0-2.3-0.4-3-1.2s-1.1-1.9-1.1-3.4c0-0.9,0.2-1.7,0.5-2.4s0.8-1.2,1.4-1.6S87.1,6,87.9,6C89.2,6,90.2,6.4,91,7.2z M86.8,8.5
		c-0.3,0.4-0.4,1.1-0.4,2c0,0.9,0.1,1.6,0.4,2.1c0.3,0.4,0.6,0.7,1.2,0.7c0.5,0,0.9-0.2,1.2-0.7s0.4-1.1,0.4-2
		c0-0.9-0.1-1.6-0.4-2.1c-0.3-0.4-0.6-0.6-1.2-0.6C87.4,7.8,87,8.1,86.8,8.5z"/>
	<path class="st1" d="M104.6,6.7c0.4,0.5,0.6,1.1,0.6,1.9v6.2h-2.5V9c0-0.8-0.2-1.1-0.7-1.1c-0.3,0-0.5,0.1-0.7,0.3
		c-0.2,0.2-0.4,0.5-0.6,0.8v5.8h-2.5V9c0-0.8-0.2-1.1-0.7-1.1c-0.3,0-0.5,0.1-0.7,0.3c-0.2,0.2-0.4,0.5-0.6,0.8v5.8h-2.5V6.3h2.2
		l0.2,1c0.3-0.4,0.7-0.7,1.1-1S97.9,6,98.4,6c0.5,0,0.9,0.1,1.2,0.4s0.6,0.6,0.8,1c0.3-0.5,0.7-0.8,1.1-1c0.4-0.2,0.9-0.3,1.4-0.3
		C103.6,6,104.1,6.2,104.6,6.7z"/>
	<path class="st1" d="M113.9,13.2c0.1,0.2,0.2,0.3,0.4,0.3l-0.5,1.6c-0.5,0-0.9-0.2-1.3-0.3c-0.3-0.2-0.6-0.5-0.8-0.9
		c-0.6,0.8-1.4,1.2-2.6,1.2c-0.8,0-1.5-0.2-2-0.7c-0.5-0.5-0.8-1.1-0.8-1.9c0-0.9,0.3-1.7,1-2.1c0.7-0.5,1.7-0.7,3-0.7h0.9V9.2
		c0-0.5-0.1-0.9-0.3-1c-0.2-0.2-0.6-0.3-1.1-0.3c-0.3,0-0.6,0-1,0.1c-0.4,0.1-0.8,0.2-1.2,0.3l-0.6-1.7c0.5-0.2,1.1-0.4,1.6-0.5
		c0.6-0.1,1.1-0.2,1.6-0.2c1.2,0,2.1,0.3,2.7,0.8c0.6,0.5,0.8,1.3,0.8,2.3v3.4C113.8,12.8,113.8,13,113.9,13.2z M111.3,12.5v-1.6
		h-0.6c-0.6,0-1,0.1-1.3,0.3c-0.3,0.2-0.4,0.6-0.4,1c0,0.4,0.1,0.7,0.3,0.9c0.2,0.2,0.4,0.3,0.7,0.3C110.5,13.4,111,13.1,111.3,12.5
		z"/>
	<path class="st1" d="M118.3,14.8h-2.5V2.9l2.5-0.3V14.8z M121,10l2.8,4.8h-2.8l-2.5-4.6l2.6-3.9h2.6L121,10z"/>
	<path class="st1" d="M131.8,11.3h-5.3c0.1,0.7,0.3,1.2,0.6,1.5c0.3,0.3,0.8,0.4,1.3,0.4c0.3,0,0.7-0.1,1-0.2c0.3-0.1,0.7-0.3,1-0.6
		l1,1.4c-1,0.8-2.1,1.2-3.3,1.2c-1.4,0-2.4-0.4-3.2-1.2c-0.7-0.8-1.1-1.9-1.1-3.3c0-0.9,0.2-1.7,0.5-2.3s0.8-1.2,1.4-1.6
		s1.3-0.6,2.1-0.6c1.2,0,2.2,0.4,2.9,1.2c0.7,0.8,1,1.9,1,3.2C131.8,10.7,131.8,11,131.8,11.3z M129.4,9.7c0-1.3-0.5-2-1.4-2
		c-0.4,0-0.8,0.2-1,0.5c-0.2,0.3-0.4,0.9-0.4,1.6h2.8V9.7z"/>
	<path class="st1" d="M138.7,6.1L138.3,9c-0.3-0.1-0.6-0.1-0.8-0.1c-0.5,0-0.9,0.2-1.1,0.5s-0.5,0.8-0.6,1.4v4h-2.5V6.3h2.2l0.2,1.6
		c0.2-0.6,0.5-1.1,0.9-1.4c0.4-0.4,0.8-0.5,1.3-0.5C138.2,6,138.5,6,138.7,6.1z"/>
	<path class="st1" d="M144.2,6.2c0.5,0.2,1,0.4,1.4,0.7l-0.9,1.4c-0.7-0.4-1.4-0.7-2.1-0.7c-0.3,0-0.6,0.1-0.8,0.2
		c-0.2,0.1-0.3,0.3-0.3,0.5c0,0.2,0,0.3,0.1,0.4s0.2,0.2,0.5,0.3s0.6,0.3,1.1,0.4c0.9,0.3,1.5,0.6,2,1c0.4,0.4,0.6,1,0.6,1.7
		c0,0.6-0.2,1.1-0.5,1.5c-0.3,0.4-0.8,0.8-1.4,1c-0.6,0.2-1.2,0.3-1.9,0.3c-0.7,0-1.4-0.1-2-0.3s-1.1-0.5-1.6-0.9l1.2-1.3
		c0.7,0.6,1.5,0.8,2.3,0.8c0.4,0,0.7-0.1,0.9-0.2c0.2-0.1,0.3-0.4,0.3-0.6c0-0.2,0-0.4-0.1-0.5c-0.1-0.1-0.3-0.2-0.5-0.3
		c-0.2-0.1-0.6-0.2-1.2-0.4c-0.8-0.2-1.5-0.6-1.9-1s-0.6-1-0.6-1.6c0-0.5,0.1-0.9,0.4-1.3c0.3-0.4,0.7-0.7,1.2-0.9
		c0.5-0.2,1.1-0.3,1.8-0.3C143.1,6,143.7,6.1,144.2,6.2z"/>
</g>
<g class="st0">
	<path class="st1" d="M13,24.7c0.4,0.5,0.6,1.1,0.6,1.9v6.2h-2.5V27c0-0.8-0.2-1.1-0.7-1.1c-0.3,0-0.5,0.1-0.7,0.3
		c-0.2,0.2-0.4,0.5-0.6,0.8v5.8H6.6V27c0-0.8-0.2-1.1-0.7-1.1c-0.3,0-0.5,0.1-0.7,0.3c-0.2,0.2-0.4,0.5-0.6,0.8v5.8H2.1v-8.5h2.2
		l0.2,1c0.3-0.4,0.7-0.7,1.1-1C5.9,24.1,6.4,24,6.9,24c0.5,0,0.9,0.1,1.2,0.4s0.6,0.6,0.8,1c0.3-0.5,0.7-0.8,1.1-1
		c0.4-0.2,0.9-0.3,1.4-0.3C12.1,24,12.6,24.2,13,24.7z"/>
	<path class="st1" d="M22.4,31.2c0.1,0.2,0.2,0.3,0.4,0.3l-0.5,1.6c-0.5,0-0.9-0.2-1.3-0.3c-0.3-0.2-0.6-0.5-0.8-0.9
		c-0.6,0.8-1.4,1.2-2.6,1.2c-0.8,0-1.5-0.2-2-0.7c-0.5-0.5-0.8-1.1-0.8-1.9c0-0.9,0.3-1.7,1-2.1s1.7-0.7,3-0.7h0.9v-0.4
		c0-0.5-0.1-0.9-0.3-1s-0.6-0.3-1.1-0.3c-0.3,0-0.6,0-1,0.1s-0.8,0.2-1.2,0.3l-0.6-1.7c0.5-0.2,1.1-0.4,1.6-0.5
		c0.6-0.1,1.1-0.2,1.6-0.2c1.2,0,2.1,0.3,2.7,0.8c0.6,0.5,0.8,1.3,0.8,2.3v3.4C22.3,30.8,22.3,31,22.4,31.2z M19.8,30.5v-1.6h-0.6
		c-0.6,0-1,0.1-1.3,0.3c-0.3,0.2-0.4,0.6-0.4,1c0,0.4,0.1,0.7,0.3,0.9c0.2,0.2,0.4,0.3,0.7,0.3C19,31.4,19.5,31.1,19.8,30.5z"/>
	<path class="st1" d="M26.8,32.8h-2.5V20.9l2.5-0.3V32.8z M29.5,28l2.8,4.8h-2.8l-2.5-4.6l2.6-3.9h2.6L29.5,28z"/>
	<path class="st1" d="M40.3,29.3H35c0.1,0.7,0.3,1.2,0.6,1.5c0.3,0.3,0.8,0.4,1.3,0.4c0.3,0,0.7-0.1,1-0.2c0.3-0.1,0.7-0.3,1-0.6
		l1,1.4c-1,0.8-2.1,1.2-3.3,1.2c-1.4,0-2.4-0.4-3.2-1.2c-0.7-0.8-1.1-1.9-1.1-3.3c0-0.9,0.2-1.7,0.5-2.3c0.3-0.7,0.8-1.2,1.4-1.6
		c0.6-0.4,1.3-0.6,2.1-0.6c1.2,0,2.2,0.4,2.9,1.2c0.7,0.8,1,1.9,1,3.2C40.3,28.7,40.3,29,40.3,29.3z M37.9,27.7c0-1.3-0.5-2-1.4-2
		c-0.4,0-0.8,0.2-1,0.5c-0.2,0.3-0.4,0.9-0.4,1.6h2.8V27.7z"/>
	<path class="st1" d="M47.9,20.2c0.3,0.3,0.4,0.6,0.4,1c0,0.4-0.1,0.8-0.4,1c-0.3,0.3-0.6,0.4-1.1,0.4c-0.4,0-0.8-0.1-1.1-0.4
		s-0.4-0.6-0.4-1c0-0.4,0.1-0.8,0.4-1s0.6-0.4,1.1-0.4C47.3,19.8,47.6,19.9,47.9,20.2z M48.1,32.8h-2.5v-8.5h2.5V32.8z"/>
	<path class="st1" d="M55.4,32.5c-0.3,0.2-0.7,0.4-1.1,0.5c-0.4,0.1-0.8,0.2-1.2,0.2c-1.9,0-2.8-1.1-2.8-3.1v-4h-1.2v-1.7h1.2v-1.8
		l2.5-0.3v2.1h2L54.5,26h-1.7v4.1c0,0.4,0.1,0.7,0.2,0.9s0.3,0.3,0.6,0.3c0.3,0,0.6-0.1,0.9-0.3L55.4,32.5z"/>
	<path class="st1" d="M66.7,24.7c0.4,0.5,0.6,1.1,0.6,1.9v6.2h-2.5V27c0-0.4-0.1-0.7-0.2-0.9c-0.1-0.2-0.3-0.2-0.6-0.2
		c-0.5,0-1,0.4-1.5,1.1v5.8H60V20.9l2.5-0.3v4.6c0.4-0.4,0.7-0.7,1.1-0.9S64.5,24,65,24C65.7,24,66.3,24.2,66.7,24.7z"/>
	<path class="st1" d="M76.1,31.2c0.1,0.2,0.2,0.3,0.4,0.3L76,33.1c-0.5,0-1-0.2-1.3-0.3c-0.3-0.2-0.6-0.5-0.8-0.9
		c-0.6,0.8-1.4,1.2-2.6,1.2c-0.8,0-1.5-0.2-2-0.7c-0.5-0.5-0.8-1.1-0.8-1.9c0-0.9,0.3-1.7,1-2.1s1.7-0.7,3-0.7h0.9v-0.4
		c0-0.5-0.1-0.9-0.3-1s-0.6-0.3-1.1-0.3c-0.3,0-0.6,0-1,0.1s-0.8,0.2-1.2,0.3l-0.6-1.7c0.5-0.2,1.1-0.4,1.6-0.5
		C71.4,24,72,24,72.4,24c1.2,0,2.1,0.3,2.7,0.8c0.6,0.5,0.8,1.3,0.8,2.3v3.4C76,30.8,76,31,76.1,31.2z M73.5,30.5v-1.6h-0.6
		c-0.6,0-1,0.1-1.3,0.3c-0.3,0.2-0.4,0.6-0.4,1c0,0.4,0.1,0.7,0.3,0.9c0.2,0.2,0.4,0.3,0.7,0.3C72.7,31.4,73.2,31.1,73.5,30.5z"/>
	<path class="st1" d="M85.1,25.2c0.5,0.8,0.8,1.9,0.8,3.3c0,0.9-0.1,1.7-0.4,2.4c-0.3,0.7-0.7,1.2-1.2,1.6c-0.5,0.4-1.1,0.6-1.8,0.6
		c-0.9,0-1.5-0.3-2.1-0.9V36L78,36.3V24.3h2.2l0.1,0.9c0.3-0.4,0.7-0.7,1.1-0.9c0.4-0.2,0.9-0.3,1.3-0.3
		C83.8,24,84.6,24.4,85.1,25.2z M83.3,28.5c0-1-0.1-1.7-0.3-2.1c-0.2-0.4-0.6-0.6-1-0.6c-0.3,0-0.6,0.1-0.8,0.3
		c-0.3,0.2-0.5,0.4-0.6,0.7v3.6c0.3,0.5,0.8,0.8,1.3,0.8C82.8,31.2,83.3,30.3,83.3,28.5z"/>
	<path class="st1" d="M94.6,25.2c0.5,0.8,0.8,1.9,0.8,3.3c0,0.9-0.1,1.7-0.4,2.4c-0.3,0.7-0.7,1.2-1.2,1.6c-0.5,0.4-1.1,0.6-1.8,0.6
		c-0.9,0-1.5-0.3-2.1-0.9V36l-2.5,0.3V24.3h2.2l0.1,0.9c0.3-0.4,0.7-0.7,1.1-0.9c0.4-0.2,0.9-0.3,1.3-0.3
		C93.3,24,94.1,24.4,94.6,25.2z M92.8,28.5c0-1-0.1-1.7-0.3-2.1c-0.2-0.4-0.6-0.6-1-0.6c-0.3,0-0.6,0.1-0.8,0.3
		c-0.3,0.2-0.5,0.4-0.6,0.7v3.6c0.3,0.5,0.8,0.8,1.3,0.8C92.2,31.2,92.8,30.3,92.8,28.5z"/>
	<path class="st1" d="M104.2,29.3H99c0.1,0.7,0.3,1.2,0.6,1.5c0.3,0.3,0.8,0.4,1.3,0.4c0.3,0,0.7-0.1,1-0.2c0.3-0.1,0.7-0.3,1-0.6
		l1,1.4c-1,0.8-2.1,1.2-3.3,1.2c-1.4,0-2.4-0.4-3.2-1.2c-0.7-0.8-1.1-1.9-1.1-3.3c0-0.9,0.2-1.7,0.5-2.3s0.8-1.2,1.4-1.6
		s1.3-0.6,2.1-0.6c1.2,0,2.2,0.4,2.9,1.2c0.7,0.8,1,1.9,1,3.2C104.3,28.7,104.3,29,104.2,29.3z M101.8,27.7c0-1.3-0.5-2-1.4-2
		c-0.4,0-0.8,0.2-1,0.5C99.2,26.5,99,27,99,27.8h2.8V27.7z"/>
	<path class="st1" d="M112.4,24.7c0.4,0.4,0.6,1.1,0.6,1.9v6.2h-2.5V27c0-0.4-0.1-0.7-0.2-0.9c-0.1-0.2-0.3-0.2-0.6-0.2
		c-0.5,0-1,0.4-1.5,1.1v5.8h-2.5v-8.5h2.2l0.2,1c0.4-0.4,0.8-0.8,1.2-1c0.4-0.2,0.9-0.3,1.4-0.3C111.4,24,112,24.2,112.4,24.7z"/>
	<path class="st1" d="M119.3,21.8c0.5,0.2,0.9,0.6,1.2,1c0.3,0.4,0.4,0.9,0.4,1.4c0,0.4-0.1,0.8-0.2,1.1c-0.2,0.3-0.3,0.6-0.6,0.8
		c-0.2,0.2-0.5,0.4-0.8,0.7c-0.4,0.3-0.7,0.6-0.9,0.8c-0.2,0.2-0.3,0.5-0.3,0.9v0.4h-2.3v-0.5c0-0.5,0.1-1,0.2-1.3
		c0.2-0.4,0.3-0.6,0.6-0.9c0.2-0.2,0.5-0.4,0.8-0.7c0.3-0.2,0.6-0.4,0.7-0.6c0.1-0.2,0.2-0.4,0.2-0.6c0-0.3-0.1-0.5-0.3-0.7
		c-0.2-0.2-0.5-0.3-0.8-0.3c-0.7,0-1.3,0.3-1.9,1l-1.6-1.2c1-1.1,2.2-1.6,3.7-1.6C118.2,21.4,118.8,21.5,119.3,21.8z M117.9,30.7
		c0.3,0.3,0.4,0.6,0.4,1c0,0.4-0.1,0.7-0.4,1c-0.3,0.3-0.6,0.4-1,0.4s-0.7-0.1-1-0.4c-0.3-0.3-0.4-0.6-0.4-1c0-0.4,0.1-0.7,0.4-1
		c0.3-0.3,0.6-0.4,1-0.4S117.7,30.4,117.9,30.7z"/>
</g>
</svg>
