<?xml version="1.0" encoding="utf-8"?>
<!-- Generator: Adobe Illustrator 23.0.6, SVG Export Plug-In . SVG Version: 6.00 Build 0)  -->
<svg version="1.1" id="Layer_1" xmlns="http://www.w3.org/2000/svg" xmlns:xlink="http://www.w3.org/1999/xlink" x="0px" y="0px"
	 width="128px" height="34px" viewBox="0 0 128 34" style="enable-background:new 0 0 128 34;" xml:space="preserve">
<style type="text/css">
	.st0{fill:none;}
	.st1{fill:none;stroke:#FFFFFF;}
	.st2{enable-background:new    ;}
	.st3{fill:#FFFFFF;}
</style>
<g>
	<g id="Rectangle_5" transform="translate(24.975 144.116)">
		<path class="st0" d="M-0.2-139.5h77.9c6.9,0,12.6,5.6,12.6,12.6l0,0c0,6.9-5.6,12.6-12.6,12.6H-0.2c-6.9,0-12.6-5.6-12.6-12.6l0,0
			C-12.7-133.9-7.1-139.5-0.2-139.5z"/>
		<path class="st1" d="M-0.2-139h77.9c6.7,0,12.1,5.4,12.1,12.1l0,0c0,6.7-5.4,12.1-12.1,12.1H-0.2c-6.7,0-12.1-5.4-12.1-12.1l0,0
			C-12.2-133.6-6.8-139-0.2-139z"/>
	</g>
	<g class="st2">
		<path class="st3" d="M37.5,17.9h-1v3.3h-1.6v-8.3h2.5c2.2,0,3.3,0.8,3.3,2.4c0,0.6-0.1,1-0.4,1.4c-0.3,0.4-0.7,0.7-1.3,0.9
			l2.2,3.6h-1.8L37.5,17.9z M36.5,16.7h1c0.5,0,0.9-0.1,1.1-0.3c0.3-0.2,0.4-0.6,0.4-1.1c0-0.4-0.1-0.8-0.4-1S37.9,14,37.3,14h-0.9
			V16.7z"/>
		<path class="st3" d="M47.3,18.5h-4c0,0.6,0.2,1.1,0.5,1.3s0.6,0.4,1.1,0.4c0.3,0,0.5,0,0.8-0.1s0.5-0.2,0.8-0.4l0.6,0.9
			c-0.7,0.6-1.5,0.9-2.4,0.9c-1,0-1.7-0.3-2.2-0.9c-0.5-0.6-0.8-1.4-0.8-2.5c0-0.7,0.1-1.2,0.3-1.8c0.2-0.5,0.5-0.9,1-1.2
			c0.4-0.3,0.9-0.4,1.5-0.4c0.9,0,1.6,0.3,2.1,0.9s0.7,1.4,0.7,2.4C47.3,18,47.3,18.2,47.3,18.5z M45.8,17.5c0-1.2-0.4-1.7-1.2-1.7
			c-0.4,0-0.7,0.1-0.9,0.4c-0.2,0.3-0.3,0.7-0.4,1.4L45.8,17.5L45.8,17.5z"/>
		<path class="st3" d="M53.4,20.2c0.1,0.1,0.2,0.2,0.4,0.3l-0.3,0.8c-0.4,0-0.7-0.1-0.9-0.3c-0.2-0.1-0.4-0.4-0.5-0.7
			c-0.2,0.3-0.5,0.6-0.8,0.8c-0.3,0.2-0.7,0.3-1.1,0.3c-0.6,0-1.1-0.2-1.5-0.5c-0.4-0.4-0.6-0.8-0.6-1.4c0-0.7,0.2-1.2,0.8-1.6
			s1.2-0.6,2.1-0.6h0.8v-0.4c0-0.4-0.1-0.7-0.3-0.9s-0.5-0.3-0.9-0.3c-0.5,0-1,0.1-1.7,0.3l-0.4-1c0.8-0.3,1.6-0.5,2.3-0.5
			c1.6,0,2.4,0.7,2.4,2.2v2.7C53.3,19.9,53.3,20,53.4,20.2z M51.8,19.5v-1.3h-0.6c-1,0-1.5,0.4-1.5,1.1c0,0.3,0.1,0.6,0.2,0.7
			c0.2,0.2,0.4,0.3,0.7,0.3C51.1,20.4,51.5,20.1,51.8,19.5z"/>
		<path class="st3" d="M60.4,12.3v8.9h-1.4L59,20.4c-0.2,0.3-0.5,0.6-0.8,0.8c-0.3,0.2-0.7,0.3-1,0.3c-0.8,0-1.4-0.3-1.8-0.9
			c-0.4-0.6-0.6-1.4-0.6-2.5c0-0.7,0.1-1.2,0.3-1.8s0.5-0.9,0.9-1.2c0.4-0.3,0.8-0.4,1.3-0.4c0.6,0,1.1,0.2,1.6,0.7v-3.2L60.4,12.3z
			 M58.3,20.1c0.2-0.1,0.4-0.3,0.6-0.6v-3c-0.2-0.2-0.4-0.4-0.6-0.5c-0.2-0.1-0.4-0.2-0.7-0.2c-0.4,0-0.7,0.2-1,0.6
			c-0.2,0.4-0.4,0.9-0.4,1.7c0,0.8,0.1,1.4,0.3,1.7c0.2,0.3,0.5,0.5,0.9,0.5C57.9,20.3,58.1,20.2,58.3,20.1z"/>
		<path class="st3" d="M73.2,15.2c0.3,0.3,0.5,0.8,0.5,1.4v4.6h-1.5v-4.4c0-0.7-0.2-1-0.7-1c-0.2,0-0.5,0.1-0.6,0.2
			c-0.2,0.2-0.4,0.4-0.6,0.7v4.4h-1.5v-4.4c0-0.7-0.2-1-0.7-1c-0.3,0-0.5,0.1-0.7,0.2c-0.2,0.2-0.4,0.4-0.6,0.7v4.4h-1.5v-6.3h1.3
			l0.1,0.8c0.5-0.7,1.1-1,1.8-1c0.4,0,0.7,0.1,1,0.3c0.3,0.2,0.5,0.5,0.6,0.8c0.3-0.3,0.5-0.6,0.8-0.8c0.3-0.2,0.7-0.3,1.1-0.3
			C72.5,14.6,72.9,14.8,73.2,15.2z"/>
		<path class="st3" d="M80.2,15.6C80.7,16.2,81,17,81,18c0,0.7-0.1,1.3-0.4,1.8c-0.2,0.5-0.6,0.9-1,1.2c-0.4,0.3-1,0.4-1.6,0.4
			c-0.9,0-1.7-0.3-2.2-0.9C75.3,19.9,75,19.1,75,18c0-0.7,0.1-1.3,0.4-1.8c0.2-0.5,0.6-0.9,1-1.2c0.5-0.3,1-0.4,1.6-0.4
			C78.9,14.6,79.7,14.9,80.2,15.6z M76.6,18c0,0.8,0.1,1.3,0.3,1.7c0.2,0.4,0.6,0.5,1,0.5s0.8-0.2,1-0.5c0.2-0.4,0.3-0.9,0.3-1.7
			c0-0.8-0.1-1.3-0.3-1.7c-0.2-0.4-0.6-0.5-1-0.5C77.1,15.8,76.6,16.6,76.6,18z"/>
		<path class="st3" d="M86.2,14.8l-0.3,1.8c-0.2,0-0.4-0.1-0.6-0.1c-0.4,0-0.7,0.1-0.9,0.4c-0.2,0.2-0.4,0.6-0.5,1.1v3.2h-1.5v-6.3
			h1.3l0.1,1.2c0.2-0.5,0.4-0.8,0.7-1.1s0.6-0.4,1-0.4C85.7,14.6,86,14.7,86.2,14.8z"/>
		<path class="st3" d="M92,18.5h-4c0,0.6,0.2,1.1,0.5,1.3c0.3,0.3,0.6,0.4,1.1,0.4c0.3,0,0.5,0,0.8-0.1s0.5-0.2,0.8-0.4l0.6,0.9
			c-0.7,0.6-1.5,0.9-2.4,0.9c-1,0-1.7-0.3-2.2-0.9c-0.5-0.6-0.8-1.4-0.8-2.5c0-0.7,0.1-1.2,0.3-1.8s0.5-0.9,1-1.2
			c0.4-0.3,0.9-0.4,1.5-0.4c0.9,0,1.6,0.3,2.1,0.9c0.5,0.6,0.7,1.4,0.7,2.4C92.1,18,92.1,18.2,92,18.5z M90.6,17.5
			c0-1.2-0.4-1.7-1.2-1.7c-0.4,0-0.7,0.1-0.9,0.4c-0.2,0.3-0.3,0.7-0.4,1.4L90.6,17.5L90.6,17.5z"/>
	</g>
</g>
</svg>
