<svg version="1.1" id="Layer_1" xmlns="http://www.w3.org/2000/svg" x="0" y="0" width="46" height="42" xml:space="preserve"><style>.st0{fill:#fff}</style><g id="Logo" transform="translate(-1)"><path id="triangle" class="st0" d="M13.73 35.63L7.4 41.96l-6.33-6.33h12.66z"/><path id="here" class="st0" d="M22.97 21.26c-1.32-1.57-1.26-2.42-.44-3.23.99-.99 2-.57 3.13.53l-2.69 2.7zm13.54-17.2c.99-.99 2-.57 3.13.53l-2.7 2.7c-1.31-1.57-1.25-2.41-.43-3.23zm8.18 2.76c-1.23 1.84-3.36 4.82-5.61 2.58l5.68-5.68c-.51-.55-.9-1-1.19-1.3C40.51-.66 37.06-.69 34.36 2a5.818 5.818 0 00-1.75 5.82L30.82 5.8a3.7 3.7 0 00-1.06 5.11l-2.04-1.69-2.7 2.7 3.65 3.65c-2.82-2.24-5.86-2.02-8.3.41-2.61 2.6-2.43 5.76-.47 8.36l-.4-.39c-2.58-2.58-5.38-1.67-6.77-.28-1.07 1.07-1.73 2.55-1.46 3.57l-5.6-5.6-2.97 2.97 11.03 11.02h5.92l-3.97-3.98c-2.09-2.12-2.12-3.25-1.11-4.25.98-.97 2.11-.37 4.12 1.63l3.93 3.93L25.57 30l-3.73-3.73c2.69 2.03 5.91 2.14 8.78-.72l.05-.05c1-.88 1.78-1.98 2.27-3.21l-2.24-1.5c-1.23 1.84-3.36 4.83-5.6 2.58l5.69-5.69 3.55 3.55 3.09-3.09L33 13.7a3.038 3.038 0 01-.46-4.28c.14-.18.3-.34.48-.48.44.9 1.03 1.73 1.75 2.43 2.87 2.88 6.58 3.46 9.84.21l.05-.05c1-.88 1.78-1.98 2.27-3.21l-2.24-1.5z"/></g></svg>