<?xml version="1.0" encoding="UTF-8" standalone="no"?>
<!-- Created with Inkscape (http://www.inkscape.org/) -->

<svg
   xmlns:dc="http://purl.org/dc/elements/1.1/"
   xmlns:cc="http://creativecommons.org/ns#"
   xmlns:rdf="http://www.w3.org/1999/02/22-rdf-syntax-ns#"
   xmlns:svg="http://www.w3.org/2000/svg"
   xmlns="http://www.w3.org/2000/svg"
   xmlns:sodipodi="http://sodipodi.sourceforge.net/DTD/sodipodi-0.dtd"
   xmlns:inkscape="http://www.inkscape.org/namespaces/inkscape"
   width="744.09003"
   height="280"
   id="svg2"
   version="1.1"
   inkscape:version="0.48.4 r9939"
   sodipodi:docname="Gambar 2 Hirarki user roles yang mapan.svg"
   inkscape:export-filename="/home/wandyatmono/projects/jago/references/fdd/Perangkat Pendukung Featured Driven Development/Gambar 2 Hirarki user roles yang mapan.png"
   inkscape:export-xdpi="90"
   inkscape:export-ydpi="90">
  <defs
     id="defs4">
    <marker
       inkscape:stockid="TriangleOutM"
       orient="auto"
       refY="0"
       refX="0"
       id="TriangleOutM"
       style="overflow:visible">
      <path
         id="path3966"
         d="m 5.77,0 -8.65,5 0,-10 8.65,5 z"
         style="fill-rule:evenodd;stroke:#000000;stroke-width:1pt"
         transform="scale(0.4,0.4)"
         inkscape:connector-curvature="0" />
    </marker>
    <marker
       inkscape:stockid="TriangleOutL"
       orient="auto"
       refY="0"
       refX="0"
       id="TriangleOutL"
       style="overflow:visible">
      <path
         id="path3963"
         d="m 5.77,0 -8.65,5 0,-10 8.65,5 z"
         style="fill-rule:evenodd;stroke:#000000;stroke-width:1pt"
         transform="scale(0.8,0.8)"
         inkscape:connector-curvature="0" />
    </marker>
  </defs>
  <sodipodi:namedview
     id="base"
     pagecolor="#ffffff"
     bordercolor="#666666"
     borderopacity="1.0"
     inkscape:pageopacity="0.0"
     inkscape:pageshadow="2"
     inkscape:zoom="0.5"
     inkscape:cx="472.38795"
     inkscape:cy="-58.52185"
     inkscape:document-units="px"
     inkscape:current-layer="layer1"
     showgrid="false"
     inkscape:window-width="1323"
     inkscape:window-height="747"
     inkscape:window-x="43"
     inkscape:window-y="21"
     inkscape:window-maximized="1" />
  <metadata
     id="metadata7">
    <rdf:RDF>
      <cc:Work
         rdf:about="">
        <dc:format>image/svg+xml</dc:format>
        <dc:type
           rdf:resource="http://purl.org/dc/dcmitype/StillImage" />
        <dc:title></dc:title>
      </cc:Work>
    </rdf:RDF>
  </metadata>
  <g
     inkscape:label="Layer 1"
     inkscape:groupmode="layer"
     id="layer1"
     transform="translate(0,-772.36218)">
    <rect
       style="fill:#e8e8e8;fill-opacity:1;fill-rule:nonzero;stroke:none"
       id="rect3019"
       width="744.09003"
       height="280"
       x="0"
       y="772.36218" />
    <path
       style="fill:#919191;fill-opacity:1;fill-rule:nonzero;stroke:none"
       d="m 113.89802,813.94049 c -3.15688,0 -5.71747,2.55858 -5.71747,5.71545 0,2.64671 1.79941,4.87334 4.24122,5.52386 l 0,6.05024 -10.68069,0 0,2.92427 10.68069,0 0,14.83114 -12.69944,21.99663 2.55521,1.47423 11.62048,-20.12912 11.62048,20.12912 2.5532,-1.47423 -12.69944,-21.99865 0,-14.82912 10.68068,0 0,-2.92427 -10.68068,0 0,-6.05024 c 2.4418,-0.65052 4.24121,-2.87715 4.24121,-5.52386 0,-3.15687 -2.55857,-5.71545 -5.71545,-5.71545 z"
       id="path2985"
       inkscape:connector-curvature="0" />
    <path
       inkscape:connector-curvature="0"
       id="path3780"
       d="m 273.89802,813.94049 c -3.15688,0 -5.71747,2.55858 -5.71747,5.71545 0,2.64671 1.79941,4.87334 4.24122,5.52386 l 0,6.05024 -10.68069,0 0,2.92427 10.68069,0 0,14.83114 -12.69944,21.99663 2.55521,1.47423 11.62048,-20.12912 11.62048,20.12912 2.5532,-1.47423 -12.69944,-21.99865 0,-14.82912 10.68068,0 0,-2.92427 -10.68068,0 0,-6.05024 c 2.4418,-0.65052 4.24121,-2.87715 4.24121,-5.52386 0,-3.15687 -2.55857,-5.71545 -5.71545,-5.71545 z"
       style="fill:#919191;fill-opacity:1;fill-rule:nonzero;stroke:none" />
    <path
       style="fill:#919191;fill-opacity:1;fill-rule:nonzero;stroke:none"
       d="m 433.89802,813.94049 c -3.15688,0 -5.71747,2.55858 -5.71747,5.71545 0,2.64671 1.79941,4.87334 4.24122,5.52386 l 0,6.05024 -10.68069,0 0,2.92427 10.68069,0 0,14.83114 -12.69944,21.99663 2.55521,1.47423 11.62048,-20.12912 11.62048,20.12912 2.5532,-1.47423 -12.69944,-21.99865 0,-14.82912 10.68068,0 0,-2.92427 -10.68068,0 0,-6.05024 c 2.4418,-0.65052 4.24121,-2.87715 4.24121,-5.52386 0,-3.15687 -2.55857,-5.71545 -5.71545,-5.71545 z"
       id="path3782"
       inkscape:connector-curvature="0" />
    <path
       inkscape:connector-curvature="0"
       id="path3803"
       d="m 593.89802,813.94049 c -3.15688,0 -5.71747,2.55858 -5.71747,5.71545 0,2.64671 1.79941,4.87334 4.24122,5.52386 l 0,6.05024 -10.68069,0 0,2.92427 10.68069,0 0,14.83114 -12.69944,21.99663 2.55521,1.47423 11.62048,-20.12912 11.62048,20.12912 2.5532,-1.47423 -12.69944,-21.99865 0,-14.82912 10.68068,0 0,-2.92427 -10.68068,0 0,-6.05024 c 2.4418,-0.65052 4.24121,-2.87715 4.24121,-5.52386 0,-3.15687 -2.55857,-5.71545 -5.71545,-5.71545 z"
       style="fill:#919191;fill-opacity:1;fill-rule:nonzero;stroke:none" />
    <path
       inkscape:connector-curvature="0"
       id="path3805"
       d="m 193.89802,933.94049 c -3.15688,0 -5.71747,2.55858 -5.71747,5.71545 0,2.64671 1.79941,4.87334 4.24122,5.52386 l 0,6.05024 -10.68069,0 0,2.92427 10.68069,0 0,14.83114 -12.69944,21.99663 2.55521,1.47423 11.62048,-20.12912 11.62048,20.12912 2.5532,-1.47423 -12.69944,-21.99865 0,-14.82912 10.68068,0 0,-2.92427 -10.68068,0 0,-6.05024 c 2.4418,-0.65052 4.24121,-2.87715 4.24121,-5.52386 0,-3.15687 -2.55857,-5.71545 -5.71545,-5.71545 z"
       style="fill:#919191;fill-opacity:1;fill-rule:nonzero;stroke:none" />
    <path
       style="fill:#919191;fill-opacity:1;fill-rule:nonzero;stroke:none"
       d="m 353.89802,933.94049 c -3.15688,0 -5.71747,2.55858 -5.71747,5.71545 0,2.64671 1.79941,4.87334 4.24122,5.52386 l 0,6.05024 -10.68069,0 0,2.92427 10.68069,0 0,14.83114 -12.69944,21.99663 2.55521,1.47423 11.62048,-20.12912 11.62048,20.12912 2.5532,-1.47423 -12.69944,-21.99865 0,-14.82912 10.68068,0 0,-2.92427 -10.68068,0 0,-6.05024 c 2.4418,-0.65052 4.24121,-2.87715 4.24121,-5.52386 0,-3.15687 -2.55857,-5.71545 -5.71545,-5.71545 z"
       id="path3807"
       inkscape:connector-curvature="0" />
    <path
       inkscape:connector-curvature="0"
       id="path3809"
       d="m 513.89802,933.94049 c -3.15688,0 -5.71747,2.55858 -5.71747,5.71545 0,2.64671 1.79941,4.87334 4.24122,5.52386 l 0,6.05024 -10.68069,0 0,2.92427 10.68069,0 0,14.83114 -12.69944,21.99663 2.55521,1.47423 11.62048,-20.12912 11.62048,20.12912 2.5532,-1.47423 -12.69944,-21.99865 0,-14.82912 10.68068,0 0,-2.92427 -10.68068,0 0,-6.05024 c 2.4418,-0.65052 4.24121,-2.87715 4.24121,-5.52386 0,-3.15687 -2.55857,-5.71545 -5.71545,-5.71545 z"
       style="fill:#919191;fill-opacity:1;fill-rule:nonzero;stroke:none" />
    <path
       style="fill:#919191;fill-opacity:1;fill-rule:nonzero;stroke:none"
       d="m 673.89802,933.94049 c -3.15688,0 -5.71747,2.55858 -5.71747,5.71545 0,2.64671 1.79941,4.87334 4.24122,5.52386 l 0,6.05024 -10.68069,0 0,2.92427 10.68069,0 0,14.83114 -12.69944,21.99663 2.55521,1.47423 11.62048,-20.12912 11.62048,20.12912 2.5532,-1.47423 -12.69944,-21.99865 0,-14.82912 10.68068,0 0,-2.92427 -10.68068,0 0,-6.05024 c 2.4418,-0.65052 4.24121,-2.87715 4.24121,-5.52386 0,-3.15687 -2.55857,-5.71545 -5.71545,-5.71545 z"
       id="path3811"
       inkscape:connector-curvature="0" />
    <path
       style="fill:#919191;fill-opacity:1;fill-rule:nonzero;stroke:none"
       d="m 673.89802,853.94049 c -3.15688,0 -5.71747,2.55858 -5.71747,5.71545 0,2.64671 1.79941,4.87334 4.24122,5.52386 l 0,6.05024 -10.68069,0 0,2.92427 10.68069,0 0,14.83114 -12.69944,21.99663 2.55521,1.47423 11.62048,-20.12912 11.62048,20.12912 2.5532,-1.47423 -12.69944,-21.99865 0,-14.82912 10.68068,0 0,-2.92427 -10.68068,0 0,-6.05024 c 2.4418,-0.65052 4.24121,-2.87715 4.24121,-5.52386 0,-3.15687 -2.55857,-5.71545 -5.71545,-5.71545 z"
       id="path3813"
       inkscape:connector-curvature="0" />
    <path
       style="fill:none;stroke:#000000;stroke-width:2;stroke-linecap:butt;stroke-linejoin:miter;stroke-miterlimit:4;stroke-opacity:1;stroke-dasharray:none;marker-end:url(#TriangleOutM)"
       d="m 137.46358,847.06417 113.94039,0"
       id="path3815"
       inkscape:connector-curvature="0" />
    <path
       inkscape:connector-curvature="0"
       id="path4447"
       d="m 415.51997,847.06417 -113.94039,0"
       style="fill:none;stroke:#000000;stroke-width:2;stroke-linecap:butt;stroke-linejoin:miter;stroke-miterlimit:4;stroke-opacity:1;stroke-dasharray:none;marker-end:url(#TriangleOutM)" />
    <path
       style="fill:none;stroke:#000000;stroke-width:2;stroke-linecap:butt;stroke-linejoin:miter;stroke-miterlimit:4;stroke-opacity:1;stroke-dasharray:none;marker-end:url(#TriangleOutM)"
       d="m 377.46358,967.06417 113.94039,0"
       id="path4449"
       inkscape:connector-curvature="0" />
    <path
       inkscape:connector-curvature="0"
       id="path4451"
       d="m 655.51997,967.06417 -113.94039,0"
       style="fill:none;stroke:#000000;stroke-width:2;stroke-linecap:butt;stroke-linejoin:miter;stroke-miterlimit:4;stroke-opacity:1;stroke-dasharray:none;marker-end:url(#TriangleOutM)" />
    <path
       inkscape:connector-curvature="0"
       id="path4453"
       d="m 217.46358,961.06417 36.545,-61.11348"
       style="fill:none;stroke:#000000;stroke-width:2;stroke-linecap:butt;stroke-linejoin:miter;stroke-miterlimit:4;stroke-opacity:1;stroke-dasharray:none;marker-end:url(#TriangleOutM)"
       sodipodi:nodetypes="cc" />
    <path
       sodipodi:nodetypes="cc"
       style="fill:none;stroke:#000000;stroke-width:2;stroke-linecap:butt;stroke-linejoin:miter;stroke-miterlimit:4;stroke-opacity:1;stroke-dasharray:none;marker-end:url(#TriangleOutM)"
       d="M 488.5723,951.06417 301.06597,893.03016"
       id="path4455"
       inkscape:connector-curvature="0" />
    <path
       sodipodi:nodetypes="cc"
       style="fill:none;stroke:#000000;stroke-width:2;stroke-linecap:butt;stroke-linejoin:miter;stroke-miterlimit:4;stroke-opacity:1;stroke-dasharray:none;marker-end:url(#TriangleOutM)"
       d="M 654.78422,894.99928 534.68489,946.32379"
       id="path4457"
       inkscape:connector-curvature="0" />
    <path
       inkscape:connector-curvature="0"
       id="path4459"
       d="m 564.31851,894.99194 -39.89853,30.80205"
       style="fill:none;stroke:#000000;stroke-width:2;stroke-linecap:butt;stroke-linejoin:miter;stroke-miterlimit:4;stroke-opacity:1;stroke-dasharray:none;marker-end:url(#TriangleOutM)"
       sodipodi:nodetypes="cc" />
    <text
       xml:space="preserve"
       style="font-size:14px;font-style:normal;font-variant:normal;font-weight:normal;font-stretch:normal;text-align:center;line-height:125%;letter-spacing:0px;word-spacing:0px;text-anchor:middle;fill:#000000;fill-opacity:1;stroke:none;font-family:Ubuntu;-inkscape-font-specification:Ubuntu"
       x="113.37006"
       y="889.15027"
       id="text4461"
       sodipodi:linespacing="125%"><tspan
         sodipodi:role="line"
         id="tspan4463"
         x="113.37006"
         y="889.15027">DomainAdministrator</tspan></text>
    <text
       sodipodi:linespacing="125%"
       id="text4465"
       y="889.15027"
       x="273.40503"
       style="font-size:14px;font-style:normal;font-variant:normal;font-weight:normal;font-stretch:normal;text-align:center;line-height:125%;letter-spacing:0px;word-spacing:0px;text-anchor:middle;fill:#000000;fill-opacity:1;stroke:none;font-family:Ubuntu;-inkscape-font-specification:Ubuntu"
       xml:space="preserve"><tspan
         y="889.15027"
         x="273.40503"
         id="tspan4467"
         sodipodi:role="line">User</tspan></text>
    <text
       xml:space="preserve"
       style="font-size:14px;font-style:normal;font-variant:normal;font-weight:normal;font-stretch:normal;text-align:center;line-height:125%;letter-spacing:0px;word-spacing:0px;text-anchor:middle;fill:#000000;fill-opacity:1;stroke:none;font-family:Ubuntu;-inkscape-font-specification:Ubuntu"
       x="433.37006"
       y="889.15027"
       id="text4469"
       sodipodi:linespacing="125%"><tspan
         sodipodi:role="line"
         id="tspan4471"
         x="433.37006"
         y="889.15027">ProjectAdministrator</tspan></text>
    <text
       sodipodi:linespacing="125%"
       id="text4473"
       y="889.15027"
       x="593.61945"
       style="font-size:14px;font-style:normal;font-variant:normal;font-weight:normal;font-stretch:normal;text-align:center;line-height:125%;letter-spacing:0px;word-spacing:0px;text-anchor:middle;fill:#000000;fill-opacity:1;stroke:none;font-family:Ubuntu;-inkscape-font-specification:Ubuntu"
       xml:space="preserve"><tspan
         y="889.15027"
         x="593.61945"
         id="tspan4475"
         sodipodi:role="line">ChiefArchitect</tspan></text>
    <text
       xml:space="preserve"
       style="font-size:14px;font-style:normal;font-variant:normal;font-weight:normal;font-stretch:normal;text-align:center;line-height:125%;letter-spacing:0px;word-spacing:0px;text-anchor:middle;fill:#000000;fill-opacity:1;stroke:none;font-family:Ubuntu;-inkscape-font-specification:Ubuntu"
       x="673.56604"
       y="1009.1503"
       id="text4477"
       sodipodi:linespacing="125%"><tspan
         sodipodi:role="line"
         id="tspan4479"
         x="673.56604"
         y="1009.1503">ClassOwner</tspan></text>
    <text
       sodipodi:linespacing="125%"
       id="text4481"
       y="1009.1503"
       x="513.37006"
       style="font-size:14px;font-style:normal;font-variant:normal;font-weight:normal;font-stretch:normal;text-align:center;line-height:125%;letter-spacing:0px;word-spacing:0px;text-anchor:middle;fill:#000000;fill-opacity:1;stroke:none;font-family:Ubuntu;-inkscape-font-specification:Ubuntu"
       xml:space="preserve"><tspan
         y="1009.1503"
         x="513.37006"
         id="tspan4483"
         sodipodi:role="line">ProjectMember</tspan></text>
    <text
       xml:space="preserve"
       style="font-size:14px;font-style:normal;font-variant:normal;font-weight:normal;font-stretch:normal;text-align:center;line-height:125%;letter-spacing:0px;word-spacing:0px;text-anchor:middle;fill:#000000;fill-opacity:1;stroke:none;font-family:Ubuntu;-inkscape-font-specification:Ubuntu"
       x="353.61942"
       y="1009.1503"
       id="text4485"
       sodipodi:linespacing="125%"><tspan
         sodipodi:role="line"
         id="tspan4487"
         x="353.61942"
         y="1009.1503">Guest</tspan></text>
    <text
       sodipodi:linespacing="125%"
       id="text4489"
       y="1009.1503"
       x="193.74104"
       style="font-size:14px;font-style:normal;font-variant:normal;font-weight:normal;font-stretch:normal;text-align:center;line-height:125%;letter-spacing:0px;word-spacing:0px;text-anchor:middle;fill:#000000;fill-opacity:1;stroke:none;font-family:Ubuntu;-inkscape-font-specification:Ubuntu"
       xml:space="preserve"><tspan
         y="1009.1503"
         x="193.74104"
         id="tspan4491"
         sodipodi:role="line">SystemAdministrator</tspan></text>
  </g>
</svg>
