<?xml version="1.0" encoding="UTF-8" standalone="no"?>
<!-- Created with Inkscape (http://www.inkscape.org/) -->

<svg
   xmlns:dc="http://purl.org/dc/elements/1.1/"
   xmlns:cc="http://creativecommons.org/ns#"
   xmlns:rdf="http://www.w3.org/1999/02/22-rdf-syntax-ns#"
   xmlns:svg="http://www.w3.org/2000/svg"
   xmlns="http://www.w3.org/2000/svg"
   xmlns:sodipodi="http://sodipodi.sourceforge.net/DTD/sodipodi-0.dtd"
   xmlns:inkscape="http://www.inkscape.org/namespaces/inkscape"
   width="744.09448"
   height="150"
   id="svg2"
   version="1.1"
   inkscape:version="0.48.4 r9939"
   sodipodi:docname="gbr-1.svg">
  <defs
     id="defs4" />
  <sodipodi:namedview
     id="base"
     pagecolor="#ffffff"
     bordercolor="#666666"
     borderopacity="1.0"
     inkscape:pageopacity="0.0"
     inkscape:pageshadow="2"
     inkscape:zoom="1.1187728"
     inkscape:cx="260.98761"
     inkscape:cy="163.26852"
     inkscape:document-units="px"
     inkscape:current-layer="layer1"
     showgrid="false"
     inkscape:window-width="1319"
     inkscape:window-height="744"
     inkscape:window-x="41"
     inkscape:window-y="24"
     inkscape:window-maximized="1" />
  <metadata
     id="metadata7">
    <rdf:RDF>
      <cc:Work
         rdf:about="">
        <dc:format>image/svg+xml</dc:format>
        <dc:type
           rdf:resource="http://purl.org/dc/dcmitype/StillImage" />
        <dc:title />
      </cc:Work>
    </rdf:RDF>
  </metadata>
  <g
     inkscape:label="Layer 1"
     inkscape:groupmode="layer"
     id="layer1"
     transform="translate(0,-902.36218)">
    <rect
       style="color:#000000;fill:#ffffff;fill-opacity:1;stroke:none;stroke-width:4;marker:none;visibility:visible;display:inline;overflow:visible;enable-background:accumulate"
       id="rect4196"
       width="744.09003"
       height="150"
       x="0"
       y="902.36218" />
    <g
       id="g3020"
       transform="translate(19.570641,868.14519)">
      <path
         style="fill:#ffffff;fill-opacity:1;fill-rule:evenodd;stroke:#000000;stroke-width:2.5;stroke-linecap:butt;stroke-linejoin:miter;stroke-miterlimit:10;stroke-opacity:1"
         d="m 170.71429,100.93361 c 0,13.8086 -11.1914,25 -25,25 -13.80858,0 -25,-11.1914 -25,-25 0,-13.808599 11.19142,-24.999999 25,-24.999999 13.8086,0 25,11.1914 25,24.999999"
         id="path7"
         inkscape:connector-curvature="0" />
      <path
         style="fill:none;stroke:#000000;stroke-width:1.25;stroke-linecap:butt;stroke-linejoin:miter;stroke-miterlimit:10;stroke-opacity:1"
         d="m 170.71429,100.93361 c 0,13.8086 -11.1914,25 -25,25 -13.80858,0 -25,-11.1914 -25,-25 0,-13.808599 11.19142,-24.999999 25,-24.999999 13.8086,0 25,11.1914 25,24.999999"
         id="path9"
         inkscape:connector-curvature="0" />
    </g>
    <g
       id="g3024"
       transform="translate(27.672845,868.14519)">
      <path
         style="fill:#ffffff;fill-opacity:1;fill-rule:evenodd;stroke:#000000;stroke-width:2.5;stroke-linecap:butt;stroke-linejoin:miter;stroke-miterlimit:10;stroke-opacity:1"
         d="m 369.37438,103.39174 c 0,13.8086 -11.1914,25 -25,25 -13.80857,0 -25,-11.1914 -25,-25 0,-13.8086 11.19143,-25 25,-25 13.8086,0 25,11.1914 25,25"
         id="path93"
         inkscape:connector-curvature="0" />
      <path
         style="fill:none;stroke:#000000;stroke-width:1.25;stroke-linecap:butt;stroke-linejoin:miter;stroke-miterlimit:10;stroke-opacity:1"
         d="m 369.37438,103.39174 c 0,13.8086 -11.1914,25 -25,25 -13.80857,0 -25,-11.1914 -25,-25 0,-13.8086 11.19143,-25 25,-25 13.8086,0 25,11.1914 25,25"
         id="path95"
         inkscape:connector-curvature="0" />
      <path
         style="fill:#ffffff;fill-opacity:1;fill-rule:evenodd;stroke:#000000;stroke-width:2.5;stroke-linecap:butt;stroke-linejoin:miter;stroke-miterlimit:10;stroke-opacity:1"
         d="m 365.80506,103.39174 c 0,11.83595 -9.59473,21.43067 -21.43068,21.43067 -11.83592,0 -21.43065,-9.59472 -21.43065,-21.43067 0,-11.83593 9.59473,-21.43065 21.43065,-21.43065 11.83595,0 21.43068,9.59472 21.43068,21.43065"
         id="path97"
         inkscape:connector-curvature="0" />
      <path
         style="fill:none;stroke:#000000;stroke-width:1.25;stroke-linecap:butt;stroke-linejoin:miter;stroke-miterlimit:10;stroke-opacity:1"
         d="m 365.80506,103.39174 c 0,11.83595 -9.59473,21.43067 -21.43068,21.43067 -11.83592,0 -21.43065,-9.59472 -21.43065,-21.43067 0,-11.83593 9.59473,-21.43065 21.43065,-21.43065 11.83595,0 21.43068,9.59472 21.43068,21.43065"
         id="path99"
         inkscape:connector-curvature="0" />
    </g>
    <g
       id="g3030"
       transform="translate(19.570641,868.14519)">
      <path
         style="fill:#000000;fill-opacity:1;fill-rule:evenodd;stroke:#000000;stroke-width:2.5;stroke-linecap:butt;stroke-linejoin:miter;stroke-miterlimit:10;stroke-opacity:1"
         d="m 584.23891,103.46317 c 0,13.8086 -11.1914,25 -25,25 -13.80857,0 -25,-11.1914 -25,-25 0,-13.808602 11.19143,-25.000002 25,-25.000002 13.8086,0 25,11.1914 25,25.000002"
         id="path245"
         inkscape:connector-curvature="0" />
      <path
         style="fill:none;stroke:#000000;stroke-width:1.25;stroke-linecap:butt;stroke-linejoin:miter;stroke-miterlimit:10;stroke-opacity:1"
         d="m 584.23891,103.46317 c 0,13.8086 -11.1914,25 -25,25 -13.80857,0 -25,-11.1914 -25,-25 0,-13.808602 11.19143,-25.000002 25,-25.000002 13.8086,0 25,11.1914 25,25.000002"
         id="path247"
         inkscape:connector-curvature="0" />
      <path
         style="fill:#ffffff;fill-opacity:1;fill-rule:evenodd;stroke:#000000;stroke-width:2.5;stroke-linecap:butt;stroke-linejoin:miter;stroke-miterlimit:10;stroke-opacity:1"
         d="m 580.66959,103.46317 c 0,11.83595 -9.59473,21.43067 -21.43068,21.43067 -11.83592,0 -21.43065,-9.59472 -21.43065,-21.43067 0,-11.835932 9.59473,-21.430652 21.43065,-21.430652 11.83595,0 21.43068,9.59472 21.43068,21.430652"
         id="path249"
         inkscape:connector-curvature="0" />
      <path
         style="fill:none;stroke:#000000;stroke-width:1.25;stroke-linecap:butt;stroke-linejoin:miter;stroke-miterlimit:10;stroke-opacity:1"
         d="m 580.66959,103.46317 c 0,11.83595 -9.59473,21.43067 -21.43068,21.43067 -11.83592,0 -21.43065,-9.59472 -21.43065,-21.43067 0,-11.835932 9.59473,-21.430652 21.43065,-21.430652 11.83595,0 21.43068,9.59472 21.43068,21.430652"
         id="path251"
         inkscape:connector-curvature="0" />
    </g>
    <text
       xml:space="preserve"
       style="font-size:12px;font-style:normal;font-variant:normal;font-weight:normal;font-stretch:normal;line-height:125%;letter-spacing:0px;word-spacing:0px;fill:#000000;fill-opacity:1;stroke:none;font-family:Arial;-inkscape-font-specification:Arial"
       x="152.37672"
       y="1011.7491"
       id="text3036"
       sodipodi:linespacing="125%"><tspan
         sodipodi:role="line"
         id="tspan3038"
         x="152.37672"
         y="1011.7491">Start</tspan></text>
    <text
       xml:space="preserve"
       style="font-size:12px;font-style:normal;font-variant:normal;font-weight:normal;font-stretch:normal;line-height:125%;letter-spacing:0px;word-spacing:0px;fill:#000000;fill-opacity:1;stroke:none;font-family:Arial;-inkscape-font-specification:Arial"
       x="338.36459"
       y="1011.6026"
       id="text3040"
       sodipodi:linespacing="125%"><tspan
         sodipodi:role="line"
         id="tspan3042"
         x="338.36459"
         y="1011.6026">Intermediate</tspan></text>
    <text
       xml:space="preserve"
       style="font-size:12px;font-style:normal;font-variant:normal;font-weight:normal;font-stretch:normal;line-height:125%;letter-spacing:0px;word-spacing:0px;fill:#000000;fill-opacity:1;stroke:none;font-family:Arial;-inkscape-font-specification:Arial"
       x="568.08398"
       y="1011.6026"
       id="text3044"
       sodipodi:linespacing="125%"><tspan
         sodipodi:role="line"
         id="tspan3046"
         x="568.08398"
         y="1011.6026">End</tspan></text>
  </g>
</svg>
